<svg width="293" height="130" viewBox="0 0 293 130" fill="currentColor"
    xmlns="http://www.w3.org/2000/svg">
    <path d="M26.8823 70L17.5383 53.04H14.9143V70H3.97026V25.072H22.3383C25.8796 25.072 28.8876 25.6907 31.3623 26.928C33.8796 28.1653 35.7569 29.872 36.9943 32.048C38.2316 34.1813 38.8503 36.5707 38.8503 39.216C38.8503 42.2027 37.9969 44.8693 36.2903 47.216C34.6263 49.5627 32.1516 51.2267 28.8663 52.208L39.2343 70H26.8823ZM14.9143 45.296H21.6983C23.7036 45.296 25.1969 44.8053 26.1783 43.824C27.2023 42.8427 27.7143 41.456 27.7143 39.664C27.7143 37.9573 27.2023 36.6133 26.1783 35.632C25.1969 34.6507 23.7036 34.16 21.6983 34.16H14.9143V45.296ZM73.6883 62.064H56.9203L54.2323 70H42.7763L59.0323 25.072H71.7043L87.9603 70H76.3763L73.6883 62.064ZM70.8723 53.616L65.3043 37.168L59.8003 53.616H70.8723ZM133.1 70H122.156L103.852 42.288V70H92.9078V25.072H103.852L122.156 52.912V25.072H133.1V70ZM157.865 25.072C162.601 25.072 166.739 26.0107 170.281 27.888C173.822 29.7653 176.553 32.4107 178.473 35.824C180.435 39.1947 181.417 43.0987 181.417 47.536C181.417 51.9307 180.435 55.8347 178.473 59.248C176.553 62.6613 173.801 65.3067 170.217 67.184C166.675 69.0613 162.558 70 157.865 70H141.033V25.072H157.865ZM157.161 60.528C161.299 60.528 164.521 59.3973 166.825 57.136C169.129 54.8747 170.281 51.6747 170.281 47.536C170.281 43.3973 169.129 40.176 166.825 37.872C164.521 35.568 161.299 34.416 157.161 34.416H151.977V60.528H157.161ZM208.781 70.448C204.557 70.448 200.674 69.4667 197.133 67.504C193.634 65.5413 190.839 62.8107 188.749 59.312C186.701 55.7707 185.677 51.8027 185.677 47.408C185.677 43.0133 186.701 39.0667 188.749 35.568C190.839 32.0693 193.634 29.3387 197.133 27.376C200.674 25.4133 204.557 24.432 208.781 24.432C213.005 24.432 216.866 25.4133 220.365 27.376C223.906 29.3387 226.679 32.0693 228.685 35.568C230.733 39.0667 231.757 43.0133 231.757 47.408C231.757 51.8027 230.733 55.7707 228.685 59.312C226.637 62.8107 223.863 65.5413 220.365 67.504C216.866 69.4667 213.005 70.448 208.781 70.448ZM208.781 60.464C212.365 60.464 215.223 59.2693 217.357 56.88C219.533 54.4907 220.621 51.3333 220.621 47.408C220.621 43.44 219.533 40.2827 217.357 37.936C215.223 35.5467 212.365 34.352 208.781 34.352C205.154 34.352 202.253 35.5253 200.077 37.872C197.943 40.2187 196.877 43.3973 196.877 47.408C196.877 51.376 197.943 54.5547 200.077 56.944C202.253 59.2907 205.154 60.464 208.781 60.464ZM288.725 25.072V70H277.781V43.056L267.733 70H258.901L248.789 42.992V70H237.845V25.072H250.773L263.381 56.176L275.861 25.072H288.725Z" fill="currentColor"/>
    <path d="M33.7943 98.28C32.9836 96.7867 31.8103 95.656 30.2743 94.888C28.7809 94.0773 27.0103 93.672 24.9623 93.672C21.4209 93.672 18.5836 94.8453 16.4503 97.192C14.3169 99.496 13.2503 102.589 13.2503 106.472C13.2503 110.611 14.3596 113.853 16.5783 116.2C18.8396 118.504 21.9329 119.656 25.8583 119.656C28.5463 119.656 30.8076 118.973 32.6423 117.608C34.5196 116.243 35.8849 114.28 36.7383 111.72H22.8503V103.656H46.6583V113.832C45.8476 116.563 44.4609 119.101 42.4983 121.448C40.5783 123.795 38.1249 125.693 35.1383 127.144C32.1516 128.595 28.7809 129.32 25.0263 129.32C20.5889 129.32 16.6209 128.36 13.1223 126.44C9.66626 124.477 6.95693 121.768 4.99426 118.312C3.07426 114.856 2.11426 110.909 2.11426 106.472C2.11426 102.035 3.07426 98.088 4.99426 94.632C6.95693 91.1333 9.66626 88.424 13.1223 86.504C16.5783 84.5413 20.5249 83.56 24.9623 83.56C30.3383 83.56 34.8609 84.8613 38.5303 87.464C42.2423 90.0667 44.6956 93.672 45.8903 98.28H33.7943ZM75.6323 129L66.2883 112.04H63.6643V129H52.7203V84.072H71.0883C74.6296 84.072 77.6376 84.6907 80.1123 85.928C82.6296 87.1653 84.5069 88.872 85.7443 91.048C86.9816 93.1813 87.6003 95.5707 87.6003 98.216C87.6003 101.203 86.7469 103.869 85.0403 106.216C83.3763 108.563 80.9016 110.227 77.6163 111.208L87.9843 129H75.6323ZM63.6643 104.296H70.4483C72.4536 104.296 73.9469 103.805 74.9283 102.824C75.9523 101.843 76.4643 100.456 76.4643 98.664C76.4643 96.9573 75.9523 95.6133 74.9283 94.632C73.9469 93.6507 72.4536 93.16 70.4483 93.16H63.6643V104.296ZM122.438 121.064H105.67L102.982 129H91.5263L107.782 84.072H120.454L136.71 129H125.126L122.438 121.064ZM119.622 112.616L114.054 96.168L108.55 112.616H119.622ZM152.602 84.072V129H141.658V84.072H152.602ZM171.477 120.552H185.813V129H160.533V84.072H171.477V120.552ZM201.977 120.552H216.313V129H191.033V84.072H201.977V120.552ZM224.029 84.072H235.229L228.061 101.224H220.701L224.029 84.072ZM238.557 84.072H249.757L242.589 101.224H235.229L238.557 84.072Z" fill="currentColor"/>
</svg>
