<svg width="719" height="771" viewBox="0 0 719 771" fill="none" xmlns="http://www.w3.org/2000/svg">
<g filter="url(#filter0_d_46_1588)">
<path d="M660.265 425C660.265 464.397 652.505 503.407 637.429 539.805C622.352 576.203 600.254 609.274 572.397 637.132L360.265 425H660.265Z" fill="#F3752E" stroke="black" stroke-width="9"/>
<path d="M572.397 212.868C600.254 240.725 622.352 273.797 637.429 310.195C652.505 346.592 660.265 385.603 660.265 425L360.265 425L572.397 212.868Z" fill="#FF684D" stroke="black" stroke-width="9"/>
<path d="M572.396 637.132C544.539 664.99 511.467 687.087 475.069 702.164C438.672 717.24 399.661 725 360.264 725L360.264 425L572.396 637.132Z" fill="#FF684D" stroke="black" stroke-width="9"/>
<path d="M360.265 725C320.869 725 281.858 717.24 245.46 702.164C209.062 687.087 175.991 664.99 148.133 637.132L360.265 425V725Z" fill="#F3752E" stroke="black" stroke-width="9"/>
<path d="M360.265 125C399.661 125 438.672 132.76 475.07 147.836C511.467 162.913 544.539 185.011 572.397 212.868L360.265 425V125Z" fill="#F3752E" stroke="black" stroke-width="9"/>
<path d="M148.132 212.868C175.99 185.01 209.062 162.913 245.459 147.836C281.857 132.76 320.868 125 360.264 125L360.264 425L148.132 212.868Z" fill="#FF684D" stroke="black" stroke-width="9"/>
<path d="M60.2642 425C60.2642 385.604 68.0239 346.593 83.1003 310.195C98.1767 273.797 120.275 240.726 148.132 212.868L360.264 425L60.2642 425Z" fill="#F3752E" stroke="black" stroke-width="9"/>
<path d="M144.462 633.397C117.095 605.058 95.5778 571.605 81.1389 534.95C66.7 498.295 59.6223 459.155 60.3099 419.764L360.264 425L144.462 633.397Z" fill="#FF684D" stroke="black" stroke-width="9"/>
</g>
<path d="M537.558 496.844C536.202 489.406 534.827 481.762 534.783 474.169C534.777 473.225 534.452 471.175 535.402 470.644C536.108 470.244 537.258 470.137 538.058 470.15C538.715 470.156 538.696 470.456 538.896 470.994C540.19 474.431 540.296 478.237 540.796 481.844C541.333 485.669 541.796 489.5 542.402 493.312C543.177 498.144 543.915 503.025 543.846 507.9C543.84 508.437 543.858 509.125 543.483 509.419C542.758 509.987 541.452 509.744 540.621 509.419C539.521 508.981 539.321 506.831 539.015 505.644C538.665 504.269 538.39 502.987 538.196 501.581C538.083 500.719 537.821 499.875 537.708 499.012C537.627 498.256 537.702 497.6 537.558 496.844Z" fill="#FCC21B"/>
<path d="M537.946 470.15H538.058C538.715 470.156 538.696 470.456 538.896 470.994C540.19 474.431 540.296 478.237 540.796 481.844C541.333 485.669 541.796 489.5 542.402 493.312C543.177 498.144 543.915 503.025 543.846 507.9C543.84 508.437 543.858 509.125 543.483 509.419C543.165 509.669 542.746 509.762 542.296 509.762C541.715 509.762 541.096 509.606 540.627 509.419C539.527 508.981 539.327 506.831 539.021 505.644C538.671 504.269 538.396 502.987 538.202 501.581C538.09 500.719 537.827 499.875 537.715 499.012C537.627 498.256 537.702 497.606 537.565 496.85C536.208 489.412 534.833 481.769 534.79 474.175C534.783 473.231 534.458 471.181 535.408 470.65C536.077 470.262 537.152 470.15 537.946 470.15ZM537.946 466.387C536.733 466.387 534.99 466.556 533.552 467.369C530.733 468.95 530.921 472.331 531.002 473.775C531.008 473.931 531.021 474.075 531.021 474.194C531.071 482.262 532.552 490.369 533.858 497.519C533.883 497.669 533.896 497.887 533.902 498.169C533.915 498.519 533.927 498.956 533.983 499.456C534.058 500.087 534.183 500.631 534.29 501.119C534.365 501.469 534.44 501.8 534.471 502.069C534.677 503.537 534.952 504.925 535.377 506.581C535.427 506.775 535.471 506.987 535.515 507.212C535.877 508.937 536.477 511.825 539.24 512.919C539.821 513.15 540.977 513.525 542.296 513.525C543.64 513.525 544.858 513.131 545.815 512.381C547.571 511.006 547.596 508.95 547.608 508.069V507.969C547.677 502.919 546.977 498.075 546.121 492.725C545.721 490.206 545.377 487.606 545.033 485.087C544.871 483.831 544.702 482.581 544.527 481.325C544.402 480.437 544.302 479.544 544.208 478.644C543.883 475.706 543.552 472.675 542.427 469.675L542.396 469.581C541.49 466.837 539.321 466.406 538.115 466.394H537.946V466.387Z" fill="#F79329"/>
<path d="M549.146 496.506C548.702 488.956 548.271 481.2 549.14 473.663C549.246 472.725 549.171 470.65 550.177 470.238C550.927 469.925 552.084 469.963 552.877 470.069C553.534 470.156 553.471 470.45 553.602 471.006C554.471 474.581 554.115 478.369 554.177 482.006C554.24 485.869 554.24 489.731 554.384 493.588C554.559 498.475 554.702 503.413 554.046 508.238C553.971 508.775 553.902 509.456 553.509 509.706C552.715 510.181 551.446 509.781 550.665 509.356C549.627 508.794 549.69 506.638 549.527 505.419C549.346 504.013 549.227 502.706 549.209 501.288C549.202 500.413 549.04 499.55 549.04 498.675C549.046 497.906 549.19 497.275 549.146 496.506Z" fill="#FCC21B"/>
<path d="M551.765 469.994C552.165 469.994 552.546 470.025 552.883 470.069C553.54 470.156 553.477 470.45 553.608 471.006C554.477 474.581 554.121 478.369 554.183 482.006C554.246 485.869 554.246 489.731 554.39 493.587C554.565 498.475 554.708 503.412 554.052 508.237C553.977 508.775 553.908 509.456 553.515 509.706C553.252 509.856 552.952 509.925 552.633 509.925C551.958 509.925 551.202 509.644 550.671 509.356C549.633 508.794 549.696 506.637 549.533 505.419C549.352 504.012 549.233 502.706 549.215 501.287C549.208 500.412 549.046 499.55 549.046 498.675C549.046 497.912 549.196 497.275 549.152 496.506C548.708 488.956 548.277 481.2 549.146 473.662C549.252 472.725 549.177 470.65 550.183 470.237C550.621 470.056 551.202 469.994 551.765 469.994ZM551.765 466.231C550.615 466.231 549.602 466.406 548.746 466.756C545.752 467.994 545.527 471.375 545.433 472.825C545.427 472.975 545.421 473.119 545.402 473.237C544.471 481.275 544.958 489.487 545.39 496.731C545.396 496.875 545.377 497.1 545.352 497.381C545.315 497.725 545.277 498.162 545.277 498.662C545.277 499.3 545.327 499.856 545.377 500.35C545.408 500.706 545.44 501.044 545.446 501.312C545.465 502.769 545.571 504.181 545.796 505.9C545.821 506.081 545.833 506.294 545.852 506.525C545.983 508.169 546.24 511.237 548.865 512.656C549.565 513.037 550.983 513.681 552.621 513.681C553.652 513.681 554.608 513.425 555.44 512.925C557.358 511.756 557.633 509.731 557.752 508.862L557.765 508.762C558.44 503.806 558.333 498.9 558.133 493.45C558.04 490.9 558.008 488.275 557.983 485.737C557.971 484.469 557.952 483.206 557.933 481.937C557.921 481.056 557.927 480.156 557.94 479.256C557.977 476.3 558.008 473.237 557.258 470.112L557.233 470.006C556.665 467.181 554.571 466.487 553.371 466.331C552.84 466.269 552.283 466.231 551.765 466.231Z" fill="#F79329"/>
<path d="M562.771 483.731C560.952 491.075 559.121 498.619 558.602 506.194C558.54 507.138 558.09 509.163 559.002 509.75C559.683 510.188 560.821 510.369 561.621 510.406C562.29 510.438 562.277 510.138 562.515 509.619C564.015 506.263 564.358 502.475 565.077 498.9C565.84 495.119 566.54 491.319 567.383 487.55C568.446 482.775 569.483 477.944 569.721 473.088C569.746 472.55 569.802 471.863 569.452 471.544C568.765 470.931 567.44 471.094 566.596 471.369C565.471 471.731 565.14 473.869 564.765 475.038C564.327 476.388 563.977 477.65 563.702 479.05C563.533 479.906 563.221 480.725 563.058 481.588C562.915 482.331 562.952 482.981 562.771 483.731Z" fill="#FCC21B"/>
<path d="M568.077 471.125C568.596 471.125 569.102 471.238 569.452 471.544C569.802 471.856 569.746 472.544 569.721 473.088C569.49 477.944 568.446 482.781 567.383 487.55C566.54 491.325 565.84 495.119 565.077 498.9C564.358 502.475 564.015 506.256 562.515 509.619C562.296 510.113 562.29 510.413 561.715 510.413H561.621C560.821 510.375 559.683 510.194 559.002 509.756C558.09 509.163 558.533 507.144 558.602 506.2C559.121 498.625 560.952 491.081 562.771 483.738C562.952 482.988 562.921 482.338 563.058 481.588C563.221 480.731 563.533 479.906 563.702 479.05C563.977 477.656 564.327 476.388 564.765 475.038C565.14 473.869 565.471 471.738 566.596 471.369C567.015 471.231 567.558 471.125 568.077 471.125ZM568.077 467.363C566.983 467.363 566.027 467.6 565.427 467.8C562.596 468.719 561.79 471.688 561.358 473.288C561.302 473.506 561.246 473.713 561.19 473.888C560.677 475.463 560.302 476.875 560.021 478.319C559.971 478.588 559.871 478.913 559.777 479.25C559.633 479.731 559.477 480.281 559.365 480.894C559.271 481.4 559.233 481.844 559.196 482.2C559.171 482.481 559.152 482.7 559.115 482.844C557.377 489.875 555.402 497.856 554.858 505.944C554.852 506.038 554.833 506.175 554.808 506.331C554.64 507.775 554.24 511.144 556.958 512.913C558.477 513.888 560.421 514.119 561.44 514.175C561.54 514.175 561.627 514.181 561.715 514.181C562.846 514.181 564.89 513.8 565.908 511.256L565.946 511.156C567.258 508.225 567.783 505.206 568.283 502.294C568.44 501.406 568.583 500.525 568.765 499.663C569.015 498.419 569.258 497.175 569.502 495.931C569.996 493.444 570.496 490.875 571.052 488.388C572.24 483.088 573.233 478.288 573.477 473.288L573.483 473.169C573.521 472.294 573.621 470.25 571.971 468.763C571.246 468.106 570.002 467.363 568.077 467.363Z" fill="#F79329"/>
<path d="M571.99 499.281C574.133 492.025 576.358 484.587 579.74 477.787C580.158 476.944 580.796 474.969 581.877 474.919C582.69 474.887 583.765 475.306 584.477 475.681C585.058 475.987 584.908 476.244 584.846 476.812C584.446 480.469 582.827 483.912 581.646 487.356C580.402 491.006 579.083 494.637 577.902 498.319C576.415 502.975 574.871 507.675 572.615 511.987C572.365 512.469 572.065 513.094 571.608 513.181C570.696 513.362 569.646 512.556 569.052 511.894C568.265 511.006 569.058 509 569.321 507.8C569.627 506.419 569.958 505.15 570.427 503.806C570.715 502.981 570.858 502.112 571.152 501.294C571.415 500.562 571.777 500.019 571.99 499.281Z" fill="#FCC21B"/>
<path d="M581.971 474.919C582.771 474.919 583.79 475.325 584.477 475.681C585.058 475.987 584.908 476.244 584.846 476.812C584.446 480.469 582.827 483.912 581.646 487.356C580.402 491.006 579.083 494.637 577.902 498.319C576.415 502.975 574.871 507.675 572.615 511.987C572.365 512.469 572.065 513.094 571.608 513.181C571.521 513.2 571.427 513.206 571.34 513.206C570.502 513.206 569.583 512.487 569.052 511.887C568.265 511 569.058 508.994 569.321 507.794C569.627 506.412 569.958 505.144 570.427 503.8C570.715 502.975 570.858 502.106 571.152 501.287C571.408 500.569 571.771 500.025 571.983 499.281C574.127 492.025 576.352 484.587 579.733 477.787C580.152 476.944 580.79 474.969 581.871 474.919H581.971ZM581.971 471.156H581.727C578.477 471.306 577.115 474.419 576.54 475.75C576.477 475.894 576.421 476.019 576.371 476.125C572.777 483.362 570.44 491.256 568.39 498.212C568.346 498.356 568.252 498.556 568.14 498.806C567.99 499.125 567.802 499.531 567.627 500.012C567.415 500.6 567.271 501.156 567.146 501.644C567.058 501.987 566.977 502.312 566.89 502.569C566.408 503.95 566.027 505.319 565.658 506.994C565.621 507.169 565.565 507.375 565.502 507.6C565.046 509.306 564.271 512.156 566.246 514.381C566.94 515.162 568.815 516.962 571.346 516.962C571.69 516.962 572.021 516.925 572.352 516.862C574.546 516.419 575.496 514.606 575.902 513.825L575.952 513.731C578.277 509.275 579.833 504.631 581.49 499.456C582.258 497.069 583.108 494.631 583.927 492.281C584.358 491.044 584.79 489.806 585.208 488.562C585.496 487.737 585.802 486.906 586.115 486.069C587.152 483.287 588.233 480.419 588.583 477.212L588.602 477.119C589.033 474.263 587.296 472.9 586.227 472.338C585.165 471.8 583.583 471.156 581.971 471.156Z" fill="#F79329"/>
<path d="M531.333 492.744C534.983 499.375 538.696 506.2 541.14 513.381C541.452 514.275 542.402 516.119 541.671 516.919C541.121 517.519 540.071 517.987 539.302 518.231C538.671 518.431 538.602 518.137 538.246 517.694C535.933 514.844 534.627 511.269 533.008 508C531.29 504.544 529.633 501.05 527.858 497.625C525.602 493.287 523.346 488.888 521.871 484.25C521.715 483.738 521.477 483.087 521.733 482.694C522.246 481.919 523.558 481.738 524.452 481.788C525.627 481.85 526.502 483.825 527.165 484.856C527.933 486.05 528.596 487.181 529.221 488.456C529.608 489.244 530.121 489.956 530.502 490.744C530.833 491.431 530.965 492.075 531.333 492.744Z" fill="#FCC21B"/>
<path d="M524.177 481.781C524.277 481.781 524.371 481.781 524.459 481.788C525.634 481.85 526.509 483.825 527.171 484.856C527.94 486.05 528.602 487.181 529.227 488.456C529.615 489.244 530.127 489.956 530.509 490.744C530.834 491.431 530.965 492.075 531.334 492.75C534.984 499.375 538.696 506.2 541.14 513.381C541.452 514.275 542.402 516.119 541.671 516.919C541.121 517.519 540.071 517.988 539.302 518.231C539.165 518.275 539.052 518.294 538.959 518.294C538.627 518.294 538.521 518.044 538.246 517.694C535.934 514.844 534.627 511.269 533.009 508C531.29 504.544 529.634 501.05 527.859 497.625C525.602 493.288 523.346 488.888 521.871 484.25C521.715 483.738 521.477 483.088 521.734 482.694C522.196 482 523.315 481.781 524.177 481.781ZM524.177 478.019C521.727 478.019 519.696 478.969 518.602 480.619C517.371 482.488 517.996 484.444 518.259 485.281L518.29 485.375C519.815 490.163 522.015 494.544 524.521 499.363C525.684 501.6 526.821 503.925 527.921 506.175C528.49 507.344 529.065 508.506 529.64 509.669C530.027 510.45 530.39 511.25 530.765 512.063C532.002 514.763 533.284 517.55 535.321 520.056L535.371 520.125C536.321 521.406 537.527 522.05 538.959 522.05C539.446 522.05 539.921 521.975 540.434 521.813C541.421 521.494 543.24 520.775 544.452 519.45C546.64 517.037 545.377 513.875 544.84 512.525L544.69 512.144C542.09 504.5 538.127 497.294 534.627 490.931C534.552 490.806 534.484 490.588 534.39 490.344C534.271 490.013 534.121 489.6 533.902 489.138C533.621 488.55 533.334 488.069 533.084 487.65C532.896 487.338 532.721 487.044 532.602 486.8C531.965 485.5 531.271 484.269 530.327 482.819C530.227 482.663 530.121 482.475 530.009 482.275C529.177 480.85 527.64 478.194 524.665 478.031C524.509 478.025 524.346 478.019 524.177 478.019Z" fill="#F79329"/>
<path d="M555.102 498.219C552.665 505.381 550.19 512.737 549.033 520.244C548.89 521.181 548.265 523.15 549.127 523.825C549.771 524.319 550.89 524.594 551.683 524.706C552.34 524.8 552.358 524.494 552.633 523.994C554.415 520.775 555.083 517.037 556.108 513.537C557.196 509.831 558.221 506.112 559.377 502.425C560.846 497.756 562.302 493.031 562.946 488.212C563.015 487.675 563.133 487 562.808 486.65C562.171 485.975 560.84 486.031 559.971 486.231C558.821 486.5 558.308 488.594 557.833 489.731C557.283 491.037 556.827 492.269 556.433 493.631C556.196 494.469 555.808 495.256 555.577 496.1C555.371 496.831 555.352 497.487 555.102 498.219Z" fill="#FCC21B"/>
<path d="M561.127 486.094C561.771 486.094 562.421 486.238 562.808 486.644C563.127 486.988 563.008 487.669 562.946 488.206C562.302 493.025 560.846 497.756 559.377 502.419C558.221 506.1 557.196 509.819 556.108 513.531C555.083 517.025 554.421 520.769 552.633 523.988C552.39 524.431 552.346 524.713 551.89 524.713C551.827 524.713 551.758 524.706 551.683 524.7C550.89 524.594 549.771 524.319 549.127 523.819C548.265 523.15 548.89 521.175 549.033 520.238C550.19 512.738 552.665 505.375 555.102 498.213C555.346 497.481 555.371 496.831 555.577 496.094C555.808 495.25 556.196 494.463 556.433 493.625C556.827 492.256 557.283 491.025 557.833 489.725C558.308 488.594 558.821 486.494 559.971 486.225C560.308 486.15 560.715 486.094 561.127 486.094ZM561.127 482.331C560.471 482.331 559.777 482.413 559.121 482.563C556.215 483.244 555.152 486.125 554.59 487.675C554.508 487.888 554.44 488.094 554.365 488.263C553.696 489.85 553.221 491.181 552.815 492.581C552.74 492.844 552.627 493.156 552.496 493.488C552.315 493.956 552.115 494.488 551.952 495.094C551.815 495.581 551.74 496.019 551.677 496.369C551.627 496.644 551.59 496.863 551.54 497C549.202 503.863 546.552 511.65 545.315 519.656C545.302 519.756 545.271 519.894 545.233 520.044C544.946 521.463 544.258 524.788 546.802 526.775C548.24 527.881 550.152 528.275 551.171 528.413C551.44 528.45 551.677 528.463 551.89 528.463C552.89 528.463 554.752 528.125 555.883 525.881L555.927 525.788C557.49 522.969 558.271 520.006 559.021 517.138C559.246 516.275 559.465 515.419 559.715 514.575C560.065 513.363 560.421 512.144 560.771 510.925C561.471 508.488 562.196 505.975 562.958 503.538C564.596 498.344 566.002 493.644 566.671 488.694L566.69 488.556C566.796 487.7 567.058 485.688 565.558 484.075C564.802 483.275 563.427 482.331 561.127 482.331Z" fill="#F79329"/>
<path d="M570.884 516.581C575.027 510.25 579.246 503.731 582.234 496.756C582.609 495.888 583.702 494.125 583.034 493.269C582.534 492.631 581.521 492.081 580.777 491.781C580.165 491.531 580.071 491.813 579.671 492.231C577.146 494.906 575.577 498.363 573.715 501.5C571.74 504.813 569.827 508.163 567.79 511.45C565.202 515.606 562.627 519.819 560.802 524.331C560.602 524.831 560.315 525.456 560.552 525.875C560.996 526.681 562.302 526.963 563.19 526.981C564.371 527.006 565.39 525.106 566.134 524.125C566.99 523 567.74 521.919 568.459 520.694C568.902 519.938 569.471 519.275 569.902 518.513C570.277 517.856 570.465 517.231 570.884 516.581Z" fill="#FCC21B"/>
<path d="M580.396 491.687C580.502 491.687 580.621 491.719 580.783 491.781C581.527 492.081 582.54 492.625 583.04 493.269C583.708 494.131 582.621 495.887 582.24 496.756C579.252 503.731 575.033 510.25 570.89 516.581C570.471 517.225 570.283 517.856 569.902 518.519C569.471 519.275 568.902 519.944 568.458 520.7C567.74 521.925 566.996 523.006 566.133 524.131C565.396 525.1 564.383 526.987 563.215 526.987H563.19C562.302 526.969 561.002 526.687 560.552 525.881C560.321 525.462 560.602 524.837 560.802 524.337C562.627 519.825 565.202 515.612 567.79 511.456C569.821 508.175 571.74 504.825 573.715 501.506C575.577 498.369 577.152 494.912 579.671 492.237C579.971 491.925 580.096 491.687 580.396 491.687ZM580.396 487.931C578.452 487.931 577.358 489.175 577.008 489.581L576.933 489.662C574.733 492 573.246 494.675 571.802 497.262C571.365 498.044 570.933 498.825 570.483 499.581C569.815 500.706 569.146 501.837 568.483 502.975C567.221 505.119 565.915 507.331 564.596 509.469C561.74 514.056 559.215 518.237 557.315 522.919L557.265 523.05C556.946 523.856 556.19 525.744 557.246 527.681C558.29 529.556 560.471 530.687 563.108 530.744H563.208C566.121 530.744 567.777 528.35 568.758 526.919C568.89 526.731 569.008 526.55 569.121 526.4C570.127 525.081 570.94 523.875 571.696 522.606C571.833 522.369 572.027 522.094 572.233 521.806C572.521 521.394 572.846 520.931 573.158 520.387C573.421 519.944 573.602 519.544 573.746 519.219C573.865 518.962 573.952 518.756 574.04 518.631C578.002 512.581 582.496 505.706 585.69 498.237C585.733 498.15 585.79 498.025 585.858 497.887C586.496 496.581 587.996 493.519 585.996 490.956C584.883 489.531 583.133 488.675 582.19 488.294C581.583 488.05 580.99 487.931 580.396 487.931Z" fill="#F79329"/>
<path d="M565.94 516.206C568.815 509.206 571.727 502.012 573.346 494.6C573.552 493.675 574.29 491.737 573.471 491.025C572.858 490.487 571.758 490.144 570.971 489.994C570.321 489.862 570.283 490.162 569.977 490.644C567.996 493.744 567.108 497.437 565.871 500.869C564.558 504.5 563.308 508.15 561.927 511.756C560.177 516.325 558.446 520.956 557.502 525.725C557.396 526.262 557.24 526.925 557.54 527.294C558.14 528 559.465 528.031 560.34 527.881C561.508 527.688 562.146 525.625 562.696 524.519C563.321 523.25 563.852 522.05 564.327 520.712C564.621 519.887 565.052 519.125 565.333 518.3C565.583 517.575 565.652 516.925 565.94 516.206Z" fill="#FCC21B"/>
<path d="M570.708 489.956C570.783 489.956 570.871 489.969 570.977 489.987C571.758 490.144 572.865 490.487 573.477 491.019C574.296 491.737 573.558 493.669 573.352 494.594C571.733 502.006 568.815 509.2 565.946 516.2C565.658 516.912 565.596 517.569 565.346 518.287C565.065 519.112 564.633 519.881 564.34 520.7C563.865 522.037 563.333 523.237 562.708 524.506C562.158 525.606 561.521 527.669 560.352 527.869C560.096 527.912 559.796 527.937 559.483 527.937C558.752 527.937 557.971 527.775 557.552 527.275C557.252 526.912 557.408 526.244 557.515 525.706C558.458 520.937 560.19 516.306 561.94 511.737C563.321 508.131 564.571 504.481 565.883 500.85C567.121 497.425 568.008 493.731 569.99 490.625C570.24 490.237 570.302 489.956 570.708 489.956ZM570.708 486.2C569.577 486.2 567.99 486.606 566.858 488.531L566.808 488.625C565.077 491.337 564.121 494.25 563.196 497.062C562.915 497.912 562.633 498.756 562.34 499.587C561.908 500.781 561.477 501.981 561.058 503.175C560.208 505.562 559.34 508.025 558.415 510.412C556.477 515.475 554.79 520.069 553.808 524.994L553.79 525.106C553.621 525.962 553.227 527.969 554.64 529.675C555.746 531 557.458 531.706 559.477 531.706C559.983 531.706 560.483 531.662 560.977 531.581C563.915 531.094 565.146 528.269 565.808 526.756C565.902 526.55 565.983 526.356 566.065 526.187C566.796 524.706 567.377 523.362 567.871 521.975C567.965 521.719 568.102 521.412 568.246 521.087C568.452 520.631 568.69 520.106 568.896 519.512C569.058 519.037 569.171 518.594 569.252 518.244C569.315 517.975 569.371 517.756 569.427 517.619C572.177 510.931 575.296 503.325 577.021 495.406C577.046 495.306 577.083 495.175 577.121 495.025C577.502 493.625 578.39 490.344 575.952 488.2C574.59 487.012 572.702 486.5 571.702 486.3C571.371 486.231 571.04 486.2 570.708 486.2Z" fill="#F79329"/>
<path d="M545.54 499.431C545.896 506.988 546.302 514.744 547.977 522.15C548.183 523.075 548.327 525.137 549.377 525.444C550.158 525.675 551.296 525.519 552.077 525.325C552.721 525.169 552.627 524.881 552.708 524.313C553.183 520.669 552.427 516.944 552.096 513.312C551.758 509.469 551.34 505.631 551.058 501.775C550.721 496.894 550.327 491.969 549.165 487.244C549.033 486.713 548.896 486.044 548.465 485.837C547.627 485.45 546.408 485.987 545.677 486.487C544.702 487.162 544.996 489.3 544.965 490.531C544.933 491.95 544.965 493.263 545.096 494.675C545.177 495.544 545.115 496.419 545.208 497.287C545.277 498.044 545.502 498.669 545.54 499.431Z" fill="#FCC21B"/>
<path d="M547.802 485.706C548.04 485.706 548.258 485.744 548.458 485.837C548.883 486.044 549.021 486.712 549.158 487.244C550.327 491.969 550.715 496.894 551.052 501.775C551.333 505.631 551.752 509.469 552.09 513.312C552.427 516.944 553.177 520.669 552.702 524.312C552.627 524.881 552.715 525.169 552.071 525.325C551.571 525.45 550.908 525.562 550.302 525.562C549.965 525.562 549.646 525.525 549.371 525.45C548.327 525.144 548.177 523.081 547.971 522.156C546.296 514.75 545.896 507 545.533 499.437C545.496 498.669 545.277 498.05 545.196 497.294C545.102 496.425 545.165 495.55 545.083 494.681C544.952 493.269 544.921 491.956 544.952 490.537C544.983 489.306 544.69 487.169 545.665 486.494C546.227 486.112 547.065 485.706 547.802 485.706ZM547.802 481.95C545.921 481.95 544.327 482.856 543.54 483.4C541.083 485.1 541.158 488.175 541.196 489.825C541.202 490.05 541.208 490.269 541.202 490.456C541.165 492.125 541.215 493.581 541.346 495.031C541.371 495.306 541.377 495.637 541.377 495.994C541.383 496.5 541.396 497.075 541.465 497.706C541.515 498.2 541.602 498.637 541.671 498.987C541.727 499.262 541.771 499.481 541.783 499.631C542.121 506.862 542.515 515.069 544.302 522.981C544.327 523.081 544.352 523.225 544.371 523.375C544.621 524.8 545.202 528.144 548.315 529.056C548.908 529.231 549.577 529.319 550.296 529.319C551.358 529.319 552.333 529.131 552.965 528.975C554.121 528.7 556.14 527.788 556.402 524.913L556.415 524.806C556.833 521.606 556.465 518.562 556.115 515.619C556.002 514.731 555.902 513.85 555.821 512.975C555.702 511.656 555.577 510.331 555.446 509C555.208 506.544 554.965 504 554.79 501.512C554.408 496.112 553.996 491.237 552.79 486.35L552.765 486.244C552.558 485.4 552.065 483.425 550.083 482.469C549.352 482.106 548.602 481.95 547.802 481.95Z" fill="#F79329"/>
<path d="M542.402 513.819C541.627 506.288 540.802 498.575 538.727 491.269C538.477 490.356 538.215 488.306 537.152 488.056C536.358 487.869 535.227 488.088 534.465 488.325C533.833 488.519 533.933 488.8 533.89 489.369C533.615 493.038 534.571 496.713 535.108 500.319C535.658 504.144 536.283 507.95 536.771 511.781C537.383 516.631 538.046 521.531 539.471 526.181C539.627 526.7 539.808 527.363 540.24 527.544C541.102 527.888 542.283 527.288 542.983 526.738C543.921 526.013 543.515 523.894 543.477 522.669C543.427 521.25 543.327 519.944 543.121 518.538C542.983 517.675 543.008 516.8 542.865 515.938C542.727 515.188 542.483 514.588 542.402 513.819Z" fill="#FCC21B"/>
<path d="M536.465 487.994C536.709 487.994 536.94 488.012 537.146 488.062C538.209 488.312 538.471 490.362 538.721 491.275C540.802 498.575 541.621 506.294 542.396 513.825C542.484 514.587 542.727 515.194 542.852 515.944C542.996 516.806 542.971 517.687 543.109 518.544C543.315 519.95 543.421 521.256 543.465 522.675C543.502 523.906 543.909 526.025 542.971 526.744C542.415 527.181 541.546 527.65 540.784 527.65C540.59 527.65 540.402 527.619 540.227 527.55C539.796 527.369 539.615 526.706 539.459 526.188C538.034 521.537 537.371 516.637 536.759 511.787C536.271 507.956 535.646 504.144 535.096 500.325C534.559 496.719 533.602 493.037 533.877 489.375C533.921 488.806 533.821 488.525 534.452 488.331C535.021 488.156 535.784 487.994 536.465 487.994ZM536.465 484.231C535.184 484.231 533.965 484.55 533.352 484.737C532.202 485.087 530.259 486.106 530.14 488.981L530.134 489.087C529.896 492.319 530.427 495.35 530.946 498.281C531.102 499.15 531.259 500.019 531.39 500.881C531.584 502.212 531.784 503.569 531.99 504.912C532.352 507.325 532.734 509.825 533.04 512.262C533.721 517.637 534.396 522.487 535.871 527.3L535.902 527.4C536.152 528.231 536.752 530.187 538.802 531.037C539.452 531.3 540.115 531.425 540.796 531.425C542.815 531.425 544.477 530.362 545.296 529.725C547.64 527.906 547.402 524.844 547.271 523.2C547.252 522.975 547.234 522.756 547.234 522.575C547.177 520.919 547.052 519.469 546.834 518.006C546.784 517.725 546.771 517.394 546.74 517.038C546.709 516.538 546.671 515.969 546.571 515.35C546.49 514.844 546.377 514.412 546.29 514.075C546.215 513.8 546.159 513.581 546.146 513.431C545.409 506.237 544.571 498.056 542.346 490.262C542.321 490.169 542.29 490.031 542.259 489.881C541.934 488.469 541.165 485.15 538.009 484.412C537.527 484.287 537.009 484.231 536.465 484.231Z" fill="#F79329"/>
<path d="M583.996 504.581C583.39 503.9 582.452 503.625 581.571 503.531C580.458 503.412 579.346 503.3 578.233 503.194C576.94 503.075 575.627 502.95 574.333 502.919C574.146 502.919 573.965 502.912 573.783 502.912C572.602 502.912 570.902 502.687 570.277 504.056C569.952 504.781 569.74 505.619 569.49 506.375C568.071 510.681 562.971 510.862 559.177 510.756C554.252 510.612 548.74 511.581 543.958 510.337C541.815 509.775 539.715 508.594 538.983 506.375C538.608 505.256 538.377 503.537 537.14 503.062C536.19 502.7 535.121 502.894 534.133 502.919C532.833 502.95 531.527 503.075 530.233 503.194C529.121 503.3 528.008 503.412 526.896 503.531C526.015 503.625 525.077 503.9 524.471 504.581C523.758 505.387 524.365 506.425 524.508 507.356C525.133 511.369 526.571 515.381 527.477 519.356C528.552 524.044 529.633 528.725 530.883 533.369C531.515 535.681 532.19 537.981 532.915 540.269C533.271 541.394 533.802 544.725 534.802 545.512C535.708 546.225 537.252 545.244 538.208 545.125C539.396 544.975 540.602 544.8 541.79 544.675C551.29 543.644 560.777 543.894 570.24 545.125C571.196 545.25 572.74 546.225 573.646 545.512C574.646 544.725 575.177 541.394 575.533 540.269C576.265 537.987 576.94 535.687 577.565 533.369C578.821 528.725 579.902 524.044 580.971 519.356C581.877 515.381 583.321 511.369 583.952 507.356C584.108 506.425 584.715 505.387 583.996 504.581Z" fill="#FF0000"/>
<g clip-path="url(#clip0_46_1588)">
<path d="M192.58 477.485C191.891 475.407 189.775 472.946 187.412 472.437C186.45 472.23 184.995 472.257 183.732 472.339L183.147 472.372C180.423 472.509 177.738 473.034 175.474 473.531C169.786 474.784 163.344 476.2 157.274 478.251C156.793 478.415 156.295 478.579 155.786 478.743C152.483 479.82 148.737 481.04 146.052 483.43C144.488 484.824 143.247 486.777 142.465 489.062C141.393 492.212 141.234 495.707 142.022 498.895C143.476 504.818 147.293 505.666 151.324 506.562C151.756 506.655 152.21 506.754 152.669 506.863C154.818 507.372 157.006 507.629 159.161 507.629C168.561 507.629 176.606 502.887 184.049 498.031C187.04 496.073 189.222 494.236 190.89 492.256C194.161 488.395 194.095 482.057 192.58 477.485Z" fill="#E4E3DE"/>
<path d="M192.23 476.627C191.246 476.911 190.267 477.201 189.283 477.485C179.22 480.422 172.499 483.933 163.678 489.587C161.272 491.13 158.636 493.99 157.761 496.719C157 499.092 156.672 501.148 155.579 503.391C154.786 505.015 153.189 505.939 151.45 506.59C151.849 506.677 152.254 506.765 152.68 506.869C154.829 507.377 157.017 507.634 159.172 507.634C168.572 507.634 176.617 502.893 184.06 498.037C187.051 496.079 189.233 494.241 190.901 492.262C194.166 488.401 194.1 482.057 192.586 477.485C192.493 477.201 192.367 476.916 192.23 476.627Z" fill="#CDCBBF"/>
<path d="M139.632 483.189C138.768 485.169 138.38 487.575 139.255 489.62C140.244 491.928 142.519 492.152 144.685 492.639C149.574 493.744 156.038 495.991 161.042 494.854C164.061 494.17 167.003 492.163 169.683 490.681C176.087 487.127 182.409 483.386 189.048 480.263C190.617 479.525 194.872 478.497 194.855 476.282C194.85 475.495 194.855 474.707 194.855 473.92C194.855 472.301 194.576 470.206 193.045 469.298C192.159 468.773 191.055 468.462 190.076 468.15C188.517 467.652 186.937 467.105 185.362 466.679C180.773 465.421 175.841 464.814 171.126 465.651C162.366 467.215 154.594 471.016 147.403 476.156C145.33 477.633 143.176 479.049 141.371 480.859C140.496 481.734 139.96 482.44 139.632 483.189Z" fill="#FAC11D"/>
<path d="M193.051 469.293C192.728 469.102 192.378 468.948 192.017 468.801C192.728 471.125 185.29 473.706 182.939 474.745C177.842 477.004 167.708 480.903 163.858 484.873C162.847 485.918 160.692 488.915 160.271 490.287C159.724 492.043 158.619 494.416 155.819 495.034C157.646 495.226 159.429 495.215 161.053 494.848C164.072 494.165 167.014 492.158 169.694 490.676C176.097 487.121 182.419 483.38 189.058 480.258C190.628 479.52 194.883 478.491 194.866 476.277C194.861 475.489 194.866 474.702 194.866 473.914C194.861 472.295 194.576 470.201 193.051 469.293Z" fill="#E4A724"/>
<path d="M154.49 474.313C158.291 474.773 161.715 475.347 166.292 476.621C171.121 477.966 172.854 479.591 173.456 484.523C174.069 489.555 175.042 497.184 172.833 501.996C172.258 503.238 171.438 504.484 170.563 505.463C171.225 505.638 176.404 503.812 178.684 502.105C182.469 499.278 183.158 495.74 183.201 491.299C183.245 487.159 182.862 480.17 181.528 476.539C180.401 473.466 177.361 472.345 174.451 471.442C172.362 470.797 167.752 469.545 164.006 469.178C161.419 468.921 159.199 469.38 158.679 469.555C157.356 469.998 154.819 471.42 152.828 472.607C151.384 473.471 150.176 474.253 150.176 474.253C150.176 474.253 152.172 474.034 154.49 474.313Z" fill="#2F2F2F"/>
<path d="M206.766 504.594C206.077 502.516 203.961 500.055 201.598 499.546C200.636 499.338 199.181 499.366 197.918 499.448L197.333 499.48C194.609 499.617 191.924 500.142 189.66 500.64C183.972 501.892 177.53 503.309 171.46 505.359C170.979 505.523 170.481 505.687 169.972 505.852C166.669 506.934 162.923 508.154 160.238 510.544C158.674 511.938 157.433 513.891 156.651 516.177C155.579 519.327 155.42 522.821 156.208 526.009C157.662 531.932 161.474 532.78 165.51 533.677C165.942 533.77 166.396 533.868 166.855 533.977C169.005 534.486 171.192 534.743 173.347 534.743C182.747 534.743 190.792 530.002 198.235 525.145C201.226 523.188 203.408 521.35 205.076 519.37C208.347 515.504 208.281 509.166 206.766 504.594Z" fill="#E4E3DE"/>
<path d="M206.411 503.735C205.426 504.02 204.448 504.309 203.463 504.594C193.401 507.53 183.048 510.609 174.873 517.172C172.909 518.747 171.006 520.661 170.481 523.122C169.956 525.555 170.853 528.263 169.759 530.505C168.966 532.129 167.369 533.053 165.63 533.704C166.03 533.791 166.434 533.879 166.861 533.983C169.01 534.491 171.198 534.748 173.352 534.748C182.753 534.748 190.798 530.007 198.241 525.151C201.232 523.193 203.414 521.355 205.082 519.376C208.347 515.515 208.281 509.171 206.766 504.599C206.673 504.315 206.553 504.025 206.411 503.735Z" fill="#CDCBBF"/>
<path d="M153.768 512.217C152.888 514.826 153.911 517.577 156.913 517.402C160.369 517.205 164.088 517.309 167.49 518.02C169.77 518.495 171.99 519.288 174.265 519.748C175.512 519.999 177.071 520.262 178.372 519.977C179.45 519.742 180.401 518.927 181.375 518.435C185.411 516.39 189.179 513.973 193.264 512.026C195.801 510.817 198.3 509.537 200.811 508.28C202.867 507.252 206.192 506.42 207.193 504.047C209.479 498.671 202.096 494.531 197.912 493.514C193.258 492.382 187.609 491.994 182.939 493.142C179.504 493.984 176.092 494.996 172.816 496.363C169.617 497.703 167.014 499.584 164.143 501.416C161.157 503.325 158.018 505.77 155.754 508.52C154.95 509.505 154.244 510.812 153.768 512.217Z" fill="#EC6C30"/>
<path d="M204.059 496.407C204.557 497.26 204.262 498.846 203.665 499.612C202.637 500.935 199.083 502.472 197.836 503.123C194.62 504.791 186.767 507.695 184.448 509.209C181.834 510.91 178.077 513.557 175.775 515.657C173.91 517.358 172.034 518.304 169.737 518.577C171.247 518.987 172.745 519.447 174.265 519.753C175.512 520.005 177.071 520.267 178.372 519.983C179.45 519.748 180.401 518.933 181.375 518.441C185.411 516.395 189.179 513.978 193.264 512.031C195.801 510.823 198.301 509.543 200.811 508.285C202.867 507.257 206.192 506.426 207.193 504.052C208.5 500.984 206.657 498.321 204.059 496.407Z" fill="#D65B29"/>
<path d="M191.623 494.066C194.041 495.051 195.905 497.298 196.425 499.858C196.452 499.984 196.474 500.115 196.447 500.246C196.408 500.421 196.266 500.563 196.113 500.656C195.55 500.979 194.801 500.695 194.363 500.213C193.926 499.732 193.707 499.098 193.417 498.512C192.996 497.659 192.411 496.888 191.7 496.259C191.377 495.975 191.016 495.691 190.88 495.286C190.732 494.865 190.923 493.962 191.623 494.066ZM181.796 495.133C183.491 496.845 184.924 498.813 186.029 500.952C186.51 501.881 186.898 503.117 186.712 504.151C186.532 505.179 185.974 505.715 184.973 505.409C184.284 505.217 183.918 503.03 183.371 501.34C183.054 500.361 182.141 498.655 181.523 497.829C180.905 497.003 180.062 496.15 180.073 495.116C180.03 494.728 180.724 494.356 181.796 495.133ZM173.533 497.747C174.107 498.037 174.468 498.556 174.851 499.07C175.075 499.377 175.261 499.71 175.441 500.044C176.841 502.592 178.285 505.37 177.886 508.247C177.831 508.641 177.733 509.045 177.492 509.368C177.251 509.685 176.836 509.898 176.448 509.8C175.928 509.62 175.644 507.744 175.244 506.721C175.086 506.316 174.927 505.906 174.791 505.496C174.156 503.615 173.921 501.586 172.98 499.847C172.74 499.398 172.439 498.934 172.483 498.43C172.516 497.911 173.128 497.446 173.533 497.747ZM164.52 503.527C164.575 502.598 165.773 502.887 166.019 503.577C166.401 504.648 166.566 505.627 167.178 506.584C168.294 508.318 168.583 509.362 168.545 511.255C168.54 511.577 168.529 511.911 168.392 512.206C168.064 512.917 166.943 513.07 166.434 512.469C165.975 511.927 166.101 511.123 166.013 510.418C165.909 509.576 165.477 508.821 165.16 508.039C164.542 506.48 164.219 505.179 164.52 503.527Z" fill="#F4865C"/>
</g>
<path d="M418.464 642.241C417.704 641.552 416.982 640.737 416.271 639.709C413.93 636.351 412.087 629.077 414.483 625.391C416.495 622.285 420.449 620.628 423.971 619.512C431.381 617.166 439.141 616.948 446.88 617.456C455.017 617.992 465.96 619.141 469.936 627.043C471.133 629.405 470.718 632.473 470.16 634.94C468.58 641.951 461.88 646.479 454.667 647.666C446.962 648.94 438.08 649.52 430.424 647.808C426.383 646.911 421.51 644.997 418.464 642.241Z" fill="#F79329"/>
<path d="M417.102 619.813C415.593 620.573 413.274 621.952 412.383 623.466C411.792 624.478 411.732 625.052 411.732 626.266C411.732 628.443 412.541 629.613 414.526 630.428C418.07 631.888 419.64 630.177 420.296 634.661C420.766 637.855 424.376 639.003 427.137 638.073C428.619 637.581 429.637 636.427 431.283 636.52C433.437 636.641 434.657 638.166 436.369 639.227C437.67 640.031 439.108 640.266 440.623 640.146C441.941 640.037 443.084 639.238 444.14 638.484C446.891 636.498 449.384 638.265 452.212 638.927C456.056 639.818 458.26 637.434 460.568 634.612C461.924 632.955 463.248 632.922 465.359 632.993C467.07 633.048 468.011 632.632 468.869 631.09C469.695 629.619 469.247 627.18 470.805 626.168C472.063 625.348 473.217 625.304 474.18 623.882C476.509 620.448 473.644 617.336 470.942 615.482C468.919 614.104 466.458 612.764 463.948 612.671C458.998 612.485 454.235 614.071 449.423 614.99C443.932 616.023 438.447 617.172 432.88 617.691C427.613 618.189 421.997 617.358 417.102 619.813Z" fill="#BDCF46"/>
<path d="M439.89 641.967C438.233 641.967 436.729 641.552 435.428 640.748C434.886 640.414 434.4 640.042 433.913 639.676C432.808 638.839 432.13 638.358 431.184 638.303C430.594 638.243 430.211 638.527 429.505 638.921C428.991 639.211 428.406 639.534 427.711 639.769C426.913 640.037 426.071 640.173 425.207 640.173C421.729 640.173 418.983 638.013 418.535 634.918C418.272 633.119 418.272 633.119 417.004 632.911C416.216 632.78 415.139 632.61 413.854 632.08C411.19 630.986 409.949 629.137 409.949 626.266C409.949 624.954 410.009 623.986 410.851 622.564C411.951 620.688 414.422 619.168 416.304 618.216C420.154 616.286 424.266 616.198 428.247 616.116C429.801 616.084 431.266 616.051 432.715 615.914C437.364 615.477 442.078 614.574 446.628 613.699L449.089 613.223C450.379 612.977 451.67 612.682 452.961 612.392C456.51 611.577 460.19 610.724 464.013 610.877C466.414 610.965 469.011 611.987 471.954 614C476.69 617.248 478.073 621.312 475.656 624.883C474.732 626.239 473.638 626.742 472.763 627.147C472.419 627.311 472.085 627.459 471.773 627.661C471.472 627.858 471.336 628.634 471.199 629.384C471.057 630.198 470.893 631.128 470.428 631.959C469.323 633.939 467.89 634.787 465.637 634.787L465.298 634.781C464.981 634.77 464.68 634.765 464.396 634.765C463.056 634.765 462.602 634.951 461.951 635.749C460.169 637.92 457.729 640.906 453.792 640.906C453.152 640.906 452.485 640.83 451.807 640.671C451.047 640.491 450.33 640.25 449.647 640.026C447.886 639.43 446.475 639.009 445.184 639.944C444.107 640.726 442.625 641.792 440.765 641.94C440.476 641.956 440.18 641.967 439.89 641.967ZM431.102 634.727C431.195 634.727 431.294 634.727 431.386 634.732C433.476 634.852 434.859 635.902 436.079 636.832C436.478 637.127 436.877 637.434 437.315 637.707C438.195 638.254 439.272 638.456 440.481 638.363C441.279 638.303 442.1 637.751 443.095 637.034C444.265 636.192 445.496 635.782 446.874 635.782C448.274 635.782 449.554 636.214 450.79 636.624C451.424 636.838 452.026 637.04 452.622 637.177C455.361 637.827 457.019 636.127 459.19 633.474C460.748 631.577 462.405 631.183 464.407 631.183C464.724 631.183 465.063 631.188 465.424 631.205H465.648C466.54 631.205 466.829 631.09 467.316 630.209C467.491 629.903 467.595 629.318 467.694 628.749C467.923 627.464 468.24 625.698 469.837 624.653C470.368 624.314 470.86 624.09 471.286 623.887C472.025 623.554 472.364 623.379 472.708 622.87C474.251 620.595 472.063 618.391 469.947 616.942C467.584 615.329 465.604 614.509 463.898 614.443C460.529 614.323 457.254 615.066 453.776 615.859C452.441 616.166 451.107 616.472 449.772 616.723L447.317 617.194C442.679 618.08 437.889 619.004 433.065 619.458C431.49 619.605 429.888 619.644 428.335 619.677C424.589 619.753 421.051 619.83 417.922 621.394C415.959 622.384 414.433 623.516 413.947 624.352C413.586 624.97 413.536 625.184 413.536 626.245C413.536 627.688 413.881 628.197 415.226 628.755C416.129 629.127 416.872 629.252 417.589 629.362C419.842 629.728 421.488 630.308 422.084 634.382C422.319 636.001 423.922 636.575 425.223 636.575C425.694 636.575 426.164 636.498 426.59 636.356C426.973 636.225 427.361 636.012 427.777 635.782C428.614 635.323 429.68 634.727 431.102 634.727Z" fill="#855C52"/>
<path d="M412.601 615.586C412.672 617.254 413.022 618.96 413.575 620.612C416.145 628.295 424.2 631.691 431.829 632.402C444.435 633.578 467.535 634.355 471.527 618.167C473.332 610.861 466.922 602.789 460.059 600.509C447.295 596.27 429.522 594.739 418.464 604.156C415.708 606.508 412.443 611.796 412.601 615.586Z" fill="#ED6C30"/>
<path d="M440.383 600.755C446.229 600.755 452.818 601.876 458.927 603.905C464.133 605.638 469.361 612.004 468.054 617.314C466.08 625.32 457.467 629.378 442.466 629.378C439.371 629.378 436.008 629.198 432.158 628.842C428.417 628.498 419.443 626.879 416.965 619.474C416.495 618.074 416.227 616.713 416.178 615.433C416.079 613.027 418.622 608.712 420.783 606.874C425.546 602.816 432.147 600.755 440.383 600.755ZM440.383 597.178C432.343 597.178 424.43 599.07 418.464 604.156C415.708 606.508 412.443 611.796 412.601 615.586C412.672 617.254 413.022 618.96 413.575 620.612C416.145 628.295 424.2 631.691 431.829 632.402C434.897 632.692 438.589 632.955 442.466 632.955C454.547 632.955 468.503 630.417 471.527 618.167C473.332 610.861 466.922 602.789 460.059 600.509C454.18 598.556 447.235 597.178 440.383 597.178Z" fill="#855C52"/>
<path d="M413.411 607.12C413.476 608.788 413.816 610.495 414.357 612.146C416.862 619.83 424.687 623.226 432.114 623.937C444.369 625.118 466.846 625.884 470.729 609.702C472.484 602.395 466.25 594.323 459.573 592.043C447.153 587.805 429.866 586.273 419.109 595.691C416.43 598.042 413.258 603.336 413.411 607.12Z" fill="#855C52"/>
<path d="M417.578 606.12C415.648 606.382 413.865 607.104 412.53 608.553C409.987 611.326 410.879 616.28 414.701 617.369C415.872 617.697 417.086 617.418 418.262 617.686C419.399 617.943 420.351 618.654 421.182 619.436C422.719 620.885 425.037 622.159 427.263 621.919C429.418 621.689 431.228 620.251 433.377 620.021C434.389 619.906 434.969 620.092 435.734 620.672C440.268 624.106 444.894 621.022 448.252 617.746C449.455 616.576 450.741 615.57 451.747 614.186C452.403 613.289 454.115 611.402 453.792 610.227C451.129 609.696 448.777 610.812 446.147 610.784C439.387 610.708 432.973 608.531 426.459 606.967C423.884 606.349 420.559 605.704 417.578 606.12Z" fill="#BDCF46"/>
<path d="M418.65 610.008C420.865 610.008 423.233 610.511 425.043 610.948C426.558 611.309 428.105 611.72 429.604 612.119C435.023 613.546 440.629 615.023 446.601 615.094H446.754C447.082 615.094 447.41 615.083 447.722 615.061C447.656 615.121 447.585 615.181 447.519 615.247C447.126 615.608 446.737 615.974 446.354 616.352C443.265 619.387 441.247 620.021 440.104 620.021C439.333 620.021 438.611 619.748 437.84 619.157C436.954 618.479 435.679 617.702 433.727 617.702C433.432 617.702 433.126 617.719 432.797 617.752C431.146 617.937 429.784 618.512 428.576 619.02C427.717 619.381 426.968 619.704 426.361 619.77C426.301 619.775 426.229 619.78 426.164 619.78C425.207 619.78 423.856 619.102 422.795 618.096C421.8 617.155 420.225 615.848 418.054 615.351C417.091 615.132 416.216 615.127 415.511 615.121C415.117 615.116 414.674 615.116 414.493 615.066C413.93 614.902 413.553 614.503 413.378 613.869C413.143 613.054 413.34 612.152 413.865 611.572C414.576 610.79 415.615 610.314 417.036 610.117C417.523 610.041 418.076 610.008 418.65 610.008ZM418.65 606.437C417.933 606.437 417.228 606.475 416.533 606.579C414.504 606.863 412.623 607.618 411.218 609.166C408.543 612.102 409.473 617.347 413.498 618.506C414.734 618.856 416.014 618.561 417.255 618.84C418.453 619.113 419.454 619.868 420.334 620.694C421.822 622.105 423.998 623.357 426.158 623.357C426.35 623.357 426.541 623.346 426.738 623.324C429.008 623.078 430.916 621.558 433.18 621.306C433.372 621.29 433.552 621.279 433.716 621.279C434.471 621.279 435.001 621.498 435.658 622.006C437.14 623.133 438.627 623.598 440.087 623.598C443.325 623.598 446.398 621.301 448.837 618.905C450.106 617.653 451.462 616.592 452.523 615.127C453.207 614.175 455.017 612.179 454.678 610.932C454.136 610.823 453.601 610.773 453.086 610.773C450.943 610.773 448.93 611.517 446.737 611.517H446.622C439.486 611.435 432.737 609.133 425.874 607.476C423.774 606.967 421.182 606.437 418.65 606.437Z" fill="#855C52"/>
<path d="M416.194 588.149C415.363 588.937 414.565 589.883 413.788 591.053C411.218 594.914 409.205 603.276 411.819 607.52C414.029 611.085 418.36 612.988 422.215 614.268C430.342 616.964 438.84 617.216 447.322 616.63C456.237 616.018 468.235 614.7 472.588 605.616C474.371 601.903 472.84 594.384 470.854 590.998C468.377 586.766 463.844 584.195 459.354 582.489C450.292 579.044 439.431 577.955 430.019 580.586C425.125 581.948 419.891 584.633 416.194 588.149Z" fill="#F79329"/>
<path d="M437.905 586.618V586.541C437.905 585.213 439.491 584.731 440.585 584.78C442.154 584.857 443.429 586.613 441.542 587.608C440.596 588.095 437.905 588.248 437.905 586.618ZM441.258 592.896C441.258 592.869 441.258 592.841 441.263 592.82C441.383 591.496 443.013 591.157 444.096 591.31C445.654 591.534 446.759 593.394 444.79 594.209C443.806 594.613 441.115 594.515 441.258 592.896ZM446.557 587.63C446.562 587.602 446.562 587.58 446.562 587.553C446.743 586.235 448.378 585.967 449.45 586.164C451.003 586.448 452.031 588.357 450.024 589.09C449.029 589.456 446.344 589.243 446.557 587.63ZM433.262 592.524C433.224 592.388 433.202 592.251 433.208 592.092C433.24 591.08 434.176 590.545 435.291 590.419C436.746 590.255 438.436 591.321 437.446 592.612C436.522 593.82 433.694 593.908 433.262 592.524ZM450.062 593.301C449.707 592.404 450.183 591.387 452.299 591.387C453.666 591.392 454.782 592.852 453.688 593.952C452.239 595.39 450.505 594.438 450.062 593.301ZM456.608 589.68C456.581 588.291 458.533 588.406 459.381 588.762C459.955 589.002 460.447 589.467 460.453 590.123C460.458 590.616 460.07 591.43 459.551 591.556C458.583 591.797 456.712 590.834 456.614 589.79C456.614 589.757 456.614 589.719 456.608 589.68ZM448.788 598.113C448.755 596.724 450.713 596.839 451.555 597.189C452.129 597.43 452.622 597.895 452.633 598.551C452.638 599.043 452.244 599.858 451.725 599.984C450.762 600.224 448.892 599.262 448.794 598.217C448.788 598.184 448.788 598.146 448.788 598.113ZM437.058 599.765C436.976 599.442 437.052 599.038 437.375 598.545C437.741 597.971 438.583 597.747 439.223 597.665C439.841 597.583 440.503 597.736 440.837 598.299C442.34 600.82 437.484 601.438 437.058 599.765ZM425.256 595.149C425.174 594.832 425.256 594.422 425.573 593.93C425.945 593.361 426.782 593.131 427.422 593.049C428.045 592.967 428.701 593.12 429.04 593.689C430.539 596.205 425.683 596.823 425.256 595.149ZM429.352 588.177C429.265 587.854 429.352 587.449 429.669 586.957C430.036 586.383 430.878 586.159 431.518 586.077C432.141 585.995 432.797 586.148 433.137 586.716C434.635 589.232 429.784 589.845 429.352 588.177Z" fill="#855C52"/>
<path opacity="0.85" d="M284.204 568.759C254.883 569.026 251.617 576.958 251.617 576.958C251.617 576.958 259.953 635.92 260.821 641.703C261.689 647.487 271.597 653.313 284.204 653.313C296.811 653.313 306.72 647.478 307.588 641.703C308.456 635.92 316.895 577.353 316.895 577.353C316.895 577.353 313.526 569.026 284.204 568.759Z" fill="#BAE2FD"/>
<path d="M255.304 602.258C257.547 618.371 260.314 638.231 260.829 641.695C261.697 647.478 271.606 653.305 284.213 653.305C296.82 653.305 306.729 647.47 307.597 641.695C308.104 638.3 310.759 619.291 312.976 603.315C312.976 603.315 291.965 595.512 279.289 597.067C266.613 598.614 255.304 602.258 255.304 602.258Z" fill="url(#paint0_linear_46_1588)"/>
<path d="M312.813 602.034C314.369 605.962 306.428 618.595 283.689 608.944C262.127 599.783 255.304 602.258 255.304 602.258C258.466 599.104 264.817 594.781 280.449 594.781C298.178 594.781 310.94 597.291 312.813 602.034Z" fill="url(#paint1_radial_46_1588)"/>
<path d="M289.851 580.009C287.874 586.909 282.142 605.489 282.142 605.489C282.142 605.489 284.669 607.466 288.871 607.474C293.451 607.474 294.173 605.678 294.173 605.678C294.173 605.678 299.802 587.399 301.719 580.602C301.719 580.602 299.897 580.92 295.351 580.885C290.787 580.859 289.851 580.009 289.851 580.009Z" fill="#9575CD"/>
<path d="M302.243 625.624C304.502 625.624 306.333 623.85 306.333 621.662C306.333 619.474 304.502 617.701 302.243 617.701C299.984 617.701 298.152 619.474 298.152 621.662C298.152 623.85 299.984 625.624 302.243 625.624Z" fill="url(#paint2_radial_46_1588)"/>
<path d="M288.699 624.507C290.958 624.507 292.79 622.733 292.79 620.545C292.79 618.357 290.958 616.584 288.699 616.584C286.44 616.584 284.608 618.357 284.608 620.545C284.608 622.733 286.44 624.507 288.699 624.507Z" fill="url(#paint3_radial_46_1588)"/>
<path d="M280.518 642.021C282.777 642.021 284.608 640.247 284.608 638.059C284.608 635.871 282.777 634.098 280.518 634.098C278.259 634.098 276.427 635.871 276.427 638.059C276.427 640.247 278.259 642.021 280.518 642.021Z" fill="url(#paint4_radial_46_1588)"/>
<path d="M292.248 641.454C294.508 641.454 296.339 639.68 296.339 637.492C296.339 635.304 294.508 633.53 292.248 633.53C289.989 633.53 288.158 635.304 288.158 637.492C288.158 639.68 289.989 641.454 292.248 641.454Z" fill="url(#paint5_radial_46_1588)"/>
<path d="M292.248 641.454C294.508 641.454 296.339 639.68 296.339 637.492C296.339 635.304 294.508 633.53 292.248 633.53C289.989 633.53 288.158 635.304 288.158 637.492C288.158 639.68 289.989 641.454 292.248 641.454Z" fill="url(#paint6_radial_46_1588)"/>
<path d="M288.699 624.507C290.958 624.507 292.79 622.733 292.79 620.545C292.79 618.357 290.958 616.584 288.699 616.584C286.44 616.584 284.608 618.357 284.608 620.545C284.608 622.733 286.44 624.507 288.699 624.507Z" fill="url(#paint7_radial_46_1588)"/>
<path d="M302.243 625.624C304.502 625.624 306.333 623.85 306.333 621.662C306.333 619.474 304.502 617.701 302.243 617.701C299.984 617.701 298.152 619.474 298.152 621.662C298.152 623.85 299.984 625.624 302.243 625.624Z" fill="url(#paint8_radial_46_1588)"/>
<path d="M266.424 641.145C268.503 641.145 270.188 639.509 270.188 637.492C270.188 635.475 268.503 633.84 266.424 633.84C264.345 633.84 262.66 635.475 262.66 637.492C262.66 639.509 264.345 641.145 266.424 641.145Z" fill="url(#paint9_radial_46_1588)"/>
<path d="M266.424 641.145C268.503 641.145 270.188 639.509 270.188 637.492C270.188 635.475 268.503 633.84 266.424 633.84C264.345 633.84 262.66 635.475 262.66 637.492C262.66 639.509 264.345 641.145 266.424 641.145Z" fill="url(#paint10_radial_46_1588)"/>
<path d="M300.103 646.464C302.182 646.464 303.867 644.829 303.867 642.812C303.867 640.795 302.182 639.159 300.103 639.159C298.024 639.159 296.339 640.795 296.339 642.812C296.339 644.829 298.024 646.464 300.103 646.464Z" fill="url(#paint11_radial_46_1588)"/>
<path d="M300.103 646.464C302.182 646.464 303.867 644.829 303.867 642.812C303.867 640.795 302.182 639.159 300.103 639.159C298.024 639.159 296.339 640.795 296.339 642.812C296.339 644.829 298.024 646.464 300.103 646.464Z" fill="url(#paint12_radial_46_1588)"/>
<path d="M276.393 638.059C276.393 635.868 278.06 634.227 280.312 634.098C282.555 633.969 284.643 635.653 284.643 637.845C284.643 640.036 283.233 642.141 280.475 642.03C278.223 641.927 276.393 640.242 276.393 638.059Z" fill="url(#paint13_radial_46_1588)"/>
<path d="M285.743 651.62C288.002 651.62 289.833 649.847 289.833 647.659C289.833 645.471 288.002 643.697 285.743 643.697C283.484 643.697 281.652 645.471 281.652 647.659C281.652 649.847 283.484 651.62 285.743 651.62Z" fill="url(#paint14_radial_46_1588)"/>
<path d="M281.618 647.659C281.618 645.467 283.285 643.826 285.536 643.697C287.779 643.568 289.868 645.252 289.868 647.444C289.868 649.635 288.458 651.741 285.7 651.629C283.448 651.534 281.618 649.85 281.618 647.659Z" fill="url(#paint15_radial_46_1588)"/>
<path d="M274.184 634.63C276.443 634.63 278.275 632.857 278.275 630.669C278.275 628.481 276.443 626.707 274.184 626.707C271.925 626.707 270.094 628.481 270.094 630.669C270.094 632.857 271.925 634.63 274.184 634.63Z" fill="url(#paint16_radial_46_1588)"/>
<path d="M270.059 630.669C270.059 628.477 271.726 626.836 273.978 626.707C276.221 626.578 278.309 628.263 278.309 630.454C278.309 632.645 276.9 634.751 274.141 634.639C271.89 634.545 270.059 632.86 270.059 630.669Z" fill="url(#paint17_radial_46_1588)"/>
<path d="M284.608 633.17C286.868 633.17 288.699 631.396 288.699 629.208C288.699 627.02 286.868 625.246 284.608 625.246C282.349 625.246 280.518 627.02 280.518 629.208C280.518 631.396 282.349 633.17 284.608 633.17Z" fill="url(#paint18_radial_46_1588)"/>
<path d="M280.483 629.208C280.483 627.016 282.151 625.375 284.402 625.246C286.645 625.117 288.733 626.802 288.733 628.993C288.733 631.184 287.324 633.29 284.565 633.178C282.314 633.075 280.483 631.399 280.483 629.208Z" fill="url(#paint19_radial_46_1588)"/>
<path d="M297.121 636.461C299.38 636.461 301.212 634.687 301.212 632.499C301.212 630.311 299.38 628.537 297.121 628.537C294.862 628.537 293.03 630.311 293.03 632.499C293.03 634.687 294.862 636.461 297.121 636.461Z" fill="url(#paint20_radial_46_1588)"/>
<path d="M292.996 632.499C292.996 630.308 294.663 628.666 296.915 628.538C299.158 628.409 301.246 630.093 301.246 632.284C301.246 634.476 299.836 636.581 297.078 636.47C294.826 636.366 292.996 634.691 292.996 632.499Z" fill="url(#paint21_radial_46_1588)"/>
<path d="M266.063 627.713C268.322 627.713 270.154 625.939 270.154 623.751C270.154 621.563 268.322 619.789 266.063 619.789C263.804 619.789 261.972 621.563 261.972 623.751C261.972 625.939 263.804 627.713 266.063 627.713Z" fill="url(#paint22_radial_46_1588)"/>
<path d="M261.938 623.751C261.938 621.559 263.605 619.918 265.857 619.789C268.1 619.66 270.188 621.345 270.188 623.536C270.188 625.727 268.779 627.833 266.02 627.721C263.768 627.627 261.938 625.942 261.938 623.751Z" fill="url(#paint23_radial_46_1588)"/>
<path d="M273.626 649.068C275.885 649.068 277.716 647.294 277.716 645.106C277.716 642.918 275.885 641.145 273.626 641.145C271.366 641.145 269.535 642.918 269.535 645.106C269.535 647.294 271.366 649.068 273.626 649.068Z" fill="url(#paint24_radial_46_1588)"/>
<path d="M269.5 645.115C269.5 642.923 271.168 641.282 273.419 641.153C275.662 641.024 277.75 642.709 277.75 644.9C277.75 647.091 276.341 649.197 273.583 649.085C271.331 648.982 269.5 647.298 269.5 645.115Z" fill="url(#paint25_radial_46_1588)"/>
<path d="M316.328 581.47C316.466 580.67 317.265 578.333 316.775 576.64C316.775 576.64 314.987 584.46 284.265 584.46C253.542 584.46 251.6 576.726 251.6 576.726C251.419 578.281 252.073 580.662 252.201 581.47C252.64 584.091 250.775 584.056 250.775 584.056C250.775 584.056 251.076 586.927 256.232 586.402C257.177 586.308 259.644 585.749 260.976 587.262C262.248 588.705 263.356 590.038 265.548 590.708C268.676 591.653 271.099 589.238 274.949 590.063C277.321 590.57 278.833 592.04 282.881 592.47C287.358 592.951 288.897 590.588 291.303 590.235C295.651 589.599 297.112 591.215 300.705 591.112C304.847 591 306.205 589.006 307.786 587.923C310.123 586.325 312.057 587.313 313.011 587.408C318.167 587.941 317.763 584.073 317.763 584.073C317.763 584.073 315.89 584.082 316.328 581.47Z" fill="#33AC71"/>
<path d="M284.196 567.066C265.728 567.066 251.617 571.492 251.617 576.949C251.617 582.406 265.719 586.832 284.196 586.832C302.672 586.832 316.775 582.406 316.775 576.949C316.775 571.492 302.664 567.066 284.196 567.066ZM295.23 580.206C291.14 580.206 287.831 579.02 287.831 577.568C287.831 576.107 291.148 574.93 295.23 574.93C299.312 574.93 302.629 576.116 302.629 577.568C302.629 579.029 299.312 580.206 295.23 580.206Z" fill="#72E6AC"/>
<path d="M304.726 551.039C301.332 550.128 298.573 551.082 297.8 553.282L290.005 579.51C290.005 579.51 291.595 580.335 296.382 580.335C300.292 580.335 302.423 578.402 302.423 578.402C302.423 578.402 308.499 556.917 308.748 556.075C309.333 554.15 307.691 551.838 304.726 551.039Z" fill="#B39DDB"/>
<path d="M296.382 580.335C300.292 580.335 302.423 578.402 302.423 578.402L303.369 575.059C303.369 575.059 300.077 577.568 296.571 578.384C292.807 579.261 290.005 579.51 290.005 579.51C290.005 579.51 291.595 580.335 296.382 580.335Z" fill="#9575CD"/>
<path d="M307.67 555.989C308.111 554.388 306.555 552.562 304.194 551.911C301.833 551.26 299.562 552.031 299.12 553.632C298.679 555.233 300.234 557.059 302.595 557.71C304.956 558.361 307.228 557.591 307.67 555.989Z" fill="#7E57C2"/>
<path d="M290.908 576.477L291.294 575.179C290.787 575.316 290.246 575.488 289.722 575.712C288.587 576.184 287.977 576.588 287.822 577.405C287.693 578.092 288.364 578.608 288.364 578.608C288.364 578.608 288.329 578.032 288.647 577.705C289.3 577.027 289.679 576.88 290.908 576.477Z" fill="#33AC71"/>
<path opacity="0.79" d="M257.908 596.165C257.169 590.441 262.918 589.857 263.863 600.582L264.207 612.545C264.207 612.545 264.654 615.973 262.969 616.343C260.451 616.893 260.168 613.18 260.168 613.18C260.168 613.18 258.483 600.573 257.908 596.165Z" fill="white"/>
<path d="M430.613 235.434L407.929 236.254C407.929 236.254 406.49 234.816 406.698 234.302C406.906 233.787 425.691 219.109 426.408 219.213C427.124 219.317 428.77 221.062 430.105 220.444C431.439 219.826 430.105 216.233 430.515 215.724C430.925 215.21 445.603 207.308 446.527 206.898C447.451 206.487 448.272 205.563 450.12 205.973C451.969 206.384 456.59 207.204 461.615 210.595C466.641 213.985 471.88 217.884 471.47 220.039C471.06 222.194 430.613 235.434 430.613 235.434Z" fill="#FFE265"/>
<path d="M414.907 261.202C419.938 260.584 466.849 250.527 468.801 250.221C470.754 249.915 471.984 248.066 471.984 246.01C471.984 243.954 471.47 220.039 471.47 220.039C471.47 220.039 469.212 220.755 466.543 221.373C463.874 221.986 442.005 227.323 433.386 229.276C424.767 231.228 411.008 234.821 409.466 234.821C407.923 234.821 406.693 234.307 406.693 234.307C406.693 234.307 407.103 255.657 407.207 257.199C407.311 258.741 408.027 260.584 409.772 261.098C411.516 261.613 412.654 261.476 414.907 261.202Z" fill="#FEB502"/>
<path d="M445.264 211.978C445.264 213.291 446.598 214.16 448.808 214.095C451.219 214.023 451.887 212.591 451.81 211.672C451.733 210.748 450.623 209.938 448.425 209.977C446.385 210.015 445.264 210.824 445.264 211.978Z" fill="#FF8B0D"/>
<path d="M420.627 228.341C417.072 229.538 417.472 232.65 418.511 233.345C419.55 234.039 420.933 234.001 422.552 233.421C424.171 232.841 425.199 232.18 425.363 231.097C425.516 230.069 424.171 227.143 420.627 228.341ZM452.926 219.448C450.541 219.558 447.905 221.27 446.921 222.916C445.882 224.649 445.805 226.689 448.19 227.958C450.574 229.227 459.007 225.995 458.586 223.03C458.165 220.061 455.43 219.334 452.926 219.448ZM444.651 243.429C444.651 243.429 448.036 240.924 448.036 239.158C448.036 237.386 446.576 233.202 440.375 232.885C434.561 232.584 430.979 240.509 434.791 244.588C438.603 248.668 440.911 246.82 442.338 246.437C443.765 246.048 444.651 243.429 444.651 243.429ZM427.906 250.549C427.906 250.549 431.269 248.444 428.688 246.136C426.872 244.512 424.444 245.245 423.208 246.508C421.628 248.127 422.054 250.702 423.515 251.856C424.98 253.016 427.906 250.549 427.906 250.549ZM416.509 241.083C416.509 241.083 416.126 239.874 414.754 239.388C413.211 238.841 410.909 240.76 411.894 242.811C412.779 244.659 414.743 244.118 414.743 244.118L416.509 241.083ZM465.744 242.849C466.078 242.488 468.26 240.913 468.26 239.716C468.26 238.523 464.973 234.838 460.779 237.61C456.584 240.383 458.777 244.577 459.931 245.272C461.085 245.966 464.284 244.43 465.744 242.849Z" fill="#ED6B31"/>
<path d="M421.141 230.227C418.806 231.037 417.926 232.688 418.511 233.345C419.129 234.039 420.474 234.498 422.82 233.651C424.636 232.995 425.555 231.895 425.401 230.916C425.292 230.205 423.258 229.495 421.141 230.227ZM413.354 241.001C412.331 242.28 413.162 243.735 414.125 244.08C415.087 244.424 416.783 243.385 416.668 241.657C416.548 239.923 414.278 239.847 413.354 241.001ZM425.248 247.973C423.05 249.756 422.99 251.501 423.837 252.091C424.428 252.507 426.605 253.371 428.595 251.9C430.072 250.812 430.099 248.526 429.634 247.432C429.246 246.502 427.097 246.47 425.248 247.973ZM438.592 238.255C435.65 241.116 434.95 245.759 437.837 246.852C440.38 247.815 444.033 247.235 446.188 244.583C448.452 241.794 448.693 238.715 447.238 236.899C445.499 234.717 440.867 236.052 438.592 238.255ZM451.963 222.298C448.113 223.605 445.844 226.377 447.807 227.766C449.77 229.15 451.81 228.948 454.041 228.188C456.573 227.329 458.509 225.338 458.586 223.452C458.646 221.904 455.354 221.144 451.963 222.298ZM462.244 240C459.625 242.133 458.859 244.271 459.937 245.272C461.014 246.273 463.595 246.732 465.98 245.08C468.457 243.363 468.637 241.416 468.364 239.847C468.058 238.08 464.935 237.807 462.244 240Z" fill="#FF8B0D"/>
<path d="M280.236 274.369C253.029 270.362 253.487 243.042 253.487 234.778H329.042C329.042 239.031 329.236 269.822 299.876 274.596C295.338 275.333 285.525 275.149 280.236 274.369Z" fill="#292F33"/>
<path d="M325.46 226.438C330.942 214.051 306.947 214.762 300.938 216.7C297.727 216.327 294.497 216.138 291.265 216.136C270.4 216.136 253.487 223.309 253.487 234.9C253.487 237.142 254.134 239.298 255.305 241.324C245.689 254.018 264.74 256.404 275.714 254.013C280.46 255.207 285.714 255.889 291.265 255.889C312.129 255.889 329.042 246.491 329.042 234.902C329.042 231.724 327.734 228.893 325.46 226.438Z" fill="#66757F"/>
<path d="M291.265 252.556C309.674 252.556 324.598 245.591 324.598 237C324.598 228.409 309.674 221.444 291.265 221.444C272.855 221.444 257.931 228.409 257.931 237C257.931 245.591 272.855 252.556 291.265 252.556Z" fill="#FFCC4D"/>
<path d="M260.154 232.556C258.949 227.736 264.598 219.222 275.709 221.444C277.931 219.222 282.016 217 289.042 217C293.487 217 301.514 220.944 297.931 228.111C295.709 232.556 286.82 239.222 275.709 234.778C273.487 237 262.376 241.444 260.154 232.556Z" fill="#77B255"/>
<path d="M277.931 234.778C277.378 234.858 276.885 234.94 276.425 235.024C287.198 238.904 295.758 232.458 297.931 228.111C300.327 223.32 297.529 219.978 294.085 218.282C294.96 222.331 291.578 232.829 277.931 234.778Z" fill="#5C913B"/>
<path d="M262.376 232.556C263.543 229.638 273.487 225.889 284.598 239.222C286.82 241.444 294.789 242.747 297.931 245.889C300.154 248.111 297.931 250.333 289.043 250.333C280.154 250.333 257.931 243.667 262.376 232.556Z" fill="#D99E82"/>
<path d="M264.689 241.484C270.351 247.136 282.889 250.333 289.043 250.333C297.931 250.333 300.154 248.111 297.931 245.889C297.207 245.164 296.22 244.54 295.114 243.978C287.994 247.829 269.158 243.658 264.689 241.484Z" fill="#B27962"/>
<path d="M311.265 239.224C310.8 239.224 310.325 239.149 309.858 238.993L303.191 236.771C302.073 236.398 301.149 235.597 300.621 234.542C300.094 233.488 300.007 232.267 300.38 231.149C300.753 230.031 301.555 229.106 302.609 228.579C303.663 228.052 304.884 227.965 306.002 228.338L312.669 230.56C313.673 230.892 314.526 231.57 315.074 232.474C315.623 233.378 315.831 234.448 315.662 235.491C315.493 236.535 314.957 237.484 314.151 238.168C313.345 238.852 312.322 239.227 311.265 239.224ZM309.042 245.889H304.598C304.009 245.889 303.443 245.655 303.027 245.238C302.61 244.821 302.376 244.256 302.376 243.667C302.376 243.077 302.61 242.512 303.027 242.095C303.443 241.679 304.009 241.444 304.598 241.444H309.042C309.632 241.444 310.197 241.679 310.614 242.095C311.031 242.512 311.265 243.077 311.265 243.667C311.265 244.256 311.031 244.821 310.614 245.238C310.197 245.655 309.632 245.889 309.042 245.889Z" fill="#FFE8B6"/>
<path d="M589.689 355.227C589.689 355.227 591.696 359.394 590.771 361.715C589.843 364.041 587.536 366.026 585.486 366.983C583.436 367.94 581.366 368.497 579.491 368.113C577.615 367.73 576.351 366.802 576.351 366.802C576.351 366.802 570.344 368.582 560.704 370.066C551.064 371.55 539.053 372.996 526.898 372.372C514.744 371.747 510.745 370.959 508.282 369.415C505.819 367.87 508.228 364.23 509.226 363.27C510.224 362.311 537.109 354.611 537.109 354.611L589.689 355.227Z" fill="#FF8E00"/>
<path d="M577.282 360.261L581.259 359.189C581.259 359.189 586.637 356.087 588.912 357.513C591.187 358.94 590.771 361.715 590.771 361.715C590.771 361.715 592.543 359.521 592.549 353.193C592.555 346.865 591.217 341 589.418 336.702C587.62 332.404 585.31 327.254 583.602 324.075C581.894 320.896 577.307 315.372 574.698 312.151C572.096 308.934 565.78 302.992 562.047 301.578C558.313 300.164 555.464 301.547 553.98 303.913C552.497 306.279 552.052 308.252 552.228 309.02C552.404 309.788 553.867 314.406 553.867 314.406L577.282 360.261Z" fill="#F5B03E"/>
<path d="M576.897 346.1L580.394 353.579L579.824 359.959C579.824 359.959 578.343 361.272 577.045 361.647C575.754 362.026 565.592 364.127 558.611 365.162C553.164 365.97 541.572 367.662 541.572 367.662C541.572 367.662 539.236 370.7 537.456 372.745C536.041 374.37 534.137 377.366 532.29 376.09C529.962 374.478 534.385 370.49 532.454 369.347C528.6 367.065 525.927 379.688 521.883 377.076C518.66 374.995 524.241 370.68 523.213 368.703C522.656 367.629 519.516 368.737 515.868 368.194C511.366 367.521 508.48 367.338 507.676 366.092C505.979 363.46 527.503 340.392 530.865 336.295C534.227 332.198 551.404 311.1 552.072 310.465C552.74 309.83 556.686 312.169 556.686 312.169L561.349 318.003L569.168 324.491L575.468 336.764L576.897 346.1Z" fill="#FFCC8A"/>
<path d="M578.976 346.08C580.179 348.302 582.213 350.395 582.146 355.007C582.088 358.849 580.749 361.98 579.408 361.443C578.067 360.905 579.787 356.133 579.185 353.53C578.226 349.345 576.315 347.767 575.697 345.474C575.078 343.18 575.792 338.451 571.699 331.306C566.93 322.978 562.012 321.302 560.731 319.621C559.056 317.425 559.306 315.709 556.921 313.421C554.398 311.005 551.658 310.897 551.658 310.897C551.658 310.897 551.959 308.952 553.284 308.788C554.609 308.624 556.574 309.081 558.928 311.324C561.505 313.775 562.458 317.122 563.023 317.552C563.588 317.982 569.923 321.5 574.596 330.222C579.268 338.945 577.92 344.119 578.976 346.08Z" fill="#CB6C22"/>
<path d="M566.455 347.451L574.906 355.728C574.906 355.728 573.893 357.68 573.451 358.17C571.959 359.823 567.64 361.238 565.856 360.802C564.072 360.366 561.031 358.534 560.317 357.48C559.604 356.426 557.991 352.438 558.331 351.049C558.671 349.66 561.79 344.914 563.035 344.624C564.276 344.339 566.455 347.451 566.455 347.451Z" fill="#DB0D27"/>
<path d="M575.268 348.712C575.806 350.179 576.098 354.19 574.701 356.055C573.301 357.925 567.747 359.239 566.616 358.985C565.485 358.731 562.437 356.896 561.806 356.196C561.174 355.496 559.594 351.454 559.637 350.418C559.683 349.376 561.971 344.867 563.164 344.553C564.356 344.238 567.894 343.329 569.899 343.895C571.907 344.471 574.763 347.325 575.268 348.712Z" fill="#ED6D30"/>
<path d="M544.445 342.189C544.445 342.189 553.501 347 553.268 347.613C553.036 348.226 551.915 350.457 550.301 351.806C549.159 352.767 546.928 354.268 543.332 353.683C539.737 353.097 537.821 350.075 537.452 349.076C536.76 347.209 536.704 345.403 536.964 344.504C537.225 343.605 544.445 342.189 544.445 342.189Z" fill="#DB0D27"/>
<path d="M551.506 340.286C552.54 341.608 554.5 345.595 553.187 347.823C551.868 350.048 548.601 351.734 547.402 351.817C546.204 351.9 542.47 351.776 540.518 350.4C538.559 349.02 536.798 345.63 536.967 344.514C537.136 343.397 538.585 340.723 539.572 339.512C540.559 338.302 545.255 337.132 546.954 337.582C548.649 338.039 550.575 339.095 551.506 340.286Z" fill="#ED6D30"/>
<path d="M538.998 360.956C538.998 360.956 548.306 363.741 548.312 363.972C548.318 364.204 548.556 366.259 547.87 366.747C547.184 367.236 542.99 367.726 541.222 367.991C539.454 368.256 534.701 368.117 534.335 367.787C533.451 367.005 533.683 364.941 533.683 364.941L538.998 360.956Z" fill="#DB0D27"/>
<path d="M540.385 357.172C543.214 356.964 545.971 358.845 547.054 360.519C548.138 362.194 548.489 363.704 548.204 364.52C547.92 365.337 545.794 365.917 545.058 365.987C544.329 366.061 542.135 366.253 542.135 366.253C542.135 366.253 538.841 366.599 537.629 366.716C535.941 366.88 534.202 366.48 533.786 366.296C533.371 366.111 533.034 362.696 535.285 359.833C536.437 358.372 538.006 357.349 540.385 357.172Z" fill="#ED6D30"/>
<path d="M529.338 344.148L532.36 345.891C532.36 345.891 532.156 348.891 529.754 350.892C527.792 352.528 525.612 352.873 522.854 352.054C520.086 351.237 518.921 350.178 518.921 350.178L519.921 348.503L529.338 344.148Z" fill="#DB0D27"/>
<path d="M528.862 338.588C528.862 338.588 532.774 340.443 532.535 345.006C532.347 348.505 529.984 350.042 528.045 350.579C526.106 351.117 523.841 350.843 522.459 350.128C521.078 349.414 519.872 348.514 519.872 348.514C519.872 348.514 522.486 345.474 524.743 342.978C526.101 341.485 528.862 338.588 528.862 338.588Z" fill="#ED6D30"/>
<path d="M554.334 321.554C554.334 321.554 561.253 326.196 561.247 327.188C561.241 328.179 559.246 331.346 558.239 332.468C557.232 333.59 553.393 335.449 549.528 333.101C545.664 330.753 544.914 328.951 545.239 325.125C545.565 321.299 549.144 319.033 549.144 319.033L554.334 321.554Z" fill="#DB0D27"/>
<path d="M556.306 318.288C558.022 318.952 559.768 320.915 560.361 322.281C560.954 323.648 561.722 326.187 561.144 327.351C560.566 328.515 557.591 331.067 556.83 331.433C556.074 331.793 553.467 332.426 552.823 332.351C551.332 332.175 548.332 329.914 547.605 329.003C546.878 328.092 545.611 324.397 546.026 323.131C546.441 321.865 547.279 319.802 549.945 318.346C552.612 316.891 554.709 317.675 556.306 318.288Z" fill="#ED6D30"/>
<path d="M517.539 357.961L524.009 361.639C524.009 361.639 523.79 363.871 522.602 365.2C521.622 366.306 519.545 367.347 517.267 366.905C515.976 366.651 513.416 364.683 513.035 363.812C512.268 362.05 512.886 360.11 513.467 359.278C513.766 358.841 517.539 357.961 517.539 357.961Z" fill="#DB0D27"/>
<path d="M520.59 356.148C522.379 356.924 523.707 358.988 523.991 360.338C524.274 361.688 523.777 362.843 522.672 363.92C520.651 365.891 518.749 365.617 517.835 365.541C516.483 365.426 513.739 363.563 513.277 362.337C512.817 361.121 512.865 359.566 514.167 357.946C515.48 356.324 517.51 354.807 520.59 356.148Z" fill="#ED6D30"/>
<path d="M586.311 339.424C585.437 340.697 583.29 339.039 582.445 338.383C581.771 337.858 580.062 336.576 580.799 335.402C581.535 334.228 583.104 335.221 584.252 336C585.357 336.752 587.009 338.42 586.311 339.424ZM578.848 324.019C578.309 324.879 577.312 324.371 576.695 324.052C576.081 323.726 575.459 323.024 575.832 322.322C576.215 321.618 577.05 321.576 577.936 322.073C578.872 322.584 579.304 323.293 578.848 324.019ZM571.923 322.56C570.469 322.955 569.96 320.89 569.874 320.019C569.794 319.151 570.269 318.192 571.046 318.056C571.823 317.919 572.46 319.001 572.721 319.983C572.982 320.964 572.829 322.31 571.923 322.56ZM565.144 311.656C563.344 312.188 562.863 309.096 562.568 307.967C562.273 306.837 562.278 305.525 563.434 305.188C564.59 304.85 565.445 306.887 565.601 307.93C565.767 308.969 566.3 311.319 565.144 311.656ZM585.65 352.685C584.476 352.286 584.902 350.867 585.307 349.831C585.718 348.773 586.283 347.872 587.135 348.221C588.101 348.616 588.033 349.787 587.637 350.728C587.27 351.568 586.735 353.054 585.65 352.685Z" fill="#FCC12B"/>
<path d="M200.765 353.75C200.765 364.375 186.14 373 168.265 373C150.265 373 135.765 364.375 135.765 353.75C135.765 343.125 150.265 334.5 168.265 334.5C186.14 334.5 200.765 343.125 200.765 353.75Z" fill="#94989B"/>
<path d="M205.765 346.625C205.765 359.625 189.015 370.25 168.265 370.25C147.515 370.25 130.765 359.75 130.765 346.625C130.765 333.5 147.515 323 168.265 323C189.015 323 205.765 333.5 205.765 346.625Z" fill="#C7D7D7"/>
<path d="M199.14 344.5C199.14 335.875 185.265 328.75 168.265 328.75C151.265 328.75 137.39 335.75 137.39 344.5C137.39 349.375 141.765 353.75 148.765 356.625C149.14 357 149.515 357.875 148.89 359.375C147.89 361.875 151.515 365.125 154.765 363.25C158.015 361.375 162.765 362 164.515 363.25C166.265 364.5 171.265 365 173.89 363.25C176.515 361.5 178.515 360.25 182.89 360.25C187.265 360.25 190.64 355.75 192.89 354C196.89 351.375 199.14 348.125 199.14 344.5Z" fill="#BA5327"/>
<path d="M193.765 343C191.89 339.875 187.765 344.25 185.39 343.625C180.14 342.25 184.015 349.875 186.14 350.25C188.64 350.75 195.64 346.125 193.765 343ZM175.14 350.25C171.39 350.125 170.89 349 169.015 350.75C165.015 354.5 177.39 358.75 178.89 357.25C180.64 355.375 178.89 350.375 175.14 350.25ZM182.015 333.625C177.64 333.5 177.39 332.75 175.265 334.875C170.515 339.375 176.765 344.25 178.515 342.375C180.515 340.125 186.265 333.75 182.015 333.625ZM161.14 348.125C157.64 347.75 153.015 350 152.64 353.125C152.265 356.125 154.39 358.375 156.89 357.625C159.39 356.875 160.765 353.125 162.015 351.875C163.265 350.625 163.14 348.375 161.14 348.125Z" fill="#FBBF67"/>
<path d="M167.015 325.25C165.39 325 164.265 328.125 162.64 327.875C161.515 327.75 159.015 325.375 158.015 325.625C156.765 325.875 155.14 329.5 153.89 329.875C152.14 330.25 151.39 326.75 149.64 327.25C145.515 328.375 143.265 335.25 138.64 335.25C135.14 335.375 131.515 347.75 135.265 347.75C142.015 347.75 141.39 351.875 142.265 351.875C143.265 352 143.265 348.625 144.015 348.125C145.015 347.375 147.89 348.75 148.765 347.875C149.515 347.25 148.765 344.5 149.515 343.875C150.39 343.125 153.14 344.75 154.265 344.25C154.89 344 155.14 341.125 155.64 341.625C159.39 345.625 161.89 344 162.64 342.25C163.14 341 160.89 337.875 161.89 336.875C162.89 335.875 165.265 340.25 166.515 339.625C167.015 339.375 166.64 337.75 167.015 337.5C167.765 336.875 170.14 338.75 170.765 337.875C171.14 337.25 169.265 335.5 169.64 334.875C170.14 334.125 172.39 335.625 173.14 335.125C174.39 334.5 175.64 330.5 175.39 329.125C174.765 327 168.765 325.5 167.015 325.25Z" fill="#FFFBE9"/>
<path d="M146.64 330.875C145.14 333 144.64 335.25 145.39 335.875C146.14 336.5 147.89 335.375 149.39 333.25C150.89 331.125 151.39 328.875 150.64 328.25C149.89 327.625 148.14 328.75 146.64 330.875ZM151.515 342.125C149.39 341 147.265 340.75 146.89 341.75C146.515 342.625 147.89 344.375 150.015 345.5C152.14 346.625 154.265 346.875 154.64 345.875C155.015 344.875 153.64 343.25 151.515 342.125ZM139.89 339.25C138.015 340.75 137.015 342.75 137.64 343.5C137.89 343.875 139.39 342.5 139.015 346C138.765 348.25 141.64 346 143.39 344.375C147.39 340.375 144.265 335.75 139.89 339.25ZM160.015 337.875C161.015 337.75 159.515 335 157.765 333.375C155.89 331.75 153.515 331 153.39 332C153.14 334.375 151.89 333.625 151.64 334.125C151.14 335 152.265 337 154.265 338.375C156.14 339.75 158.14 340.25 158.64 339.375C158.765 339 157.765 338 160.015 337.875ZM170.14 331.375C172.015 329.875 173.015 327.875 172.39 327.125C171.765 326.25 167.515 329.375 163.515 328.25C161.265 327.625 159.14 329 159.14 330C159.14 330.75 160.015 331.375 161.39 331.75C160.765 332.875 160.515 333.875 161.015 334.375C161.64 335.125 163.64 334.375 165.39 332.75C165.39 332.375 168.265 332.875 170.14 331.375Z" fill="#E8E1D6"/>
<path d="M149.265 338.5C148.515 336.125 146.265 334.5 146.265 334.5C146.265 334.5 146.515 337 146.765 338.125C144.265 337.125 144.265 332.25 144.265 332.25C144.265 332.25 142.64 333.375 142.765 335.25C140.015 332.875 137.765 334 137.765 334C137.765 334 141.14 336.125 141.64 337.625C139.765 337.75 138.64 338.5 137.89 340.25C137.89 340.25 141.64 338.25 144.515 339.75C143.39 340.75 144.015 343.25 144.015 343.25C148.515 338 151.39 342.75 153.39 341.375C151.89 338.875 149.265 338.5 149.265 338.5ZM175.265 325.875C175.265 325.875 172.64 327.75 171.515 327.5C172.14 325.875 172.14 324.75 171.265 323.625C171.265 323.625 171.015 327.375 169.015 329C168.765 327.75 167.015 327.25 167.015 327.25C168.64 332.875 164.515 333.25 164.515 335.25C166.765 335 167.89 333.125 167.89 333.125C169.64 333.5 171.515 332.375 171.515 332.375C171.515 332.375 169.89 331.625 169.015 331.375C170.515 329.875 173.64 331.625 173.64 331.625C173.64 331.625 173.64 329.875 172.39 329.25C175.14 328 175.265 325.875 175.265 325.875Z" fill="#699635"/>
<g filter="url(#filter1_d_46_1588)">
<path d="M410.264 375C416.83 381.566 422.039 389.361 425.592 397.94C429.146 406.519 430.975 415.714 430.975 425L360.264 425L410.264 375Z" fill="#F3752E"/>
<path d="M360.264 354.289C369.55 354.289 378.745 356.118 387.324 359.672C395.903 363.225 403.698 368.434 410.264 375L360.264 425V354.289Z" fill="#FF684D"/>
<path d="M430.975 425C430.975 434.286 429.146 443.481 425.592 452.06C422.039 460.639 416.83 468.434 410.264 475L360.264 425H430.975Z" fill="#FF684D"/>
<path d="M410.264 475C403.698 481.566 395.903 486.774 387.324 490.328C378.745 493.881 369.55 495.71 360.264 495.71L360.264 425L410.264 475Z" fill="#F3752E"/>
<path d="M310.264 375C316.831 368.434 324.626 363.225 333.205 359.672C341.784 356.118 350.979 354.289 360.264 354.289L360.264 425L310.264 375Z" fill="#F3752E"/>
<path d="M289.554 425C289.554 415.714 291.383 406.519 294.936 397.94C298.49 389.361 303.698 381.566 310.264 375L360.264 425H289.554Z" fill="#FF684D"/>
<path d="M310.264 475C303.698 468.434 298.49 460.639 294.936 452.06C291.383 443.481 289.554 434.286 289.554 425L360.264 425L310.264 475Z" fill="#F3752E"/>
<path d="M360.264 495.711C350.978 495.711 341.783 493.882 333.204 490.328C324.625 486.775 316.83 481.566 310.264 475L360.264 425V495.711Z" fill="#FF684D"/>
</g>
<path d="M318.059 377.31C316.278 380.026 315.839 383.363 316.527 387.216C317.347 391.811 319.83 396.989 323.418 401.864C330.594 411.615 342.177 420.045 352.483 421.322L353.203 421.414L353.667 421.97L391.588 467.746C395.367 468.649 397.808 468.087 399.077 466.83C400.355 465.564 400.945 463.118 399.998 459.238L318.059 377.31L318.059 377.31ZM391.313 377.762L370.122 398.953C367.778 401.296 367.758 403.875 368.968 406.692L369.469 407.858L368.553 408.737L361.436 415.524L367.217 421.304L373.973 414.169L374.852 413.241L376.018 413.748C378.98 415.024 381.788 414.972 383.965 412.796L405.156 391.604L402.403 388.852L388.621 402.627L386.046 400.046L399.821 386.271L396.886 383.334L383.11 397.11L380.528 394.528L394.304 380.753L391.313 377.762ZM351.463 425.04L315.251 459.592C314.357 463.293 314.93 465.605 316.136 466.8C317.343 467.995 319.677 468.543 323.332 467.66L357.164 431.924L351.463 425.04Z" fill="black"/>
<defs>
<filter id="filter0_d_46_1588" x="38.3642" y="103.1" width="643.8" height="643.8" filterUnits="userSpaceOnUse" color-interpolation-filters="sRGB">
<feFlood flood-opacity="0" result="BackgroundImageFix"/>
<feColorMatrix in="SourceAlpha" type="matrix" values="0 0 0 0 0 0 0 0 0 0 0 0 0 0 0 0 0 0 127 0" result="hardAlpha"/>
<feOffset/>
<feGaussianBlur stdDeviation="8.7"/>
<feComposite in2="hardAlpha" operator="out"/>
<feColorMatrix type="matrix" values="0 0 0 0 0 0 0 0 0 0 0 0 0 0 0 0 0 0 1 0"/>
<feBlend mode="normal" in2="BackgroundImageFix" result="effect1_dropShadow_46_1588"/>
<feBlend mode="normal" in="SourceGraphic" in2="effect1_dropShadow_46_1588" result="shape"/>
</filter>
<filter id="filter1_d_46_1588" x="249.554" y="314.289" width="221.421" height="221.421" filterUnits="userSpaceOnUse" color-interpolation-filters="sRGB">
<feFlood flood-opacity="0" result="BackgroundImageFix"/>
<feColorMatrix in="SourceAlpha" type="matrix" values="0 0 0 0 0 0 0 0 0 0 0 0 0 0 0 0 0 0 127 0" result="hardAlpha"/>
<feOffset/>
<feGaussianBlur stdDeviation="20"/>
<feComposite in2="hardAlpha" operator="out"/>
<feColorMatrix type="matrix" values="0 0 0 0 0 0 0 0 0 0 0 0 0 0 0 0 0 0 0.66 0"/>
<feBlend mode="normal" in2="BackgroundImageFix" result="effect1_dropShadow_46_1588"/>
<feBlend mode="normal" in="SourceGraphic" in2="effect1_dropShadow_46_1588" result="shape"/>
</filter>
<linearGradient id="paint0_linear_46_1588" x1="284.136" y1="608.255" x2="284.136" y2="627.376" gradientUnits="userSpaceOnUse">
<stop stop-color="#EEB68E"/>
<stop offset="1" stop-color="#F5CEA7"/>
</linearGradient>
<radialGradient id="paint1_radial_46_1588" cx="0" cy="0" r="1" gradientUnits="userSpaceOnUse" gradientTransform="translate(272.407 605.533) rotate(18.7647) scale(57.6681 39.8173)">
<stop stop-color="#C48C63"/>
<stop offset="1" stop-color="#EEB68E"/>
</radialGradient>
<radialGradient id="paint2_radial_46_1588" cx="0" cy="0" r="1" gradientUnits="userSpaceOnUse" gradientTransform="translate(303.218 619.326) scale(4.87094 4.72432)">
<stop stop-color="#6D4C41"/>
<stop offset="0.999" stop-color="#3D3832"/>
</radialGradient>
<radialGradient id="paint3_radial_46_1588" cx="0" cy="0" r="1" gradientUnits="userSpaceOnUse" gradientTransform="translate(289.669 618.216) scale(4.87094 4.72432)">
<stop stop-color="#6D4C41"/>
<stop offset="0.999" stop-color="#3D3832"/>
</radialGradient>
<radialGradient id="paint4_radial_46_1588" cx="0" cy="0" r="1" gradientUnits="userSpaceOnUse" gradientTransform="translate(281.494 635.721) scale(4.87094 4.72432)">
<stop stop-color="#6D4C41"/>
<stop offset="0.999" stop-color="#3D3832"/>
</radialGradient>
<radialGradient id="paint5_radial_46_1588" cx="0" cy="0" r="1" gradientUnits="userSpaceOnUse" gradientTransform="translate(293.223 635.154) scale(4.87094 4.72432)">
<stop stop-color="#6D4C41"/>
<stop offset="0.999" stop-color="#3D3832"/>
</radialGradient>
<radialGradient id="paint6_radial_46_1588" cx="0" cy="0" r="1" gradientUnits="userSpaceOnUse" gradientTransform="translate(292.803 637.284) scale(4.84516 4.69932)">
<stop offset="0.528" stop-color="#F5CEA7" stop-opacity="0"/>
<stop offset="1" stop-color="#F5CEA7"/>
</radialGradient>
<radialGradient id="paint7_radial_46_1588" cx="0" cy="0" r="1" gradientUnits="userSpaceOnUse" gradientTransform="translate(288.926 620.437) scale(4.87094 4.72432)">
<stop offset="0.567" stop-color="#F5CEA7" stop-opacity="0"/>
<stop offset="1" stop-color="#F5CEA7"/>
</radialGradient>
<radialGradient id="paint8_radial_46_1588" cx="0" cy="0" r="1" gradientUnits="userSpaceOnUse" gradientTransform="translate(302.474 621.547) scale(4.87094 4.72432)">
<stop offset="0.567" stop-color="#F5CEA7" stop-opacity="0"/>
<stop offset="1" stop-color="#F5CEA7"/>
</radialGradient>
<radialGradient id="paint9_radial_46_1588" cx="0" cy="0" r="1" gradientUnits="userSpaceOnUse" gradientTransform="translate(267.323 635.338) scale(4.48594 4.35091)">
<stop stop-color="#6D4C41"/>
<stop offset="0.999" stop-color="#3D3832"/>
</radialGradient>
<radialGradient id="paint10_radial_46_1588" cx="0" cy="0" r="1" gradientUnits="userSpaceOnUse" gradientTransform="translate(266.532 637.099) scale(4.74547 4.35587)">
<stop offset="0.567" stop-color="#F5CEA7" stop-opacity="0"/>
<stop offset="1" stop-color="#F5CEA7"/>
</radialGradient>
<radialGradient id="paint11_radial_46_1588" cx="0" cy="0" r="1" gradientUnits="userSpaceOnUse" gradientTransform="translate(300.998 640.659) scale(4.48593 4.35091)">
<stop stop-color="#6D4C41"/>
<stop offset="0.999" stop-color="#3D3832"/>
</radialGradient>
<radialGradient id="paint12_radial_46_1588" cx="0" cy="0" r="1" gradientUnits="userSpaceOnUse" gradientTransform="translate(300.207 642.419) scale(4.74547 4.35587)">
<stop offset="0.567" stop-color="#F5CEA7" stop-opacity="0"/>
<stop offset="1" stop-color="#F5CEA7"/>
</radialGradient>
<radialGradient id="paint13_radial_46_1588" cx="0" cy="0" r="1" gradientUnits="userSpaceOnUse" gradientTransform="translate(280.456 638.3) scale(5.18891 4.7629)">
<stop offset="0.567" stop-color="#F5CEA7" stop-opacity="0"/>
<stop offset="1" stop-color="#F5CEA7"/>
</radialGradient>
<radialGradient id="paint14_radial_46_1588" cx="0" cy="0" r="1" gradientUnits="userSpaceOnUse" gradientTransform="translate(286.717 645.323) scale(4.87094 4.72432)">
<stop stop-color="#6D4C41"/>
<stop offset="0.999" stop-color="#3D3832"/>
</radialGradient>
<radialGradient id="paint15_radial_46_1588" cx="0" cy="0" r="1" gradientUnits="userSpaceOnUse" gradientTransform="translate(285.678 647.897) scale(4.97148 4.61553)">
<stop offset="0.567" stop-color="#F5CEA7" stop-opacity="0"/>
<stop offset="1" stop-color="#F5CEA7"/>
</radialGradient>
<radialGradient id="paint16_radial_46_1588" cx="0" cy="0" r="1" gradientUnits="userSpaceOnUse" gradientTransform="translate(275.157 628.337) scale(4.87094 4.72432)">
<stop stop-color="#6D4C41"/>
<stop offset="0.999" stop-color="#3D3832"/>
</radialGradient>
<radialGradient id="paint17_radial_46_1588" cx="0" cy="0" r="1" gradientUnits="userSpaceOnUse" gradientTransform="translate(274.119 630.915) scale(5.18891 4.7629)">
<stop offset="0.567" stop-color="#F5CEA7" stop-opacity="0"/>
<stop offset="1" stop-color="#F5CEA7"/>
</radialGradient>
<radialGradient id="paint18_radial_46_1588" cx="0" cy="0" r="1" gradientUnits="userSpaceOnUse" gradientTransform="translate(285.582 626.872) scale(4.87094 4.72432)">
<stop stop-color="#6D4C41"/>
<stop offset="0.999" stop-color="#3D3832"/>
</radialGradient>
<radialGradient id="paint19_radial_46_1588" cx="0" cy="0" r="1" gradientUnits="userSpaceOnUse" gradientTransform="translate(284.544 629.45) scale(4.91992 4.7059)">
<stop offset="0.567" stop-color="#F5CEA7" stop-opacity="0"/>
<stop offset="1" stop-color="#F5CEA7"/>
</radialGradient>
<radialGradient id="paint20_radial_46_1588" cx="0" cy="0" r="1" gradientUnits="userSpaceOnUse" gradientTransform="translate(298.098 630.162) scale(4.87094 4.72432)">
<stop stop-color="#6D4C41"/>
<stop offset="0.999" stop-color="#3D3832"/>
</radialGradient>
<radialGradient id="paint21_radial_46_1588" cx="0" cy="0" r="1" gradientUnits="userSpaceOnUse" gradientTransform="translate(296.897 632.199) scale(5.09437 4.67613)">
<stop offset="0.507" stop-color="#F5CEA7" stop-opacity="0"/>
<stop offset="1" stop-color="#F5CEA7"/>
</radialGradient>
<radialGradient id="paint22_radial_46_1588" cx="0" cy="0" r="1" gradientUnits="userSpaceOnUse" gradientTransform="translate(267.038 621.418) scale(4.87094 4.72432)">
<stop stop-color="#6D4C41"/>
<stop offset="0.999" stop-color="#3D3832"/>
</radialGradient>
<radialGradient id="paint23_radial_46_1588" cx="0" cy="0" r="1" gradientUnits="userSpaceOnUse" gradientTransform="translate(265.999 623.995) scale(5.18891 5.02338)">
<stop offset="0.567" stop-color="#F5CEA7" stop-opacity="0"/>
<stop offset="1" stop-color="#F5CEA7"/>
</radialGradient>
<radialGradient id="paint24_radial_46_1588" cx="0" cy="0" r="1" gradientUnits="userSpaceOnUse" gradientTransform="translate(274.603 642.775) scale(4.87094 4.72432)">
<stop stop-color="#6D4C41"/>
<stop offset="0.999" stop-color="#3D3832"/>
</radialGradient>
<radialGradient id="paint25_radial_46_1588" cx="0" cy="0" r="1" gradientUnits="userSpaceOnUse" gradientTransform="translate(273.564 645.623) scale(5.14336 4.99009)">
<stop offset="0.567" stop-color="#F5CEA7" stop-opacity="0"/>
<stop offset="1" stop-color="#F5CEA7"/>
</radialGradient>
<clipPath id="clip0_46_1588">
<rect width="70" height="70" fill="white" transform="translate(138.265 465)"/>
</clipPath>
</defs>
</svg>
