<svg width="404" height="145" viewBox="0 0 404 145" fill="none" xmlns="http://www.w3.org/2000/svg">
<path d="M126.882 70L117.538 53.04H114.914V70H103.97V25.072H122.338C125.88 25.072 128.888 25.6907 131.362 26.928C133.88 28.1653 135.757 29.872 136.994 32.048C138.232 34.1813 138.85 36.5707 138.85 39.216C138.85 42.2027 137.997 44.8693 136.29 47.216C134.626 49.5627 132.152 51.2267 128.866 52.208L139.234 70H126.882ZM114.914 45.296H121.698C123.704 45.296 125.197 44.8053 126.178 43.824C127.202 42.8427 127.714 41.456 127.714 39.664C127.714 37.9573 127.202 36.6133 126.178 35.632C125.197 34.6507 123.704 34.16 121.698 34.16H114.914V45.296ZM173.688 62.064H156.92L154.232 70H142.776L159.032 25.072H171.704L187.96 70H176.376L173.688 62.064ZM170.872 53.616L165.304 37.168L159.8 53.616H170.872ZM233.1 70H222.156L203.852 42.288V70H192.908V25.072H203.852L222.156 52.912V25.072H233.1V70ZM257.865 25.072C262.601 25.072 266.739 26.0107 270.281 27.888C273.822 29.7653 276.553 32.4107 278.473 35.824C280.435 39.1947 281.417 43.0987 281.417 47.536C281.417 51.9307 280.435 55.8347 278.473 59.248C276.553 62.6613 273.801 65.3067 270.217 67.184C266.675 69.0613 262.558 70 257.865 70H241.033V25.072H257.865ZM257.161 60.528C261.299 60.528 264.521 59.3973 266.825 57.136C269.129 54.8747 270.281 51.6747 270.281 47.536C270.281 43.3973 269.129 40.176 266.825 37.872C264.521 35.568 261.299 34.416 257.161 34.416H251.977V60.528H257.161ZM308.781 70.448C304.557 70.448 300.674 69.4667 297.133 67.504C293.634 65.5413 290.839 62.8107 288.749 59.312C286.701 55.7707 285.677 51.8027 285.677 47.408C285.677 43.0133 286.701 39.0667 288.749 35.568C290.839 32.0693 293.634 29.3387 297.133 27.376C300.674 25.4133 304.557 24.432 308.781 24.432C313.005 24.432 316.866 25.4133 320.365 27.376C323.906 29.3387 326.679 32.0693 328.685 35.568C330.733 39.0667 331.757 43.0133 331.757 47.408C331.757 51.8027 330.733 55.7707 328.685 59.312C326.637 62.8107 323.863 65.5413 320.365 67.504C316.866 69.4667 313.005 70.448 308.781 70.448ZM308.781 60.464C312.365 60.464 315.223 59.2693 317.357 56.88C319.533 54.4907 320.621 51.3333 320.621 47.408C320.621 43.44 319.533 40.2827 317.357 37.936C315.223 35.5467 312.365 34.352 308.781 34.352C305.154 34.352 302.253 35.5253 300.077 37.872C297.943 40.2187 296.877 43.3973 296.877 47.408C296.877 51.376 297.943 54.5547 300.077 56.944C302.253 59.2907 305.154 60.464 308.781 60.464ZM388.725 25.072V70H377.781V43.056L367.733 70H358.901L348.789 42.992V70H337.845V25.072H350.773L363.381 56.176L375.861 25.072H388.725Z" fill="#FF684D"/>
<path d="M133.794 98.28C132.984 96.7867 131.81 95.656 130.274 94.888C128.781 94.0773 127.01 93.672 124.962 93.672C121.421 93.672 118.584 94.8453 116.45 97.192C114.317 99.496 113.25 102.589 113.25 106.472C113.25 110.611 114.36 113.853 116.578 116.2C118.84 118.504 121.933 119.656 125.858 119.656C128.546 119.656 130.808 118.973 132.642 117.608C134.52 116.243 135.885 114.28 136.738 111.72H122.85V103.656H146.658V113.832C145.848 116.563 144.461 119.101 142.498 121.448C140.578 123.795 138.125 125.693 135.138 127.144C132.152 128.595 128.781 129.32 125.026 129.32C120.589 129.32 116.621 128.36 113.122 126.44C109.666 124.477 106.957 121.768 104.994 118.312C103.074 114.856 102.114 110.909 102.114 106.472C102.114 102.035 103.074 98.088 104.994 94.632C106.957 91.1333 109.666 88.424 113.122 86.504C116.578 84.5413 120.525 83.56 124.962 83.56C130.338 83.56 134.861 84.8613 138.53 87.464C142.242 90.0667 144.696 93.672 145.89 98.28H133.794ZM175.632 129L166.288 112.04H163.664V129H152.72V84.072H171.088C174.63 84.072 177.638 84.6907 180.112 85.928C182.63 87.1653 184.507 88.872 185.744 91.048C186.982 93.1813 187.6 95.5707 187.6 98.216C187.6 101.203 186.747 103.869 185.04 106.216C183.376 108.563 180.902 110.227 177.616 111.208L187.984 129H175.632ZM163.664 104.296H170.448C172.454 104.296 173.947 103.805 174.928 102.824C175.952 101.843 176.464 100.456 176.464 98.664C176.464 96.9573 175.952 95.6133 174.928 94.632C173.947 93.6507 172.454 93.16 170.448 93.16H163.664V104.296ZM222.438 121.064H205.67L202.982 129H191.526L207.782 84.072H220.454L236.71 129H225.126L222.438 121.064ZM219.622 112.616L214.054 96.168L208.55 112.616H219.622ZM252.602 84.072V129H241.658V84.072H252.602ZM271.477 120.552H285.813V129H260.533V84.072H271.477V120.552ZM301.977 120.552H316.313V129H291.033V84.072H301.977V120.552ZM324.029 84.072H335.229L328.061 101.224H320.701L324.029 84.072ZM338.557 84.072H349.757L342.589 101.224H335.229L338.557 84.072Z" fill="#FF684D"/>
<path fill-rule="evenodd" clip-rule="evenodd" d="M40.1954 127.456C42.0979 128.406 44.1193 129 46.1408 129C48.2811 129 50.1836 128.525 51.9672 127.456L86.6884 107.612C90.2556 105.592 92.5148 101.789 92.5148 97.6306L92.6338 57.4679C92.6338 53.3091 90.3745 49.5067 86.8073 47.3678L52.2051 27.2865C48.7567 25.2665 44.2382 25.2665 40.671 27.2865L5.83096 47.249C2.26373 49.269 0.00447591 53.0714 0.00447591 57.2303V97.2741C-0.114432 101.433 2.14482 105.354 5.71206 107.374L40.1954 127.456ZM41.2655 28.3559C42.8113 27.4053 44.595 26.93 46.3786 26.93C48.2811 26.93 50.0647 27.4053 51.6105 28.3559L86.2127 48.4373C89.4232 50.3384 91.4447 53.7843 91.4447 57.5867L91.3258 97.6306C91.3258 101.433 89.3043 104.879 86.0938 106.661L51.3727 126.505C48.1622 128.406 44.0004 128.406 40.7899 126.505L6.18769 106.424C3.09608 104.522 1.07465 101.076 1.07465 97.3929L1.19356 57.3491C1.19356 53.5467 3.21499 50.1008 6.4255 48.3184L41.2655 28.3559ZM7.73349 56.6361L41.2655 76.1234C43.5248 77.4304 44.8328 79.8069 44.7139 82.3022L44.595 121.039C44.595 122.108 44.0004 123.178 43.0491 123.653C42.0979 124.247 41.0277 124.247 40.0765 123.653L7.37677 104.641C4.76079 103.097 3.09608 100.245 3.09608 97.1553L3.21499 59.2503C3.21499 58.1809 3.80953 57.1114 4.76079 56.6361C5.71206 56.042 6.78223 56.042 7.73349 56.6361ZM8.56585 70.6574C8.44694 73.5092 10.2306 77.0739 12.6087 78.6187C14.9869 80.1634 17.0083 79.094 17.1272 76.2422C17.2461 73.3904 15.4625 69.8257 13.0843 68.2809C10.7062 66.7362 8.68476 67.8056 8.56585 70.6574ZM19.1487 88.0058C19.0297 90.8576 20.8134 94.4223 23.1915 95.967C25.5697 97.5118 27.5911 96.4423 27.71 93.5905C27.8289 90.7388 26.0453 87.174 23.6672 85.6293C21.289 84.0846 19.2676 85.154 19.1487 88.0058ZM29.7315 105.354C29.6126 108.206 31.3962 111.771 33.7743 113.315C36.1525 114.86 38.1739 113.791 38.2928 110.939C38.4117 108.087 36.6281 104.522 34.25 102.978C31.8718 101.433 29.8504 102.502 29.7315 105.354ZM82.8833 49.1502L50.6593 30.3759C48.0433 28.8312 44.7139 28.8312 42.0979 30.3759L9.75493 48.9125C8.80366 49.3878 8.20912 50.4573 8.20912 51.5267C8.20912 52.5961 8.80366 53.5467 9.63602 54.1408L42.5735 73.2716C44.8328 74.5786 47.5676 74.5786 49.708 73.2716L82.7644 54.3785C83.7157 53.9032 84.3102 52.8338 84.3102 51.7643C84.4291 50.6949 83.8346 49.6255 82.8833 49.1502ZM50.7782 53.1902C48.2811 54.6161 44.3571 54.6161 41.8601 53.1902C39.363 51.7643 39.4819 49.5067 41.979 48.0808C44.476 46.6549 48.4 46.6549 50.8971 48.0808C53.2752 49.5067 53.2752 51.8832 50.7782 53.1902ZM84.7858 57.1114C85.7371 56.5173 86.8073 56.5173 87.7585 57.1114C88.7098 57.5867 89.3043 58.6562 89.3043 59.7256L89.1854 97.5117C89.1854 100.364 87.6396 102.978 85.1425 104.404L52.324 123.178C51.3727 123.772 50.3025 123.772 49.3513 123.178C48.4 122.584 47.8055 121.633 47.8055 120.564L47.9244 82.3022C47.9244 79.8069 49.2324 77.4304 51.4916 76.1233L84.7858 57.1114ZM54.9399 107.612C54.9399 110.464 56.9614 111.652 59.4584 110.226C61.9555 108.8 63.9769 105.354 63.9769 102.502C63.9769 99.6506 61.9555 98.4623 59.4584 99.8882C56.9614 101.314 54.9399 104.76 54.9399 107.612ZM72.3005 77.6681C72.3005 80.5199 74.3219 81.7081 76.819 80.2822C79.3161 78.9751 81.3375 75.4104 81.3375 72.5586C81.3375 69.7068 79.3161 68.5186 76.819 69.9445C74.3219 71.3704 72.3005 74.8163 72.3005 77.6681Z" fill="#FF684D"/>
</svg>
