<svg width="719" height="774" viewBox="0 0 719 774" fill="none" xmlns="http://www.w3.org/2000/svg">
<g filter="url(#filter0_d_46_1588)">
<path d="M660.265 428C660.265 467.397 652.505 506.407 637.429 542.805C622.352 579.203 600.254 612.274 572.397 640.132L360.265 428H660.265Z" fill="#F3752E" stroke="black" stroke-width="9"/>
<path d="M572.397 215.868C600.254 243.725 622.352 276.797 637.429 313.195C652.505 349.592 660.265 388.603 660.265 428L360.265 428L572.397 215.868Z" fill="#FF684D" stroke="black" stroke-width="9"/>
<path d="M572.396 640.132C544.539 667.99 511.467 690.087 475.069 705.164C438.672 720.24 399.661 728 360.264 728L360.264 428L572.396 640.132Z" fill="#FF684D" stroke="black" stroke-width="9"/>
<path d="M360.265 728C320.869 728 281.858 720.24 245.46 705.164C209.062 690.087 175.991 667.99 148.133 640.132L360.265 428V728Z" fill="#F3752E" stroke="black" stroke-width="9"/>
<path d="M360.265 128C399.661 128 438.672 135.76 475.07 150.836C511.467 165.913 544.539 188.011 572.397 215.868L360.265 428V128Z" fill="#F3752E" stroke="black" stroke-width="9"/>
<path d="M148.132 215.868C175.99 188.01 209.062 165.913 245.459 150.836C281.857 135.76 320.868 128 360.264 128L360.264 428L148.132 215.868Z" fill="#FF684D" stroke="black" stroke-width="9"/>
<path d="M60.2642 428C60.2642 388.604 68.0239 349.593 83.1003 313.195C98.1767 276.797 120.275 243.726 148.132 215.868L360.264 428L60.2642 428Z" fill="#F3752E" stroke="black" stroke-width="9"/>
<path d="M144.462 636.397C117.095 608.058 95.5778 574.605 81.1389 537.95C66.7 501.295 59.6223 462.155 60.3099 422.764L360.264 428L144.462 636.397Z" fill="#FF684D" stroke="black" stroke-width="9"/>
</g>
<g filter="url(#filter1_d_46_1588)">
<path d="M89.8488 207.421L68.456 199.809L67.2937 201.022L80.9381 216.721L70.0904 228.043L33.093 185.474L50.1948 167.624C53.3311 164.351 56.5125 162.182 59.739 161.118C62.9305 160.013 65.9893 159.929 68.9155 160.867C71.8067 161.765 74.3718 163.502 76.6109 166.078C79.1299 168.977 80.6135 172.303 81.0618 176.058C81.5121 179.733 80.7374 183.497 78.7379 187.35L101.969 194.77L89.8488 207.421ZM60.2616 192.931L65.6301 187.327C67.106 185.787 67.8806 184.249 67.9538 182.714C68.027 181.179 67.4338 179.687 66.1744 178.238C64.9848 176.869 63.6703 176.207 62.2307 176.251C60.7931 176.216 59.3548 176.949 57.9158 178.451L52.5472 184.055L60.2616 192.931Z" fill="black"/>
<path d="M130.237 158.84L114.537 171.23L117.203 180.802L104.266 191.011L89.4329 131.14L103.626 119.94L150.676 154.387L137.676 164.645L130.237 158.84ZM120.57 151.24L105.78 139.763L111.087 158.723L120.57 151.24Z" fill="black"/>
<path d="M199.497 125.702L185.878 133.471L154.216 115.347L167.741 143.818L154.122 151.587L129.921 100.643L143.541 92.8735L175.374 111.359L161.677 82.5272L175.297 74.7575L199.497 125.702Z" fill="black"/>
<path d="M209.197 60.7596C214.723 58.636 219.918 57.9232 224.781 58.6211C229.678 59.2491 233.897 61.1644 237.438 64.3672C240.978 67.5699 243.586 71.7873 245.26 77.0193C246.918 82.2005 247.252 87.2629 246.262 92.2067C245.323 97.1313 243.136 101.565 239.701 105.509C236.301 109.383 231.862 112.372 226.386 114.476L205.552 122.483L188.362 68.7662L209.197 60.7596ZM221.048 101.725C225.329 100.08 228.308 97.5949 229.983 94.27C231.659 90.9452 231.797 87.0985 230.399 82.7301C228.985 78.3108 226.677 75.3762 223.473 73.9262C220.254 72.4255 216.503 72.4977 212.222 74.1431L207.144 76.0945L215.97 103.677L221.048 101.725Z" fill="black"/>
<path d="M285.684 97.1232C280.519 98.2216 275.558 98.0234 270.801 96.5286C266.034 94.9812 261.991 92.3262 258.672 88.5636C255.396 84.7373 253.274 80.0934 252.307 74.6317C251.34 69.17 251.727 64.0197 253.468 59.1808C255.252 54.2783 258.095 50.1588 261.997 46.8221C265.899 43.4855 270.433 41.268 275.597 40.1695C280.814 39.06 285.775 39.2582 290.48 40.7642C295.238 42.259 299.255 44.9195 302.531 48.7458C305.797 52.5196 307.914 57.1373 308.882 62.5989C309.849 68.0606 309.467 73.2371 307.735 78.1285C305.993 82.9674 303.176 87.0815 299.284 90.4706C295.382 93.8073 290.848 96.0248 285.684 97.1232ZM283.145 82.7863C287.057 81.9542 289.907 80.0129 291.695 76.9625C293.534 73.9011 294.073 70.2172 293.31 65.9109C292.529 61.4995 290.767 58.2775 288.025 56.245C285.327 54.1488 282.021 53.5167 278.108 54.3489C274.144 55.1921 271.268 57.1389 269.48 60.1893C267.684 63.1872 267.176 66.8918 267.957 71.3031C268.729 75.662 270.464 78.8895 273.163 80.9857C275.853 83.0293 279.18 83.6296 283.145 82.7863Z" fill="black"/>
<path d="M382.447 31.4647L384.005 87.8432L368.333 88.3631L367.474 57.255L357.699 88.716L344.586 89.1511L333.006 58.1585L333.872 89.5066L318.201 90.0265L316.643 33.6481L335.593 33.0193L350.757 69.1758L363.577 32.0908L382.447 31.4647Z" fill="black"/>
<path d="M451.428 61.7847C450.79 60.1309 449.755 58.7494 448.322 57.6402C446.941 56.5416 445.205 55.7787 443.115 55.3512C439.249 54.5605 435.977 55.1972 433.3 57.2614C430.676 59.3363 429.001 62.503 428.276 66.7617C427.461 71.5462 428.015 75.4407 429.936 78.4452C431.919 81.4078 435.183 83.354 439.729 84.2837C445.111 85.3843 449.368 83.7249 452.5 79.3055L437.059 76.1478L438.953 65.0279L467.639 70.8944L465.088 85.8787C463.384 88.5772 461.138 90.9741 458.348 93.0695C455.61 95.1756 452.321 96.7065 448.482 97.6623C444.651 98.5656 440.463 98.5524 435.917 97.6227C430.378 96.49 425.668 94.3026 421.786 91.0604C417.966 87.7763 415.242 83.7645 413.616 79.025C412.051 74.2435 411.739 69.0926 412.679 63.572C413.61 58.1041 415.588 53.4758 418.612 49.6873C421.697 45.8569 425.558 43.1915 430.193 41.6911C434.837 40.1382 439.929 39.928 445.468 41.0607C452.417 42.4819 457.878 45.3398 461.851 49.6343C465.824 53.9289 467.862 59.1064 467.966 65.1667L451.428 61.7847Z" fill="black"/>
<path d="M494.422 115.268L489.98 91.5186L488.403 90.9403L482.329 110.834L467.607 105.436L484.076 51.4941L507.285 60.0036C511.541 61.5641 514.913 63.6511 517.4 66.2646C519.903 68.8271 521.501 71.7099 522.193 74.9132C522.901 78.0654 522.757 81.2738 521.76 84.5384C520.639 88.211 518.648 91.0829 515.789 93.154C512.995 95.1925 509.516 96.1007 505.352 95.8786L510.871 121.299L494.422 115.268ZM491.533 80.6874L498.819 83.3587C500.822 84.0931 502.472 84.1593 503.769 83.5573C505.066 82.9553 505.995 81.7361 506.556 79.8998C507.086 78.1655 506.972 76.621 506.217 75.2663C505.527 73.8789 504.205 72.8272 502.252 72.1112L494.967 69.44L491.533 80.6874Z" fill="black"/>
<path d="M551.448 133.424L533.87 123.885L527.41 130.819L512.925 122.958L554.22 81.3683L570.111 89.9917L564.887 151.156L550.332 143.258L551.448 133.424ZM552.944 120.619L555.111 101.097L542.327 114.857L552.944 120.619Z" fill="black"/>
<path d="M608.688 115.359L580.513 164.218L567.623 155.291L595.797 106.432L608.688 115.359Z" fill="black"/>
<path d="M607.053 170.656L620.48 181.91L613.612 191.751L588.168 170.424L620.447 124.175L632.464 134.247L607.053 170.656Z" fill="black"/>
<path d="M642.367 204.716L654.396 217.454L646.459 226.455L623.664 202.317L660.965 160.014L671.731 171.413L642.367 204.716Z" fill="black"/>
</g>
<path d="M537.558 499.844C536.202 492.406 534.827 484.762 534.783 477.169C534.777 476.225 534.452 474.175 535.402 473.644C536.108 473.244 537.258 473.137 538.058 473.15C538.715 473.156 538.696 473.456 538.896 473.994C540.19 477.431 540.296 481.237 540.796 484.844C541.333 488.669 541.796 492.5 542.402 496.312C543.177 501.144 543.915 506.025 543.846 510.9C543.84 511.437 543.858 512.125 543.483 512.419C542.758 512.987 541.452 512.744 540.621 512.419C539.521 511.981 539.321 509.831 539.015 508.644C538.665 507.269 538.39 505.987 538.196 504.581C538.083 503.719 537.821 502.875 537.708 502.012C537.627 501.256 537.702 500.6 537.558 499.844Z" fill="#FCC21B"/>
<path d="M537.946 473.15H538.058C538.715 473.156 538.696 473.456 538.896 473.994C540.19 477.431 540.296 481.237 540.796 484.844C541.333 488.669 541.796 492.5 542.402 496.312C543.177 501.144 543.915 506.025 543.846 510.9C543.84 511.437 543.858 512.125 543.483 512.419C543.165 512.669 542.746 512.762 542.296 512.762C541.715 512.762 541.096 512.606 540.627 512.419C539.527 511.981 539.327 509.831 539.021 508.644C538.671 507.269 538.396 505.987 538.202 504.581C538.09 503.719 537.827 502.875 537.715 502.012C537.627 501.256 537.702 500.606 537.565 499.85C536.208 492.412 534.833 484.769 534.79 477.175C534.783 476.231 534.458 474.181 535.408 473.65C536.077 473.262 537.152 473.15 537.946 473.15ZM537.946 469.387C536.733 469.387 534.99 469.556 533.552 470.369C530.733 471.95 530.921 475.331 531.002 476.775C531.008 476.931 531.021 477.075 531.021 477.194C531.071 485.262 532.552 493.369 533.858 500.519C533.883 500.669 533.896 500.887 533.902 501.169C533.915 501.519 533.927 501.956 533.983 502.456C534.058 503.087 534.183 503.631 534.29 504.119C534.365 504.469 534.44 504.8 534.471 505.069C534.677 506.537 534.952 507.925 535.377 509.581C535.427 509.775 535.471 509.987 535.515 510.212C535.877 511.937 536.477 514.825 539.24 515.919C539.821 516.15 540.977 516.525 542.296 516.525C543.64 516.525 544.858 516.131 545.815 515.381C547.571 514.006 547.596 511.95 547.608 511.069V510.969C547.677 505.919 546.977 501.075 546.121 495.725C545.721 493.206 545.377 490.606 545.033 488.087C544.871 486.831 544.702 485.581 544.527 484.325C544.402 483.437 544.302 482.544 544.208 481.644C543.883 478.706 543.552 475.675 542.427 472.675L542.396 472.581C541.49 469.837 539.321 469.406 538.115 469.394H537.946V469.387Z" fill="#F79329"/>
<path d="M549.146 499.506C548.702 491.956 548.271 484.2 549.14 476.663C549.246 475.725 549.171 473.65 550.177 473.238C550.927 472.925 552.084 472.963 552.877 473.069C553.534 473.156 553.471 473.45 553.602 474.006C554.471 477.581 554.115 481.369 554.177 485.006C554.24 488.869 554.24 492.731 554.384 496.588C554.559 501.475 554.702 506.413 554.046 511.238C553.971 511.775 553.902 512.456 553.509 512.706C552.715 513.181 551.446 512.781 550.665 512.356C549.627 511.794 549.69 509.638 549.527 508.419C549.346 507.013 549.227 505.706 549.209 504.288C549.202 503.413 549.04 502.55 549.04 501.675C549.046 500.906 549.19 500.275 549.146 499.506Z" fill="#FCC21B"/>
<path d="M551.765 472.994C552.165 472.994 552.546 473.025 552.883 473.069C553.54 473.156 553.477 473.45 553.608 474.006C554.477 477.581 554.121 481.369 554.183 485.006C554.246 488.869 554.246 492.731 554.39 496.587C554.565 501.475 554.708 506.412 554.052 511.237C553.977 511.775 553.908 512.456 553.515 512.706C553.252 512.856 552.952 512.925 552.633 512.925C551.958 512.925 551.202 512.644 550.671 512.356C549.633 511.794 549.696 509.637 549.533 508.419C549.352 507.012 549.233 505.706 549.215 504.287C549.208 503.412 549.046 502.55 549.046 501.675C549.046 500.912 549.196 500.275 549.152 499.506C548.708 491.956 548.277 484.2 549.146 476.662C549.252 475.725 549.177 473.65 550.183 473.237C550.621 473.056 551.202 472.994 551.765 472.994ZM551.765 469.231C550.615 469.231 549.602 469.406 548.746 469.756C545.752 470.994 545.527 474.375 545.433 475.825C545.427 475.975 545.421 476.119 545.402 476.237C544.471 484.275 544.958 492.487 545.39 499.731C545.396 499.875 545.377 500.1 545.352 500.381C545.315 500.725 545.277 501.162 545.277 501.662C545.277 502.3 545.327 502.856 545.377 503.35C545.408 503.706 545.44 504.044 545.446 504.312C545.465 505.769 545.571 507.181 545.796 508.9C545.821 509.081 545.833 509.294 545.852 509.525C545.983 511.169 546.24 514.237 548.865 515.656C549.565 516.037 550.983 516.681 552.621 516.681C553.652 516.681 554.608 516.425 555.44 515.925C557.358 514.756 557.633 512.731 557.752 511.862L557.765 511.762C558.44 506.806 558.333 501.9 558.133 496.45C558.04 493.9 558.008 491.275 557.983 488.737C557.971 487.469 557.952 486.206 557.933 484.937C557.921 484.056 557.927 483.156 557.94 482.256C557.977 479.3 558.008 476.237 557.258 473.112L557.233 473.006C556.665 470.181 554.571 469.487 553.371 469.331C552.84 469.269 552.283 469.231 551.765 469.231Z" fill="#F79329"/>
<path d="M562.771 486.731C560.952 494.075 559.121 501.619 558.602 509.194C558.54 510.138 558.09 512.163 559.002 512.75C559.683 513.188 560.821 513.369 561.621 513.406C562.29 513.438 562.277 513.138 562.515 512.619C564.015 509.263 564.358 505.475 565.077 501.9C565.84 498.119 566.54 494.319 567.383 490.55C568.446 485.775 569.483 480.944 569.721 476.088C569.746 475.55 569.802 474.863 569.452 474.544C568.765 473.931 567.44 474.094 566.596 474.369C565.471 474.731 565.14 476.869 564.765 478.038C564.327 479.388 563.977 480.65 563.702 482.05C563.533 482.906 563.221 483.725 563.058 484.588C562.915 485.331 562.952 485.981 562.771 486.731Z" fill="#FCC21B"/>
<path d="M568.077 474.125C568.596 474.125 569.102 474.238 569.452 474.544C569.802 474.856 569.746 475.544 569.721 476.088C569.49 480.944 568.446 485.781 567.383 490.55C566.54 494.325 565.84 498.119 565.077 501.9C564.358 505.475 564.015 509.256 562.515 512.619C562.296 513.113 562.29 513.413 561.715 513.413H561.621C560.821 513.375 559.683 513.194 559.002 512.756C558.09 512.163 558.533 510.144 558.602 509.2C559.121 501.625 560.952 494.081 562.771 486.738C562.952 485.988 562.921 485.338 563.058 484.588C563.221 483.731 563.533 482.906 563.702 482.05C563.977 480.656 564.327 479.388 564.765 478.038C565.14 476.869 565.471 474.738 566.596 474.369C567.015 474.231 567.558 474.125 568.077 474.125ZM568.077 470.363C566.983 470.363 566.027 470.6 565.427 470.8C562.596 471.719 561.79 474.688 561.358 476.288C561.302 476.506 561.246 476.713 561.19 476.888C560.677 478.463 560.302 479.875 560.021 481.319C559.971 481.588 559.871 481.913 559.777 482.25C559.633 482.731 559.477 483.281 559.365 483.894C559.271 484.4 559.233 484.844 559.196 485.2C559.171 485.481 559.152 485.7 559.115 485.844C557.377 492.875 555.402 500.856 554.858 508.944C554.852 509.038 554.833 509.175 554.808 509.331C554.64 510.775 554.24 514.144 556.958 515.913C558.477 516.888 560.421 517.119 561.44 517.175C561.54 517.175 561.627 517.181 561.715 517.181C562.846 517.181 564.89 516.8 565.908 514.256L565.946 514.156C567.258 511.225 567.783 508.206 568.283 505.294C568.44 504.406 568.583 503.525 568.765 502.663C569.015 501.419 569.258 500.175 569.502 498.931C569.996 496.444 570.496 493.875 571.052 491.388C572.24 486.088 573.233 481.288 573.477 476.288L573.483 476.169C573.521 475.294 573.621 473.25 571.971 471.763C571.246 471.106 570.002 470.363 568.077 470.363Z" fill="#F79329"/>
<path d="M571.99 502.281C574.133 495.025 576.358 487.587 579.74 480.787C580.158 479.944 580.796 477.969 581.877 477.919C582.69 477.887 583.765 478.306 584.477 478.681C585.058 478.987 584.908 479.244 584.846 479.812C584.446 483.469 582.827 486.912 581.646 490.356C580.402 494.006 579.083 497.637 577.902 501.319C576.415 505.975 574.871 510.675 572.615 514.987C572.365 515.469 572.065 516.094 571.608 516.181C570.696 516.362 569.646 515.556 569.052 514.894C568.265 514.006 569.058 512 569.321 510.8C569.627 509.419 569.958 508.15 570.427 506.806C570.715 505.981 570.858 505.112 571.152 504.294C571.415 503.562 571.777 503.019 571.99 502.281Z" fill="#FCC21B"/>
<path d="M581.971 477.919C582.771 477.919 583.79 478.325 584.477 478.681C585.058 478.987 584.908 479.244 584.846 479.812C584.446 483.469 582.827 486.912 581.646 490.356C580.402 494.006 579.083 497.637 577.902 501.319C576.415 505.975 574.871 510.675 572.615 514.987C572.365 515.469 572.065 516.094 571.608 516.181C571.521 516.2 571.427 516.206 571.34 516.206C570.502 516.206 569.583 515.487 569.052 514.887C568.265 514 569.058 511.994 569.321 510.794C569.627 509.412 569.958 508.144 570.427 506.8C570.715 505.975 570.858 505.106 571.152 504.287C571.408 503.569 571.771 503.025 571.983 502.281C574.127 495.025 576.352 487.587 579.733 480.787C580.152 479.944 580.79 477.969 581.871 477.919H581.971ZM581.971 474.156H581.727C578.477 474.306 577.115 477.419 576.54 478.75C576.477 478.894 576.421 479.019 576.371 479.125C572.777 486.362 570.44 494.256 568.39 501.212C568.346 501.356 568.252 501.556 568.14 501.806C567.99 502.125 567.802 502.531 567.627 503.012C567.415 503.6 567.271 504.156 567.146 504.644C567.058 504.987 566.977 505.312 566.89 505.569C566.408 506.95 566.027 508.319 565.658 509.994C565.621 510.169 565.565 510.375 565.502 510.6C565.046 512.306 564.271 515.156 566.246 517.381C566.94 518.162 568.815 519.962 571.346 519.962C571.69 519.962 572.021 519.925 572.352 519.862C574.546 519.419 575.496 517.606 575.902 516.825L575.952 516.731C578.277 512.275 579.833 507.631 581.49 502.456C582.258 500.069 583.108 497.631 583.927 495.281C584.358 494.044 584.79 492.806 585.208 491.562C585.496 490.737 585.802 489.906 586.115 489.069C587.152 486.287 588.233 483.419 588.583 480.212L588.602 480.119C589.033 477.263 587.296 475.9 586.227 475.338C585.165 474.8 583.583 474.156 581.971 474.156Z" fill="#F79329"/>
<path d="M531.333 495.744C534.983 502.375 538.696 509.2 541.14 516.381C541.452 517.275 542.402 519.119 541.671 519.919C541.121 520.519 540.071 520.987 539.302 521.231C538.671 521.431 538.602 521.137 538.246 520.694C535.933 517.844 534.627 514.269 533.008 511C531.29 507.544 529.633 504.05 527.858 500.625C525.602 496.287 523.346 491.888 521.871 487.25C521.715 486.738 521.477 486.087 521.733 485.694C522.246 484.919 523.558 484.738 524.452 484.788C525.627 484.85 526.502 486.825 527.165 487.856C527.933 489.05 528.596 490.181 529.221 491.456C529.608 492.244 530.121 492.956 530.502 493.744C530.833 494.431 530.965 495.075 531.333 495.744Z" fill="#FCC21B"/>
<path d="M524.177 484.781C524.277 484.781 524.371 484.781 524.459 484.788C525.634 484.85 526.509 486.825 527.171 487.856C527.94 489.05 528.602 490.181 529.227 491.456C529.615 492.244 530.127 492.956 530.509 493.744C530.834 494.431 530.965 495.075 531.334 495.75C534.984 502.375 538.696 509.2 541.14 516.381C541.452 517.275 542.402 519.119 541.671 519.919C541.121 520.519 540.071 520.988 539.302 521.231C539.165 521.275 539.052 521.294 538.959 521.294C538.627 521.294 538.521 521.044 538.246 520.694C535.934 517.844 534.627 514.269 533.009 511C531.29 507.544 529.634 504.05 527.859 500.625C525.602 496.288 523.346 491.888 521.871 487.25C521.715 486.738 521.477 486.088 521.734 485.694C522.196 485 523.315 484.781 524.177 484.781ZM524.177 481.019C521.727 481.019 519.696 481.969 518.602 483.619C517.371 485.488 517.996 487.444 518.259 488.281L518.29 488.375C519.815 493.163 522.015 497.544 524.521 502.363C525.684 504.6 526.821 506.925 527.921 509.175C528.49 510.344 529.065 511.506 529.64 512.669C530.027 513.45 530.39 514.25 530.765 515.063C532.002 517.763 533.284 520.55 535.321 523.056L535.371 523.125C536.321 524.406 537.527 525.05 538.959 525.05C539.446 525.05 539.921 524.975 540.434 524.813C541.421 524.494 543.24 523.775 544.452 522.45C546.64 520.037 545.377 516.875 544.84 515.525L544.69 515.144C542.09 507.5 538.127 500.294 534.627 493.931C534.552 493.806 534.484 493.588 534.39 493.344C534.271 493.013 534.121 492.6 533.902 492.138C533.621 491.55 533.334 491.069 533.084 490.65C532.896 490.338 532.721 490.044 532.602 489.8C531.965 488.5 531.271 487.269 530.327 485.819C530.227 485.663 530.121 485.475 530.009 485.275C529.177 483.85 527.64 481.194 524.665 481.031C524.509 481.025 524.346 481.019 524.177 481.019Z" fill="#F79329"/>
<path d="M555.102 501.219C552.665 508.381 550.19 515.737 549.033 523.244C548.89 524.181 548.265 526.15 549.127 526.825C549.771 527.319 550.89 527.594 551.683 527.706C552.34 527.8 552.358 527.494 552.633 526.994C554.415 523.775 555.083 520.037 556.108 516.537C557.196 512.831 558.221 509.112 559.377 505.425C560.846 500.756 562.302 496.031 562.946 491.212C563.015 490.675 563.133 490 562.808 489.65C562.171 488.975 560.84 489.031 559.971 489.231C558.821 489.5 558.308 491.594 557.833 492.731C557.283 494.037 556.827 495.269 556.433 496.631C556.196 497.469 555.808 498.256 555.577 499.1C555.371 499.831 555.352 500.487 555.102 501.219Z" fill="#FCC21B"/>
<path d="M561.127 489.094C561.771 489.094 562.421 489.238 562.808 489.644C563.127 489.988 563.008 490.669 562.946 491.206C562.302 496.025 560.846 500.756 559.377 505.419C558.221 509.1 557.196 512.819 556.108 516.531C555.083 520.025 554.421 523.769 552.633 526.988C552.39 527.431 552.346 527.713 551.89 527.713C551.827 527.713 551.758 527.706 551.683 527.7C550.89 527.594 549.771 527.319 549.127 526.819C548.265 526.15 548.89 524.175 549.033 523.238C550.19 515.738 552.665 508.375 555.102 501.213C555.346 500.481 555.371 499.831 555.577 499.094C555.808 498.25 556.196 497.463 556.433 496.625C556.827 495.256 557.283 494.025 557.833 492.725C558.308 491.594 558.821 489.494 559.971 489.225C560.308 489.15 560.715 489.094 561.127 489.094ZM561.127 485.331C560.471 485.331 559.777 485.413 559.121 485.563C556.215 486.244 555.152 489.125 554.59 490.675C554.508 490.888 554.44 491.094 554.365 491.263C553.696 492.85 553.221 494.181 552.815 495.581C552.74 495.844 552.627 496.156 552.496 496.488C552.315 496.956 552.115 497.488 551.952 498.094C551.815 498.581 551.74 499.019 551.677 499.369C551.627 499.644 551.59 499.863 551.54 500C549.202 506.863 546.552 514.65 545.315 522.656C545.302 522.756 545.271 522.894 545.233 523.044C544.946 524.463 544.258 527.788 546.802 529.775C548.24 530.881 550.152 531.275 551.171 531.413C551.44 531.45 551.677 531.463 551.89 531.463C552.89 531.463 554.752 531.125 555.883 528.881L555.927 528.788C557.49 525.969 558.271 523.006 559.021 520.138C559.246 519.275 559.465 518.419 559.715 517.575C560.065 516.363 560.421 515.144 560.771 513.925C561.471 511.488 562.196 508.975 562.958 506.538C564.596 501.344 566.002 496.644 566.671 491.694L566.69 491.556C566.796 490.7 567.058 488.688 565.558 487.075C564.802 486.275 563.427 485.331 561.127 485.331Z" fill="#F79329"/>
<path d="M570.884 519.581C575.027 513.25 579.246 506.731 582.234 499.756C582.609 498.888 583.702 497.125 583.034 496.269C582.534 495.631 581.521 495.081 580.777 494.781C580.165 494.531 580.071 494.813 579.671 495.231C577.146 497.906 575.577 501.363 573.715 504.5C571.74 507.813 569.827 511.163 567.79 514.45C565.202 518.606 562.627 522.819 560.802 527.331C560.602 527.831 560.315 528.456 560.552 528.875C560.996 529.681 562.302 529.963 563.19 529.981C564.371 530.006 565.39 528.106 566.134 527.125C566.99 526 567.74 524.919 568.459 523.694C568.902 522.938 569.471 522.275 569.902 521.513C570.277 520.856 570.465 520.231 570.884 519.581Z" fill="#FCC21B"/>
<path d="M580.396 494.687C580.502 494.687 580.621 494.719 580.783 494.781C581.527 495.081 582.54 495.625 583.04 496.269C583.708 497.131 582.621 498.887 582.24 499.756C579.252 506.731 575.033 513.25 570.89 519.581C570.471 520.225 570.283 520.856 569.902 521.519C569.471 522.275 568.902 522.944 568.458 523.7C567.74 524.925 566.996 526.006 566.133 527.131C565.396 528.1 564.383 529.987 563.215 529.987H563.19C562.302 529.969 561.002 529.687 560.552 528.881C560.321 528.462 560.602 527.837 560.802 527.337C562.627 522.825 565.202 518.612 567.79 514.456C569.821 511.175 571.74 507.825 573.715 504.506C575.577 501.369 577.152 497.912 579.671 495.237C579.971 494.925 580.096 494.687 580.396 494.687ZM580.396 490.931C578.452 490.931 577.358 492.175 577.008 492.581L576.933 492.662C574.733 495 573.246 497.675 571.802 500.262C571.365 501.044 570.933 501.825 570.483 502.581C569.815 503.706 569.146 504.837 568.483 505.975C567.221 508.119 565.915 510.331 564.596 512.469C561.74 517.056 559.215 521.237 557.315 525.919L557.265 526.05C556.946 526.856 556.19 528.744 557.246 530.681C558.29 532.556 560.471 533.687 563.108 533.744H563.208C566.121 533.744 567.777 531.35 568.758 529.919C568.89 529.731 569.008 529.55 569.121 529.4C570.127 528.081 570.94 526.875 571.696 525.606C571.833 525.369 572.027 525.094 572.233 524.806C572.521 524.394 572.846 523.931 573.158 523.387C573.421 522.944 573.602 522.544 573.746 522.219C573.865 521.962 573.952 521.756 574.04 521.631C578.002 515.581 582.496 508.706 585.69 501.237C585.733 501.15 585.79 501.025 585.858 500.887C586.496 499.581 587.996 496.519 585.996 493.956C584.883 492.531 583.133 491.675 582.19 491.294C581.583 491.05 580.99 490.931 580.396 490.931Z" fill="#F79329"/>
<path d="M565.94 519.206C568.815 512.206 571.727 505.012 573.346 497.6C573.552 496.675 574.29 494.737 573.471 494.025C572.858 493.487 571.758 493.144 570.971 492.994C570.321 492.862 570.283 493.162 569.977 493.644C567.996 496.744 567.108 500.437 565.871 503.869C564.558 507.5 563.308 511.15 561.927 514.756C560.177 519.325 558.446 523.956 557.502 528.725C557.396 529.262 557.24 529.925 557.54 530.294C558.14 531 559.465 531.031 560.34 530.881C561.508 530.688 562.146 528.625 562.696 527.519C563.321 526.25 563.852 525.05 564.327 523.712C564.621 522.887 565.052 522.125 565.333 521.3C565.583 520.575 565.652 519.925 565.94 519.206Z" fill="#FCC21B"/>
<path d="M570.708 492.956C570.783 492.956 570.871 492.969 570.977 492.987C571.758 493.144 572.865 493.487 573.477 494.019C574.296 494.737 573.558 496.669 573.352 497.594C571.733 505.006 568.815 512.2 565.946 519.2C565.658 519.912 565.596 520.569 565.346 521.287C565.065 522.112 564.633 522.881 564.34 523.7C563.865 525.037 563.333 526.237 562.708 527.506C562.158 528.606 561.521 530.669 560.352 530.869C560.096 530.912 559.796 530.937 559.483 530.937C558.752 530.937 557.971 530.775 557.552 530.275C557.252 529.912 557.408 529.244 557.515 528.706C558.458 523.937 560.19 519.306 561.94 514.737C563.321 511.131 564.571 507.481 565.883 503.85C567.121 500.425 568.008 496.731 569.99 493.625C570.24 493.237 570.302 492.956 570.708 492.956ZM570.708 489.2C569.577 489.2 567.99 489.606 566.858 491.531L566.808 491.625C565.077 494.337 564.121 497.25 563.196 500.062C562.915 500.912 562.633 501.756 562.34 502.587C561.908 503.781 561.477 504.981 561.058 506.175C560.208 508.562 559.34 511.025 558.415 513.412C556.477 518.475 554.79 523.069 553.808 527.994L553.79 528.106C553.621 528.962 553.227 530.969 554.64 532.675C555.746 534 557.458 534.706 559.477 534.706C559.983 534.706 560.483 534.662 560.977 534.581C563.915 534.094 565.146 531.269 565.808 529.756C565.902 529.55 565.983 529.356 566.065 529.187C566.796 527.706 567.377 526.362 567.871 524.975C567.965 524.719 568.102 524.412 568.246 524.087C568.452 523.631 568.69 523.106 568.896 522.512C569.058 522.037 569.171 521.594 569.252 521.244C569.315 520.975 569.371 520.756 569.427 520.619C572.177 513.931 575.296 506.325 577.021 498.406C577.046 498.306 577.083 498.175 577.121 498.025C577.502 496.625 578.39 493.344 575.952 491.2C574.59 490.012 572.702 489.5 571.702 489.3C571.371 489.231 571.04 489.2 570.708 489.2Z" fill="#F79329"/>
<path d="M545.54 502.431C545.896 509.988 546.302 517.744 547.977 525.15C548.183 526.075 548.327 528.137 549.377 528.444C550.158 528.675 551.296 528.519 552.077 528.325C552.721 528.169 552.627 527.881 552.708 527.313C553.183 523.669 552.427 519.944 552.096 516.312C551.758 512.469 551.34 508.631 551.058 504.775C550.721 499.894 550.327 494.969 549.165 490.244C549.033 489.713 548.896 489.044 548.465 488.837C547.627 488.45 546.408 488.987 545.677 489.487C544.702 490.162 544.996 492.3 544.965 493.531C544.933 494.95 544.965 496.263 545.096 497.675C545.177 498.544 545.115 499.419 545.208 500.287C545.277 501.044 545.502 501.669 545.54 502.431Z" fill="#FCC21B"/>
<path d="M547.802 488.706C548.04 488.706 548.258 488.744 548.458 488.837C548.883 489.044 549.021 489.712 549.158 490.244C550.327 494.969 550.715 499.894 551.052 504.775C551.333 508.631 551.752 512.469 552.09 516.312C552.427 519.944 553.177 523.669 552.702 527.312C552.627 527.881 552.715 528.169 552.071 528.325C551.571 528.45 550.908 528.562 550.302 528.562C549.965 528.562 549.646 528.525 549.371 528.45C548.327 528.144 548.177 526.081 547.971 525.156C546.296 517.75 545.896 510 545.533 502.437C545.496 501.669 545.277 501.05 545.196 500.294C545.102 499.425 545.165 498.55 545.083 497.681C544.952 496.269 544.921 494.956 544.952 493.537C544.983 492.306 544.69 490.169 545.665 489.494C546.227 489.112 547.065 488.706 547.802 488.706ZM547.802 484.95C545.921 484.95 544.327 485.856 543.54 486.4C541.083 488.1 541.158 491.175 541.196 492.825C541.202 493.05 541.208 493.269 541.202 493.456C541.165 495.125 541.215 496.581 541.346 498.031C541.371 498.306 541.377 498.637 541.377 498.994C541.383 499.5 541.396 500.075 541.465 500.706C541.515 501.2 541.602 501.637 541.671 501.987C541.727 502.262 541.771 502.481 541.783 502.631C542.121 509.862 542.515 518.069 544.302 525.981C544.327 526.081 544.352 526.225 544.371 526.375C544.621 527.8 545.202 531.144 548.315 532.056C548.908 532.231 549.577 532.319 550.296 532.319C551.358 532.319 552.333 532.131 552.965 531.975C554.121 531.7 556.14 530.788 556.402 527.913L556.415 527.806C556.833 524.606 556.465 521.562 556.115 518.619C556.002 517.731 555.902 516.85 555.821 515.975C555.702 514.656 555.577 513.331 555.446 512C555.208 509.544 554.965 507 554.79 504.512C554.408 499.112 553.996 494.237 552.79 489.35L552.765 489.244C552.558 488.4 552.065 486.425 550.083 485.469C549.352 485.106 548.602 484.95 547.802 484.95Z" fill="#F79329"/>
<path d="M542.402 516.819C541.627 509.288 540.802 501.575 538.727 494.269C538.477 493.356 538.215 491.306 537.152 491.056C536.358 490.869 535.227 491.088 534.465 491.325C533.833 491.519 533.933 491.8 533.89 492.369C533.615 496.038 534.571 499.713 535.108 503.319C535.658 507.144 536.283 510.95 536.771 514.781C537.383 519.631 538.046 524.531 539.471 529.181C539.627 529.7 539.808 530.363 540.24 530.544C541.102 530.888 542.283 530.288 542.983 529.738C543.921 529.013 543.515 526.894 543.477 525.669C543.427 524.25 543.327 522.944 543.121 521.538C542.983 520.675 543.008 519.8 542.865 518.938C542.727 518.188 542.483 517.588 542.402 516.819Z" fill="#FCC21B"/>
<path d="M536.465 490.994C536.709 490.994 536.94 491.012 537.146 491.062C538.209 491.312 538.471 493.362 538.721 494.275C540.802 501.575 541.621 509.294 542.396 516.825C542.484 517.587 542.727 518.194 542.852 518.944C542.996 519.806 542.971 520.687 543.109 521.544C543.315 522.95 543.421 524.256 543.465 525.675C543.502 526.906 543.909 529.025 542.971 529.744C542.415 530.181 541.546 530.65 540.784 530.65C540.59 530.65 540.402 530.619 540.227 530.55C539.796 530.369 539.615 529.706 539.459 529.188C538.034 524.537 537.371 519.637 536.759 514.787C536.271 510.956 535.646 507.144 535.096 503.325C534.559 499.719 533.602 496.037 533.877 492.375C533.921 491.806 533.821 491.525 534.452 491.331C535.021 491.156 535.784 490.994 536.465 490.994ZM536.465 487.231C535.184 487.231 533.965 487.55 533.352 487.737C532.202 488.087 530.259 489.106 530.14 491.981L530.134 492.087C529.896 495.319 530.427 498.35 530.946 501.281C531.102 502.15 531.259 503.019 531.39 503.881C531.584 505.212 531.784 506.569 531.99 507.912C532.352 510.325 532.734 512.825 533.04 515.262C533.721 520.637 534.396 525.487 535.871 530.3L535.902 530.4C536.152 531.231 536.752 533.187 538.802 534.037C539.452 534.3 540.115 534.425 540.796 534.425C542.815 534.425 544.477 533.362 545.296 532.725C547.64 530.906 547.402 527.844 547.271 526.2C547.252 525.975 547.234 525.756 547.234 525.575C547.177 523.919 547.052 522.469 546.834 521.006C546.784 520.725 546.771 520.394 546.74 520.038C546.709 519.538 546.671 518.969 546.571 518.35C546.49 517.844 546.377 517.412 546.29 517.075C546.215 516.8 546.159 516.581 546.146 516.431C545.409 509.237 544.571 501.056 542.346 493.262C542.321 493.169 542.29 493.031 542.259 492.881C541.934 491.469 541.165 488.15 538.009 487.412C537.527 487.287 537.009 487.231 536.465 487.231Z" fill="#F79329"/>
<path d="M583.996 507.581C583.39 506.9 582.452 506.625 581.571 506.531C580.458 506.412 579.346 506.3 578.233 506.194C576.94 506.075 575.627 505.95 574.333 505.919C574.146 505.919 573.965 505.912 573.783 505.912C572.602 505.912 570.902 505.687 570.277 507.056C569.952 507.781 569.74 508.619 569.49 509.375C568.071 513.681 562.971 513.862 559.177 513.756C554.252 513.612 548.74 514.581 543.958 513.337C541.815 512.775 539.715 511.594 538.983 509.375C538.608 508.256 538.377 506.537 537.14 506.062C536.19 505.7 535.121 505.894 534.133 505.919C532.833 505.95 531.527 506.075 530.233 506.194C529.121 506.3 528.008 506.412 526.896 506.531C526.015 506.625 525.077 506.9 524.471 507.581C523.758 508.387 524.365 509.425 524.508 510.356C525.133 514.369 526.571 518.381 527.477 522.356C528.552 527.044 529.633 531.725 530.883 536.369C531.515 538.681 532.19 540.981 532.915 543.269C533.271 544.394 533.802 547.725 534.802 548.512C535.708 549.225 537.252 548.244 538.208 548.125C539.396 547.975 540.602 547.8 541.79 547.675C551.29 546.644 560.777 546.894 570.24 548.125C571.196 548.25 572.74 549.225 573.646 548.512C574.646 547.725 575.177 544.394 575.533 543.269C576.265 540.987 576.94 538.687 577.565 536.369C578.821 531.725 579.902 527.044 580.971 522.356C581.877 518.381 583.321 514.369 583.952 510.356C584.108 509.425 584.715 508.387 583.996 507.581Z" fill="#FF0000"/>
<g clip-path="url(#clip0_46_1588)">
<path d="M192.58 480.485C191.891 478.407 189.775 475.946 187.412 475.437C186.45 475.23 184.995 475.257 183.732 475.339L183.147 475.372C180.423 475.509 177.738 476.034 175.474 476.531C169.786 477.784 163.344 479.2 157.274 481.251C156.793 481.415 156.295 481.579 155.786 481.743C152.483 482.82 148.737 484.04 146.052 486.43C144.488 487.824 143.247 489.777 142.465 492.062C141.393 495.212 141.234 498.707 142.022 501.895C143.476 507.818 147.293 508.666 151.324 509.562C151.756 509.655 152.21 509.754 152.669 509.863C154.818 510.372 157.006 510.629 159.161 510.629C168.561 510.629 176.606 505.887 184.049 501.031C187.04 499.073 189.222 497.236 190.89 495.256C194.161 491.395 194.095 485.057 192.58 480.485Z" fill="#E4E3DE"/>
<path d="M192.23 479.627C191.246 479.911 190.267 480.201 189.283 480.485C179.22 483.422 172.499 486.933 163.678 492.587C161.272 494.13 158.636 496.99 157.761 499.719C157 502.092 156.672 504.148 155.579 506.391C154.786 508.015 153.189 508.939 151.45 509.59C151.849 509.677 152.254 509.765 152.68 509.869C154.829 510.377 157.017 510.634 159.172 510.634C168.572 510.634 176.617 505.893 184.06 501.037C187.051 499.079 189.233 497.241 190.901 495.262C194.166 491.401 194.1 485.057 192.586 480.485C192.493 480.201 192.367 479.916 192.23 479.627Z" fill="#CDCBBF"/>
<path d="M139.632 486.189C138.768 488.169 138.38 490.575 139.255 492.62C140.244 494.928 142.519 495.152 144.685 495.639C149.574 496.744 156.038 498.991 161.042 497.854C164.061 497.17 167.003 495.163 169.683 493.681C176.087 490.127 182.409 486.386 189.048 483.263C190.617 482.525 194.872 481.497 194.855 479.282C194.85 478.495 194.855 477.707 194.855 476.92C194.855 475.301 194.576 473.206 193.045 472.298C192.159 471.773 191.055 471.462 190.076 471.15C188.517 470.652 186.937 470.105 185.362 469.679C180.773 468.421 175.841 467.814 171.126 468.651C162.366 470.215 154.594 474.016 147.403 479.156C145.33 480.633 143.176 482.049 141.371 483.859C140.496 484.734 139.96 485.44 139.632 486.189Z" fill="#FAC11D"/>
<path d="M193.051 472.293C192.728 472.102 192.378 471.948 192.017 471.801C192.728 474.125 185.29 476.706 182.939 477.745C177.842 480.004 167.708 483.903 163.858 487.873C162.847 488.918 160.692 491.915 160.271 493.287C159.724 495.043 158.619 497.416 155.819 498.034C157.646 498.226 159.429 498.215 161.053 497.848C164.072 497.165 167.014 495.158 169.694 493.676C176.097 490.121 182.419 486.38 189.058 483.258C190.628 482.52 194.883 481.491 194.866 479.277C194.861 478.489 194.866 477.702 194.866 476.914C194.861 475.295 194.576 473.201 193.051 472.293Z" fill="#E4A724"/>
<path d="M154.49 477.313C158.291 477.773 161.715 478.347 166.292 479.621C171.121 480.966 172.854 482.591 173.456 487.523C174.069 492.555 175.042 500.184 172.833 504.996C172.258 506.238 171.438 507.484 170.563 508.463C171.225 508.638 176.404 506.812 178.684 505.105C182.469 502.278 183.158 498.74 183.201 494.299C183.245 490.159 182.862 483.17 181.528 479.539C180.401 476.466 177.361 475.345 174.451 474.442C172.362 473.797 167.752 472.545 164.006 472.178C161.419 471.921 159.199 472.38 158.679 472.555C157.356 472.998 154.819 474.42 152.828 475.607C151.384 476.471 150.176 477.253 150.176 477.253C150.176 477.253 152.172 477.034 154.49 477.313Z" fill="#2F2F2F"/>
<path d="M206.766 507.594C206.077 505.516 203.961 503.055 201.598 502.546C200.636 502.338 199.181 502.366 197.918 502.448L197.333 502.48C194.609 502.617 191.924 503.142 189.66 503.64C183.972 504.892 177.53 506.309 171.46 508.359C170.979 508.523 170.481 508.687 169.972 508.852C166.669 509.934 162.923 511.154 160.238 513.544C158.674 514.938 157.433 516.891 156.651 519.177C155.579 522.327 155.42 525.821 156.208 529.009C157.662 534.932 161.474 535.78 165.51 536.677C165.942 536.77 166.396 536.868 166.855 536.977C169.005 537.486 171.192 537.743 173.347 537.743C182.747 537.743 190.792 533.002 198.235 528.145C201.226 526.188 203.408 524.35 205.076 522.37C208.347 518.504 208.281 512.166 206.766 507.594Z" fill="#E4E3DE"/>
<path d="M206.411 506.735C205.426 507.02 204.448 507.309 203.463 507.594C193.401 510.53 183.048 513.609 174.873 520.172C172.909 521.747 171.006 523.661 170.481 526.122C169.956 528.555 170.853 531.263 169.759 533.505C168.966 535.129 167.369 536.053 165.63 536.704C166.03 536.791 166.434 536.879 166.861 536.983C169.01 537.491 171.198 537.748 173.352 537.748C182.753 537.748 190.798 533.007 198.241 528.151C201.232 526.193 203.414 524.355 205.082 522.376C208.347 518.515 208.281 512.171 206.766 507.599C206.673 507.315 206.553 507.025 206.411 506.735Z" fill="#CDCBBF"/>
<path d="M153.768 515.217C152.888 517.826 153.911 520.577 156.913 520.402C160.369 520.205 164.088 520.309 167.49 521.02C169.77 521.495 171.99 522.288 174.265 522.748C175.512 522.999 177.071 523.262 178.372 522.977C179.45 522.742 180.401 521.927 181.375 521.435C185.411 519.39 189.179 516.973 193.264 515.026C195.801 513.817 198.3 512.537 200.811 511.28C202.867 510.252 206.192 509.42 207.193 507.047C209.479 501.671 202.096 497.531 197.912 496.514C193.258 495.382 187.609 494.994 182.939 496.142C179.504 496.984 176.092 497.996 172.816 499.363C169.617 500.703 167.014 502.584 164.143 504.416C161.157 506.325 158.018 508.77 155.754 511.52C154.95 512.505 154.244 513.812 153.768 515.217Z" fill="#EC6C30"/>
<path d="M204.059 499.407C204.557 500.26 204.262 501.846 203.665 502.612C202.637 503.935 199.083 505.472 197.836 506.123C194.62 507.791 186.767 510.695 184.448 512.209C181.834 513.91 178.077 516.557 175.775 518.657C173.91 520.358 172.034 521.304 169.737 521.577C171.247 521.987 172.745 522.447 174.265 522.753C175.512 523.005 177.071 523.267 178.372 522.983C179.45 522.748 180.401 521.933 181.375 521.441C185.411 519.395 189.179 516.978 193.264 515.031C195.801 513.823 198.301 512.543 200.811 511.285C202.867 510.257 206.192 509.426 207.193 507.052C208.5 503.984 206.657 501.321 204.059 499.407Z" fill="#D65B29"/>
<path d="M191.623 497.066C194.041 498.051 195.905 500.298 196.425 502.858C196.452 502.984 196.474 503.115 196.447 503.246C196.408 503.421 196.266 503.563 196.113 503.656C195.55 503.979 194.801 503.695 194.363 503.213C193.926 502.732 193.707 502.098 193.417 501.512C192.996 500.659 192.411 499.888 191.7 499.259C191.377 498.975 191.016 498.691 190.88 498.286C190.732 497.865 190.923 496.962 191.623 497.066ZM181.796 498.133C183.491 499.845 184.924 501.813 186.029 503.952C186.51 504.881 186.898 506.117 186.712 507.151C186.532 508.179 185.974 508.715 184.973 508.409C184.284 508.217 183.918 506.03 183.371 504.34C183.054 503.361 182.141 501.655 181.523 500.829C180.905 500.003 180.062 499.15 180.073 498.116C180.03 497.728 180.724 497.356 181.796 498.133ZM173.533 500.747C174.107 501.037 174.468 501.556 174.851 502.07C175.075 502.377 175.261 502.71 175.441 503.044C176.841 505.592 178.285 508.37 177.886 511.247C177.831 511.641 177.733 512.045 177.492 512.368C177.251 512.685 176.836 512.898 176.448 512.8C175.928 512.62 175.644 510.744 175.244 509.721C175.086 509.316 174.927 508.906 174.791 508.496C174.156 506.615 173.921 504.586 172.98 502.847C172.74 502.398 172.439 501.934 172.483 501.43C172.516 500.911 173.128 500.446 173.533 500.747ZM164.52 506.527C164.575 505.598 165.773 505.887 166.019 506.577C166.401 507.648 166.566 508.627 167.178 509.584C168.294 511.318 168.583 512.362 168.545 514.255C168.54 514.577 168.529 514.911 168.392 515.206C168.064 515.917 166.943 516.07 166.434 515.469C165.975 514.927 166.101 514.123 166.013 513.418C165.909 512.576 165.477 511.821 165.16 511.039C164.542 509.48 164.219 508.179 164.52 506.527Z" fill="#F4865C"/>
</g>
<path d="M418.464 645.241C417.704 644.552 416.982 643.737 416.271 642.709C413.93 639.351 412.087 632.077 414.483 628.391C416.495 625.285 420.449 623.628 423.971 622.512C431.381 620.166 439.141 619.948 446.88 620.456C455.017 620.992 465.96 622.141 469.936 630.043C471.133 632.405 470.718 635.473 470.16 637.94C468.58 644.951 461.88 649.479 454.667 650.666C446.962 651.94 438.08 652.52 430.424 650.808C426.383 649.911 421.51 647.997 418.464 645.241Z" fill="#F79329"/>
<path d="M417.102 622.813C415.593 623.573 413.274 624.952 412.383 626.466C411.792 627.478 411.732 628.052 411.732 629.266C411.732 631.443 412.541 632.613 414.526 633.428C418.07 634.888 419.64 633.177 420.296 637.661C420.766 640.855 424.376 642.003 427.137 641.073C428.619 640.581 429.637 639.427 431.283 639.52C433.437 639.641 434.657 641.166 436.369 642.227C437.67 643.031 439.108 643.266 440.623 643.146C441.941 643.037 443.084 642.238 444.14 641.484C446.891 639.498 449.384 641.265 452.212 641.927C456.056 642.818 458.26 640.434 460.568 637.612C461.924 635.955 463.248 635.922 465.359 635.993C467.07 636.048 468.011 635.632 468.869 634.09C469.695 632.619 469.247 630.18 470.805 629.168C472.063 628.348 473.217 628.304 474.18 626.882C476.509 623.448 473.644 620.336 470.942 618.482C468.919 617.104 466.458 615.764 463.948 615.671C458.998 615.485 454.235 617.071 449.423 617.99C443.932 619.023 438.447 620.172 432.88 620.691C427.613 621.189 421.997 620.358 417.102 622.813Z" fill="#BDCF46"/>
<path d="M439.89 644.967C438.233 644.967 436.729 644.552 435.428 643.748C434.886 643.414 434.4 643.042 433.913 642.676C432.808 641.839 432.13 641.358 431.184 641.303C430.594 641.243 430.211 641.527 429.505 641.921C428.991 642.211 428.406 642.534 427.711 642.769C426.913 643.037 426.071 643.173 425.207 643.173C421.729 643.173 418.983 641.013 418.535 637.918C418.272 636.119 418.272 636.119 417.004 635.911C416.216 635.78 415.139 635.61 413.854 635.08C411.19 633.986 409.949 632.137 409.949 629.266C409.949 627.954 410.009 626.986 410.851 625.564C411.951 623.688 414.422 622.168 416.304 621.216C420.154 619.286 424.266 619.198 428.247 619.116C429.801 619.084 431.266 619.051 432.715 618.914C437.364 618.477 442.078 617.574 446.628 616.699L449.089 616.223C450.379 615.977 451.67 615.682 452.961 615.392C456.51 614.577 460.19 613.724 464.013 613.877C466.414 613.965 469.011 614.987 471.954 617C476.69 620.248 478.073 624.312 475.656 627.883C474.732 629.239 473.638 629.742 472.763 630.147C472.419 630.311 472.085 630.459 471.773 630.661C471.472 630.858 471.336 631.634 471.199 632.384C471.057 633.198 470.893 634.128 470.428 634.959C469.323 636.939 467.89 637.787 465.637 637.787L465.298 637.781C464.981 637.77 464.68 637.765 464.396 637.765C463.056 637.765 462.602 637.951 461.951 638.749C460.169 640.92 457.729 643.906 453.792 643.906C453.152 643.906 452.485 643.83 451.807 643.671C451.047 643.491 450.33 643.25 449.647 643.026C447.886 642.43 446.475 642.009 445.184 642.944C444.107 643.726 442.625 644.792 440.765 644.94C440.476 644.956 440.18 644.967 439.89 644.967ZM431.102 637.727C431.195 637.727 431.294 637.727 431.386 637.732C433.476 637.852 434.859 638.902 436.079 639.832C436.478 640.127 436.877 640.434 437.315 640.707C438.195 641.254 439.272 641.456 440.481 641.363C441.279 641.303 442.1 640.751 443.095 640.034C444.265 639.192 445.496 638.782 446.874 638.782C448.274 638.782 449.554 639.214 450.79 639.624C451.424 639.838 452.026 640.04 452.622 640.177C455.361 640.827 457.019 639.127 459.19 636.474C460.748 634.577 462.405 634.183 464.407 634.183C464.724 634.183 465.063 634.188 465.424 634.205H465.648C466.54 634.205 466.829 634.09 467.316 633.209C467.491 632.903 467.595 632.318 467.694 631.749C467.923 630.464 468.24 628.698 469.837 627.653C470.368 627.314 470.86 627.09 471.286 626.887C472.025 626.554 472.364 626.379 472.708 625.87C474.251 623.595 472.063 621.391 469.947 619.942C467.584 618.329 465.604 617.509 463.898 617.443C460.529 617.323 457.254 618.066 453.776 618.859C452.441 619.166 451.107 619.472 449.772 619.723L447.317 620.194C442.679 621.08 437.889 622.004 433.065 622.458C431.49 622.605 429.888 622.644 428.335 622.677C424.589 622.753 421.051 622.83 417.922 624.394C415.959 625.384 414.433 626.516 413.947 627.352C413.586 627.97 413.536 628.184 413.536 629.245C413.536 630.688 413.881 631.197 415.226 631.755C416.129 632.127 416.872 632.252 417.589 632.362C419.842 632.728 421.488 633.308 422.084 637.382C422.319 639.001 423.922 639.575 425.223 639.575C425.694 639.575 426.164 639.498 426.59 639.356C426.973 639.225 427.361 639.012 427.777 638.782C428.614 638.323 429.68 637.727 431.102 637.727Z" fill="#855C52"/>
<path d="M412.601 618.586C412.672 620.254 413.022 621.96 413.575 623.612C416.145 631.295 424.2 634.691 431.829 635.402C444.435 636.578 467.535 637.355 471.527 621.167C473.332 613.861 466.922 605.789 460.059 603.509C447.295 599.27 429.522 597.739 418.464 607.156C415.708 609.508 412.443 614.796 412.601 618.586Z" fill="#ED6C30"/>
<path d="M440.383 603.755C446.229 603.755 452.818 604.876 458.927 606.905C464.133 608.638 469.361 615.004 468.054 620.314C466.08 628.32 457.467 632.378 442.466 632.378C439.371 632.378 436.008 632.198 432.158 631.842C428.417 631.498 419.443 629.879 416.965 622.474C416.495 621.074 416.227 619.713 416.178 618.433C416.079 616.027 418.622 611.712 420.783 609.874C425.546 605.816 432.147 603.755 440.383 603.755ZM440.383 600.178C432.343 600.178 424.43 602.07 418.464 607.156C415.708 609.508 412.443 614.796 412.601 618.586C412.672 620.254 413.022 621.96 413.575 623.612C416.145 631.295 424.2 634.691 431.829 635.402C434.897 635.692 438.589 635.955 442.466 635.955C454.547 635.955 468.503 633.417 471.527 621.167C473.332 613.861 466.922 605.789 460.059 603.509C454.18 601.556 447.235 600.178 440.383 600.178Z" fill="#855C52"/>
<path d="M413.411 610.12C413.476 611.788 413.816 613.495 414.357 615.146C416.862 622.83 424.687 626.226 432.114 626.937C444.369 628.118 466.846 628.884 470.729 612.702C472.484 605.395 466.25 597.323 459.573 595.043C447.153 590.805 429.866 589.273 419.109 598.691C416.43 601.042 413.258 606.336 413.411 610.12Z" fill="#855C52"/>
<path d="M417.578 609.12C415.648 609.382 413.865 610.104 412.53 611.553C409.987 614.326 410.879 619.28 414.701 620.369C415.872 620.697 417.086 620.418 418.262 620.686C419.399 620.943 420.351 621.654 421.182 622.436C422.719 623.885 425.037 625.159 427.263 624.919C429.418 624.689 431.228 623.251 433.377 623.021C434.389 622.906 434.969 623.092 435.734 623.672C440.268 627.106 444.894 624.022 448.252 620.746C449.455 619.576 450.741 618.57 451.747 617.186C452.403 616.289 454.115 614.402 453.792 613.227C451.129 612.696 448.777 613.812 446.147 613.784C439.387 613.708 432.973 611.531 426.459 609.967C423.884 609.349 420.559 608.704 417.578 609.12Z" fill="#BDCF46"/>
<path d="M418.65 613.008C420.865 613.008 423.233 613.511 425.043 613.948C426.558 614.309 428.105 614.72 429.604 615.119C435.023 616.546 440.629 618.023 446.601 618.094H446.754C447.082 618.094 447.41 618.083 447.722 618.061C447.656 618.121 447.585 618.181 447.519 618.247C447.126 618.608 446.737 618.974 446.354 619.352C443.265 622.387 441.247 623.021 440.104 623.021C439.333 623.021 438.611 622.748 437.84 622.157C436.954 621.479 435.679 620.702 433.727 620.702C433.432 620.702 433.126 620.719 432.797 620.752C431.146 620.937 429.784 621.512 428.576 622.02C427.717 622.381 426.968 622.704 426.361 622.77C426.301 622.775 426.229 622.78 426.164 622.78C425.207 622.78 423.856 622.102 422.795 621.096C421.8 620.155 420.225 618.848 418.054 618.351C417.091 618.132 416.216 618.127 415.511 618.121C415.117 618.116 414.674 618.116 414.493 618.066C413.93 617.902 413.553 617.503 413.378 616.869C413.143 616.054 413.34 615.152 413.865 614.572C414.576 613.79 415.615 613.314 417.036 613.117C417.523 613.041 418.076 613.008 418.65 613.008ZM418.65 609.437C417.933 609.437 417.228 609.475 416.533 609.579C414.504 609.863 412.623 610.618 411.218 612.166C408.543 615.102 409.473 620.347 413.498 621.506C414.734 621.856 416.014 621.561 417.255 621.84C418.453 622.113 419.454 622.868 420.334 623.694C421.822 625.105 423.998 626.357 426.158 626.357C426.35 626.357 426.541 626.346 426.738 626.324C429.008 626.078 430.916 624.558 433.18 624.306C433.372 624.29 433.552 624.279 433.716 624.279C434.471 624.279 435.001 624.498 435.658 625.006C437.14 626.133 438.627 626.598 440.087 626.598C443.325 626.598 446.398 624.301 448.837 621.905C450.106 620.653 451.462 619.592 452.523 618.127C453.207 617.175 455.017 615.179 454.678 613.932C454.136 613.823 453.601 613.773 453.086 613.773C450.943 613.773 448.93 614.517 446.737 614.517H446.622C439.486 614.435 432.737 612.133 425.874 610.476C423.774 609.967 421.182 609.437 418.65 609.437Z" fill="#855C52"/>
<path d="M416.194 591.149C415.363 591.937 414.565 592.883 413.788 594.053C411.218 597.914 409.205 606.276 411.819 610.52C414.029 614.085 418.36 615.988 422.215 617.268C430.342 619.964 438.84 620.216 447.322 619.63C456.237 619.018 468.235 617.7 472.588 608.616C474.371 604.903 472.84 597.384 470.854 593.998C468.377 589.766 463.844 587.195 459.354 585.489C450.292 582.044 439.431 580.955 430.019 583.586C425.125 584.948 419.891 587.633 416.194 591.149Z" fill="#F79329"/>
<path d="M437.905 589.618V589.541C437.905 588.213 439.491 587.731 440.585 587.78C442.154 587.857 443.429 589.613 441.542 590.608C440.596 591.095 437.905 591.248 437.905 589.618ZM441.258 595.896C441.258 595.869 441.258 595.841 441.263 595.82C441.383 594.496 443.013 594.157 444.096 594.31C445.654 594.534 446.759 596.394 444.79 597.209C443.806 597.613 441.115 597.515 441.258 595.896ZM446.557 590.63C446.562 590.602 446.562 590.58 446.562 590.553C446.743 589.235 448.378 588.967 449.45 589.164C451.003 589.448 452.031 591.357 450.024 592.09C449.029 592.456 446.344 592.243 446.557 590.63ZM433.262 595.524C433.224 595.388 433.202 595.251 433.208 595.092C433.24 594.08 434.176 593.545 435.291 593.419C436.746 593.255 438.436 594.321 437.446 595.612C436.522 596.82 433.694 596.908 433.262 595.524ZM450.062 596.301C449.707 595.404 450.183 594.387 452.299 594.387C453.666 594.392 454.782 595.852 453.688 596.952C452.239 598.39 450.505 597.438 450.062 596.301ZM456.608 592.68C456.581 591.291 458.533 591.406 459.381 591.762C459.955 592.002 460.447 592.467 460.453 593.123C460.458 593.616 460.07 594.43 459.551 594.556C458.583 594.797 456.712 593.834 456.614 592.79C456.614 592.757 456.614 592.719 456.608 592.68ZM448.788 601.113C448.755 599.724 450.713 599.839 451.555 600.189C452.129 600.43 452.622 600.895 452.633 601.551C452.638 602.043 452.244 602.858 451.725 602.984C450.762 603.224 448.892 602.262 448.794 601.217C448.788 601.184 448.788 601.146 448.788 601.113ZM437.058 602.765C436.976 602.442 437.052 602.038 437.375 601.545C437.741 600.971 438.583 600.747 439.223 600.665C439.841 600.583 440.503 600.736 440.837 601.299C442.34 603.82 437.484 604.438 437.058 602.765ZM425.256 598.149C425.174 597.832 425.256 597.422 425.573 596.93C425.945 596.361 426.782 596.131 427.422 596.049C428.045 595.967 428.701 596.12 429.04 596.689C430.539 599.205 425.683 599.823 425.256 598.149ZM429.352 591.177C429.265 590.854 429.352 590.449 429.669 589.957C430.036 589.383 430.878 589.159 431.518 589.077C432.141 588.995 432.797 589.148 433.137 589.716C434.635 592.232 429.784 592.845 429.352 591.177Z" fill="#855C52"/>
<path opacity="0.85" d="M284.204 571.759C254.883 572.026 251.617 579.958 251.617 579.958C251.617 579.958 259.953 638.92 260.821 644.703C261.689 650.487 271.597 656.313 284.204 656.313C296.811 656.313 306.72 650.478 307.588 644.703C308.456 638.92 316.895 580.353 316.895 580.353C316.895 580.353 313.526 572.026 284.204 571.759Z" fill="#BAE2FD"/>
<path d="M255.304 605.258C257.547 621.371 260.314 641.231 260.829 644.695C261.697 650.478 271.606 656.305 284.213 656.305C296.82 656.305 306.729 650.47 307.597 644.695C308.104 641.3 310.759 622.291 312.976 606.315C312.976 606.315 291.965 598.512 279.289 600.067C266.613 601.614 255.304 605.258 255.304 605.258Z" fill="url(#paint0_linear_46_1588)"/>
<path d="M312.813 605.034C314.369 608.962 306.428 621.595 283.689 611.944C262.127 602.783 255.304 605.258 255.304 605.258C258.466 602.104 264.817 597.781 280.449 597.781C298.178 597.781 310.94 600.291 312.813 605.034Z" fill="url(#paint1_radial_46_1588)"/>
<path d="M289.851 583.009C287.874 589.909 282.142 608.489 282.142 608.489C282.142 608.489 284.669 610.466 288.871 610.474C293.451 610.474 294.173 608.678 294.173 608.678C294.173 608.678 299.802 590.399 301.719 583.602C301.719 583.602 299.897 583.92 295.351 583.885C290.787 583.859 289.851 583.009 289.851 583.009Z" fill="#9575CD"/>
<path d="M302.243 628.624C304.502 628.624 306.333 626.85 306.333 624.662C306.333 622.474 304.502 620.701 302.243 620.701C299.984 620.701 298.152 622.474 298.152 624.662C298.152 626.85 299.984 628.624 302.243 628.624Z" fill="url(#paint2_radial_46_1588)"/>
<path d="M288.699 627.507C290.958 627.507 292.79 625.733 292.79 623.545C292.79 621.357 290.958 619.584 288.699 619.584C286.44 619.584 284.608 621.357 284.608 623.545C284.608 625.733 286.44 627.507 288.699 627.507Z" fill="url(#paint3_radial_46_1588)"/>
<path d="M280.518 645.021C282.777 645.021 284.608 643.247 284.608 641.059C284.608 638.871 282.777 637.098 280.518 637.098C278.259 637.098 276.427 638.871 276.427 641.059C276.427 643.247 278.259 645.021 280.518 645.021Z" fill="url(#paint4_radial_46_1588)"/>
<path d="M292.248 644.454C294.508 644.454 296.339 642.68 296.339 640.492C296.339 638.304 294.508 636.53 292.248 636.53C289.989 636.53 288.158 638.304 288.158 640.492C288.158 642.68 289.989 644.454 292.248 644.454Z" fill="url(#paint5_radial_46_1588)"/>
<path d="M292.248 644.454C294.508 644.454 296.339 642.68 296.339 640.492C296.339 638.304 294.508 636.53 292.248 636.53C289.989 636.53 288.158 638.304 288.158 640.492C288.158 642.68 289.989 644.454 292.248 644.454Z" fill="url(#paint6_radial_46_1588)"/>
<path d="M288.699 627.507C290.958 627.507 292.79 625.733 292.79 623.545C292.79 621.357 290.958 619.584 288.699 619.584C286.44 619.584 284.608 621.357 284.608 623.545C284.608 625.733 286.44 627.507 288.699 627.507Z" fill="url(#paint7_radial_46_1588)"/>
<path d="M302.243 628.624C304.502 628.624 306.333 626.85 306.333 624.662C306.333 622.474 304.502 620.701 302.243 620.701C299.984 620.701 298.152 622.474 298.152 624.662C298.152 626.85 299.984 628.624 302.243 628.624Z" fill="url(#paint8_radial_46_1588)"/>
<path d="M266.424 644.145C268.503 644.145 270.188 642.509 270.188 640.492C270.188 638.475 268.503 636.84 266.424 636.84C264.345 636.84 262.66 638.475 262.66 640.492C262.66 642.509 264.345 644.145 266.424 644.145Z" fill="url(#paint9_radial_46_1588)"/>
<path d="M266.424 644.145C268.503 644.145 270.188 642.509 270.188 640.492C270.188 638.475 268.503 636.84 266.424 636.84C264.345 636.84 262.66 638.475 262.66 640.492C262.66 642.509 264.345 644.145 266.424 644.145Z" fill="url(#paint10_radial_46_1588)"/>
<path d="M300.103 649.464C302.182 649.464 303.867 647.829 303.867 645.812C303.867 643.795 302.182 642.159 300.103 642.159C298.024 642.159 296.339 643.795 296.339 645.812C296.339 647.829 298.024 649.464 300.103 649.464Z" fill="url(#paint11_radial_46_1588)"/>
<path d="M300.103 649.464C302.182 649.464 303.867 647.829 303.867 645.812C303.867 643.795 302.182 642.159 300.103 642.159C298.024 642.159 296.339 643.795 296.339 645.812C296.339 647.829 298.024 649.464 300.103 649.464Z" fill="url(#paint12_radial_46_1588)"/>
<path d="M276.393 641.059C276.393 638.868 278.06 637.227 280.312 637.098C282.555 636.969 284.643 638.653 284.643 640.845C284.643 643.036 283.233 645.141 280.475 645.03C278.223 644.927 276.393 643.242 276.393 641.059Z" fill="url(#paint13_radial_46_1588)"/>
<path d="M285.743 654.62C288.002 654.62 289.833 652.847 289.833 650.659C289.833 648.471 288.002 646.697 285.743 646.697C283.484 646.697 281.652 648.471 281.652 650.659C281.652 652.847 283.484 654.62 285.743 654.62Z" fill="url(#paint14_radial_46_1588)"/>
<path d="M281.618 650.659C281.618 648.467 283.285 646.826 285.536 646.697C287.779 646.568 289.868 648.252 289.868 650.444C289.868 652.635 288.458 654.741 285.7 654.629C283.448 654.534 281.618 652.85 281.618 650.659Z" fill="url(#paint15_radial_46_1588)"/>
<path d="M274.184 637.63C276.443 637.63 278.275 635.857 278.275 633.669C278.275 631.481 276.443 629.707 274.184 629.707C271.925 629.707 270.094 631.481 270.094 633.669C270.094 635.857 271.925 637.63 274.184 637.63Z" fill="url(#paint16_radial_46_1588)"/>
<path d="M270.059 633.669C270.059 631.477 271.726 629.836 273.978 629.707C276.221 629.578 278.309 631.263 278.309 633.454C278.309 635.645 276.9 637.751 274.141 637.639C271.89 637.545 270.059 635.86 270.059 633.669Z" fill="url(#paint17_radial_46_1588)"/>
<path d="M284.608 636.17C286.868 636.17 288.699 634.396 288.699 632.208C288.699 630.02 286.868 628.246 284.608 628.246C282.349 628.246 280.518 630.02 280.518 632.208C280.518 634.396 282.349 636.17 284.608 636.17Z" fill="url(#paint18_radial_46_1588)"/>
<path d="M280.483 632.208C280.483 630.016 282.151 628.375 284.402 628.246C286.645 628.117 288.733 629.802 288.733 631.993C288.733 634.184 287.324 636.29 284.565 636.178C282.314 636.075 280.483 634.399 280.483 632.208Z" fill="url(#paint19_radial_46_1588)"/>
<path d="M297.121 639.461C299.38 639.461 301.212 637.687 301.212 635.499C301.212 633.311 299.38 631.537 297.121 631.537C294.862 631.537 293.03 633.311 293.03 635.499C293.03 637.687 294.862 639.461 297.121 639.461Z" fill="url(#paint20_radial_46_1588)"/>
<path d="M292.996 635.499C292.996 633.308 294.663 631.666 296.915 631.538C299.158 631.409 301.246 633.093 301.246 635.284C301.246 637.476 299.836 639.581 297.078 639.47C294.826 639.366 292.996 637.691 292.996 635.499Z" fill="url(#paint21_radial_46_1588)"/>
<path d="M266.063 630.713C268.322 630.713 270.154 628.939 270.154 626.751C270.154 624.563 268.322 622.789 266.063 622.789C263.804 622.789 261.972 624.563 261.972 626.751C261.972 628.939 263.804 630.713 266.063 630.713Z" fill="url(#paint22_radial_46_1588)"/>
<path d="M261.938 626.751C261.938 624.559 263.605 622.918 265.857 622.789C268.1 622.66 270.188 624.345 270.188 626.536C270.188 628.727 268.779 630.833 266.02 630.721C263.768 630.627 261.938 628.942 261.938 626.751Z" fill="url(#paint23_radial_46_1588)"/>
<path d="M273.626 652.068C275.885 652.068 277.716 650.294 277.716 648.106C277.716 645.918 275.885 644.145 273.626 644.145C271.366 644.145 269.535 645.918 269.535 648.106C269.535 650.294 271.366 652.068 273.626 652.068Z" fill="url(#paint24_radial_46_1588)"/>
<path d="M269.5 648.115C269.5 645.923 271.168 644.282 273.419 644.153C275.662 644.024 277.75 645.709 277.75 647.9C277.75 650.091 276.341 652.197 273.583 652.085C271.331 651.982 269.5 650.298 269.5 648.115Z" fill="url(#paint25_radial_46_1588)"/>
<path d="M316.328 584.47C316.466 583.67 317.265 581.333 316.775 579.64C316.775 579.64 314.987 587.46 284.265 587.46C253.542 587.46 251.6 579.726 251.6 579.726C251.419 581.281 252.073 583.662 252.201 584.47C252.64 587.091 250.775 587.056 250.775 587.056C250.775 587.056 251.076 589.927 256.232 589.402C257.177 589.308 259.644 588.749 260.976 590.262C262.248 591.705 263.356 593.038 265.548 593.708C268.676 594.653 271.099 592.238 274.949 593.063C277.321 593.57 278.833 595.04 282.881 595.47C287.358 595.951 288.897 593.588 291.303 593.235C295.651 592.599 297.112 594.215 300.705 594.112C304.847 594 306.205 592.006 307.786 590.923C310.123 589.325 312.057 590.313 313.011 590.408C318.167 590.941 317.763 587.073 317.763 587.073C317.763 587.073 315.89 587.082 316.328 584.47Z" fill="#33AC71"/>
<path d="M284.196 570.066C265.728 570.066 251.617 574.492 251.617 579.949C251.617 585.406 265.719 589.832 284.196 589.832C302.672 589.832 316.775 585.406 316.775 579.949C316.775 574.492 302.664 570.066 284.196 570.066ZM295.23 583.206C291.14 583.206 287.831 582.02 287.831 580.568C287.831 579.107 291.148 577.93 295.23 577.93C299.312 577.93 302.629 579.116 302.629 580.568C302.629 582.029 299.312 583.206 295.23 583.206Z" fill="#72E6AC"/>
<path d="M304.726 554.039C301.332 553.128 298.573 554.082 297.8 556.282L290.005 582.51C290.005 582.51 291.595 583.335 296.382 583.335C300.292 583.335 302.423 581.402 302.423 581.402C302.423 581.402 308.499 559.917 308.748 559.075C309.333 557.15 307.691 554.838 304.726 554.039Z" fill="#B39DDB"/>
<path d="M296.382 583.335C300.292 583.335 302.423 581.402 302.423 581.402L303.369 578.059C303.369 578.059 300.077 580.568 296.571 581.384C292.807 582.261 290.005 582.51 290.005 582.51C290.005 582.51 291.595 583.335 296.382 583.335Z" fill="#9575CD"/>
<path d="M307.67 558.989C308.111 557.388 306.555 555.562 304.194 554.911C301.833 554.26 299.562 555.031 299.12 556.632C298.679 558.233 300.234 560.059 302.595 560.71C304.956 561.361 307.228 560.591 307.67 558.989Z" fill="#7E57C2"/>
<path d="M290.908 579.477L291.294 578.179C290.787 578.316 290.246 578.488 289.722 578.712C288.587 579.184 287.977 579.588 287.822 580.405C287.693 581.092 288.364 581.608 288.364 581.608C288.364 581.608 288.329 581.032 288.647 580.705C289.3 580.027 289.679 579.88 290.908 579.477Z" fill="#33AC71"/>
<path opacity="0.79" d="M257.908 599.165C257.169 593.441 262.918 592.857 263.863 603.582L264.207 615.545C264.207 615.545 264.654 618.973 262.969 619.343C260.451 619.893 260.168 616.18 260.168 616.18C260.168 616.18 258.483 603.573 257.908 599.165Z" fill="white"/>
<path d="M430.613 238.434L407.929 239.254C407.929 239.254 406.49 237.816 406.698 237.302C406.906 236.787 425.691 222.109 426.408 222.213C427.124 222.317 428.77 224.062 430.105 223.444C431.439 222.826 430.105 219.233 430.515 218.724C430.925 218.21 445.603 210.308 446.527 209.898C447.451 209.487 448.272 208.563 450.12 208.973C451.969 209.384 456.59 210.204 461.615 213.595C466.641 216.985 471.88 220.884 471.47 223.039C471.06 225.194 430.613 238.434 430.613 238.434Z" fill="#FFE265"/>
<path d="M414.907 264.202C419.938 263.584 466.849 253.527 468.801 253.221C470.754 252.915 471.984 251.066 471.984 249.01C471.984 246.954 471.47 223.039 471.47 223.039C471.47 223.039 469.212 223.755 466.543 224.373C463.874 224.986 442.005 230.323 433.386 232.276C424.767 234.228 411.008 237.821 409.466 237.821C407.923 237.821 406.693 237.307 406.693 237.307C406.693 237.307 407.103 258.657 407.207 260.199C407.311 261.741 408.027 263.584 409.772 264.098C411.516 264.613 412.654 264.476 414.907 264.202Z" fill="#FEB502"/>
<path d="M445.264 214.978C445.264 216.291 446.598 217.16 448.808 217.095C451.219 217.023 451.887 215.591 451.81 214.672C451.733 213.748 450.623 212.938 448.425 212.977C446.385 213.015 445.264 213.824 445.264 214.978Z" fill="#FF8B0D"/>
<path d="M420.627 231.341C417.072 232.538 417.472 235.65 418.511 236.345C419.55 237.039 420.933 237.001 422.552 236.421C424.171 235.841 425.199 235.18 425.363 234.097C425.516 233.069 424.171 230.143 420.627 231.341ZM452.926 222.448C450.541 222.558 447.905 224.27 446.921 225.916C445.882 227.649 445.805 229.689 448.19 230.958C450.574 232.227 459.007 228.995 458.586 226.03C458.165 223.061 455.43 222.334 452.926 222.448ZM444.651 246.429C444.651 246.429 448.036 243.924 448.036 242.158C448.036 240.386 446.576 236.202 440.375 235.885C434.561 235.584 430.979 243.509 434.791 247.588C438.603 251.668 440.911 249.82 442.338 249.437C443.765 249.048 444.651 246.429 444.651 246.429ZM427.906 253.549C427.906 253.549 431.269 251.444 428.688 249.136C426.872 247.512 424.444 248.245 423.208 249.508C421.628 251.127 422.054 253.702 423.515 254.856C424.98 256.016 427.906 253.549 427.906 253.549ZM416.509 244.083C416.509 244.083 416.126 242.874 414.754 242.388C413.211 241.841 410.909 243.76 411.894 245.811C412.779 247.659 414.743 247.118 414.743 247.118L416.509 244.083ZM465.744 245.849C466.078 245.488 468.26 243.913 468.26 242.716C468.26 241.523 464.973 237.838 460.779 240.61C456.584 243.383 458.777 247.577 459.931 248.272C461.085 248.966 464.284 247.43 465.744 245.849Z" fill="#ED6B31"/>
<path d="M421.141 233.227C418.806 234.037 417.926 235.688 418.511 236.345C419.129 237.039 420.474 237.498 422.82 236.651C424.636 235.995 425.555 234.895 425.401 233.916C425.292 233.205 423.258 232.495 421.141 233.227ZM413.354 244.001C412.331 245.28 413.162 246.735 414.125 247.08C415.087 247.424 416.783 246.385 416.668 244.657C416.548 242.923 414.278 242.847 413.354 244.001ZM425.248 250.973C423.05 252.756 422.99 254.501 423.837 255.091C424.428 255.507 426.605 256.371 428.595 254.9C430.072 253.812 430.099 251.526 429.634 250.432C429.246 249.502 427.097 249.47 425.248 250.973ZM438.592 241.255C435.65 244.116 434.95 248.759 437.837 249.852C440.38 250.815 444.033 250.235 446.188 247.583C448.452 244.794 448.693 241.715 447.238 239.899C445.499 237.717 440.867 239.052 438.592 241.255ZM451.963 225.298C448.113 226.605 445.844 229.377 447.807 230.766C449.77 232.15 451.81 231.948 454.041 231.188C456.573 230.329 458.509 228.338 458.586 226.452C458.646 224.904 455.354 224.144 451.963 225.298ZM462.244 243C459.625 245.133 458.859 247.271 459.937 248.272C461.014 249.273 463.595 249.732 465.98 248.08C468.457 246.363 468.637 244.416 468.364 242.847C468.058 241.08 464.935 240.807 462.244 243Z" fill="#FF8B0D"/>
<path d="M280.236 277.369C253.029 273.362 253.487 246.042 253.487 237.778H329.042C329.042 242.031 329.236 272.822 299.876 277.596C295.338 278.333 285.525 278.149 280.236 277.369Z" fill="#292F33"/>
<path d="M325.46 229.438C330.942 217.051 306.947 217.762 300.938 219.7C297.727 219.327 294.497 219.138 291.265 219.136C270.4 219.136 253.487 226.309 253.487 237.9C253.487 240.142 254.134 242.298 255.305 244.324C245.689 257.018 264.74 259.404 275.714 257.013C280.46 258.207 285.714 258.889 291.265 258.889C312.129 258.889 329.042 249.491 329.042 237.902C329.042 234.724 327.734 231.893 325.46 229.438Z" fill="#66757F"/>
<path d="M291.265 255.556C309.674 255.556 324.598 248.591 324.598 240C324.598 231.409 309.674 224.444 291.265 224.444C272.855 224.444 257.931 231.409 257.931 240C257.931 248.591 272.855 255.556 291.265 255.556Z" fill="#FFCC4D"/>
<path d="M260.154 235.556C258.949 230.736 264.598 222.222 275.709 224.444C277.931 222.222 282.016 220 289.042 220C293.487 220 301.514 223.944 297.931 231.111C295.709 235.556 286.82 242.222 275.709 237.778C273.487 240 262.376 244.444 260.154 235.556Z" fill="#77B255"/>
<path d="M277.931 237.778C277.378 237.858 276.885 237.94 276.425 238.024C287.198 241.904 295.758 235.458 297.931 231.111C300.327 226.32 297.529 222.978 294.085 221.282C294.96 225.331 291.578 235.829 277.931 237.778Z" fill="#5C913B"/>
<path d="M262.376 235.556C263.543 232.638 273.487 228.889 284.598 242.222C286.82 244.444 294.789 245.747 297.931 248.889C300.154 251.111 297.931 253.333 289.043 253.333C280.154 253.333 257.931 246.667 262.376 235.556Z" fill="#D99E82"/>
<path d="M264.689 244.484C270.351 250.136 282.889 253.333 289.043 253.333C297.931 253.333 300.154 251.111 297.931 248.889C297.207 248.164 296.22 247.54 295.114 246.978C287.994 250.829 269.158 246.658 264.689 244.484Z" fill="#B27962"/>
<path d="M311.265 242.224C310.8 242.224 310.325 242.149 309.858 241.993L303.191 239.771C302.073 239.398 301.149 238.597 300.621 237.542C300.094 236.488 300.007 235.267 300.38 234.149C300.753 233.031 301.555 232.106 302.609 231.579C303.663 231.052 304.884 230.965 306.002 231.338L312.669 233.56C313.673 233.892 314.526 234.57 315.074 235.474C315.623 236.378 315.831 237.448 315.662 238.491C315.493 239.535 314.957 240.484 314.151 241.168C313.345 241.852 312.322 242.227 311.265 242.224ZM309.042 248.889H304.598C304.009 248.889 303.443 248.655 303.027 248.238C302.61 247.821 302.376 247.256 302.376 246.667C302.376 246.077 302.61 245.512 303.027 245.095C303.443 244.679 304.009 244.444 304.598 244.444H309.042C309.632 244.444 310.197 244.679 310.614 245.095C311.031 245.512 311.265 246.077 311.265 246.667C311.265 247.256 311.031 247.821 310.614 248.238C310.197 248.655 309.632 248.889 309.042 248.889Z" fill="#FFE8B6"/>
<path d="M589.689 358.227C589.689 358.227 591.696 362.394 590.771 364.715C589.843 367.041 587.536 369.026 585.486 369.983C583.436 370.94 581.366 371.497 579.491 371.113C577.615 370.73 576.351 369.802 576.351 369.802C576.351 369.802 570.344 371.582 560.704 373.066C551.064 374.55 539.053 375.996 526.898 375.372C514.744 374.747 510.745 373.959 508.282 372.415C505.819 370.87 508.228 367.23 509.226 366.27C510.224 365.311 537.109 357.611 537.109 357.611L589.689 358.227Z" fill="#FF8E00"/>
<path d="M577.282 363.261L581.259 362.189C581.259 362.189 586.637 359.087 588.912 360.513C591.187 361.94 590.771 364.715 590.771 364.715C590.771 364.715 592.543 362.521 592.549 356.193C592.555 349.865 591.217 344 589.418 339.702C587.62 335.404 585.31 330.254 583.602 327.075C581.894 323.896 577.307 318.372 574.698 315.151C572.096 311.934 565.78 305.992 562.047 304.578C558.313 303.164 555.464 304.547 553.98 306.913C552.497 309.279 552.052 311.252 552.228 312.02C552.404 312.788 553.867 317.406 553.867 317.406L577.282 363.261Z" fill="#F5B03E"/>
<path d="M576.897 349.1L580.394 356.579L579.824 362.959C579.824 362.959 578.343 364.272 577.045 364.647C575.754 365.026 565.592 367.127 558.611 368.162C553.164 368.97 541.572 370.662 541.572 370.662C541.572 370.662 539.236 373.7 537.456 375.745C536.041 377.37 534.137 380.366 532.29 379.09C529.962 377.478 534.385 373.49 532.454 372.347C528.6 370.065 525.927 382.688 521.883 380.076C518.66 377.995 524.241 373.68 523.213 371.703C522.656 370.629 519.516 371.737 515.868 371.194C511.366 370.521 508.48 370.338 507.676 369.092C505.979 366.46 527.503 343.392 530.865 339.295C534.227 335.198 551.404 314.1 552.072 313.465C552.74 312.83 556.686 315.169 556.686 315.169L561.349 321.003L569.168 327.491L575.468 339.764L576.897 349.1Z" fill="#FFCC8A"/>
<path d="M578.976 349.08C580.179 351.302 582.213 353.395 582.146 358.007C582.088 361.849 580.749 364.98 579.408 364.443C578.067 363.905 579.787 359.133 579.185 356.53C578.226 352.345 576.315 350.767 575.697 348.474C575.078 346.18 575.792 341.451 571.699 334.306C566.93 325.978 562.012 324.302 560.731 322.621C559.056 320.425 559.306 318.709 556.921 316.421C554.398 314.005 551.658 313.897 551.658 313.897C551.658 313.897 551.959 311.952 553.284 311.788C554.609 311.624 556.574 312.081 558.928 314.324C561.505 316.775 562.458 320.122 563.023 320.552C563.588 320.982 569.923 324.5 574.596 333.222C579.268 341.945 577.92 347.119 578.976 349.08Z" fill="#CB6C22"/>
<path d="M566.455 350.451L574.906 358.728C574.906 358.728 573.893 360.68 573.451 361.17C571.959 362.823 567.64 364.238 565.856 363.802C564.072 363.366 561.031 361.534 560.317 360.48C559.604 359.426 557.991 355.438 558.331 354.049C558.671 352.66 561.79 347.914 563.035 347.624C564.276 347.339 566.455 350.451 566.455 350.451Z" fill="#DB0D27"/>
<path d="M575.268 351.712C575.806 353.179 576.098 357.19 574.701 359.055C573.301 360.925 567.747 362.239 566.616 361.985C565.485 361.731 562.437 359.896 561.806 359.196C561.174 358.496 559.594 354.454 559.637 353.418C559.683 352.376 561.971 347.867 563.164 347.553C564.356 347.238 567.894 346.329 569.899 346.895C571.907 347.471 574.763 350.325 575.268 351.712Z" fill="#ED6D30"/>
<path d="M544.445 345.189C544.445 345.189 553.501 350 553.268 350.613C553.036 351.226 551.915 353.457 550.301 354.806C549.159 355.767 546.928 357.268 543.332 356.683C539.737 356.097 537.821 353.075 537.452 352.076C536.76 350.209 536.704 348.403 536.964 347.504C537.225 346.605 544.445 345.189 544.445 345.189Z" fill="#DB0D27"/>
<path d="M551.506 343.286C552.54 344.608 554.5 348.595 553.187 350.823C551.868 353.048 548.601 354.734 547.402 354.817C546.204 354.9 542.47 354.776 540.518 353.4C538.559 352.02 536.798 348.63 536.967 347.514C537.136 346.397 538.585 343.723 539.572 342.512C540.559 341.302 545.255 340.132 546.954 340.582C548.649 341.039 550.575 342.095 551.506 343.286Z" fill="#ED6D30"/>
<path d="M538.998 363.956C538.998 363.956 548.306 366.741 548.312 366.972C548.318 367.204 548.556 369.259 547.87 369.747C547.184 370.236 542.99 370.726 541.222 370.991C539.454 371.256 534.701 371.117 534.335 370.787C533.451 370.005 533.683 367.941 533.683 367.941L538.998 363.956Z" fill="#DB0D27"/>
<path d="M540.385 360.172C543.214 359.964 545.971 361.845 547.054 363.519C548.138 365.194 548.489 366.704 548.204 367.52C547.92 368.337 545.794 368.917 545.058 368.987C544.329 369.061 542.135 369.253 542.135 369.253C542.135 369.253 538.841 369.599 537.629 369.716C535.941 369.88 534.202 369.48 533.786 369.296C533.371 369.111 533.034 365.696 535.285 362.833C536.437 361.372 538.006 360.349 540.385 360.172Z" fill="#ED6D30"/>
<path d="M529.338 347.148L532.36 348.891C532.36 348.891 532.156 351.891 529.754 353.892C527.792 355.528 525.612 355.873 522.854 355.054C520.086 354.237 518.921 353.178 518.921 353.178L519.921 351.503L529.338 347.148Z" fill="#DB0D27"/>
<path d="M528.862 341.588C528.862 341.588 532.774 343.443 532.535 348.006C532.347 351.505 529.984 353.042 528.045 353.579C526.106 354.117 523.841 353.843 522.459 353.128C521.078 352.414 519.872 351.514 519.872 351.514C519.872 351.514 522.486 348.474 524.743 345.978C526.101 344.485 528.862 341.588 528.862 341.588Z" fill="#ED6D30"/>
<path d="M554.334 324.554C554.334 324.554 561.253 329.196 561.247 330.188C561.241 331.179 559.246 334.346 558.239 335.468C557.232 336.59 553.393 338.449 549.528 336.101C545.664 333.753 544.914 331.951 545.239 328.125C545.565 324.299 549.144 322.033 549.144 322.033L554.334 324.554Z" fill="#DB0D27"/>
<path d="M556.306 321.288C558.022 321.952 559.768 323.915 560.361 325.281C560.954 326.648 561.722 329.187 561.144 330.351C560.566 331.515 557.591 334.067 556.83 334.433C556.074 334.793 553.467 335.426 552.823 335.351C551.332 335.175 548.332 332.914 547.605 332.003C546.878 331.092 545.611 327.397 546.026 326.131C546.441 324.865 547.279 322.802 549.945 321.346C552.612 319.891 554.709 320.675 556.306 321.288Z" fill="#ED6D30"/>
<path d="M517.539 360.961L524.009 364.639C524.009 364.639 523.79 366.871 522.602 368.2C521.622 369.306 519.545 370.347 517.267 369.905C515.976 369.651 513.416 367.683 513.035 366.812C512.268 365.05 512.886 363.11 513.467 362.278C513.766 361.841 517.539 360.961 517.539 360.961Z" fill="#DB0D27"/>
<path d="M520.59 359.148C522.379 359.924 523.707 361.988 523.991 363.338C524.274 364.688 523.777 365.843 522.672 366.92C520.651 368.891 518.749 368.617 517.835 368.541C516.483 368.426 513.739 366.563 513.277 365.337C512.817 364.121 512.865 362.566 514.167 360.946C515.48 359.324 517.51 357.807 520.59 359.148Z" fill="#ED6D30"/>
<path d="M586.311 342.424C585.437 343.697 583.29 342.039 582.445 341.383C581.771 340.858 580.062 339.576 580.799 338.402C581.535 337.228 583.104 338.221 584.252 339C585.357 339.752 587.009 341.42 586.311 342.424ZM578.848 327.019C578.309 327.879 577.312 327.371 576.695 327.052C576.081 326.726 575.459 326.024 575.832 325.322C576.215 324.618 577.05 324.576 577.936 325.073C578.872 325.584 579.304 326.293 578.848 327.019ZM571.923 325.56C570.469 325.955 569.96 323.89 569.874 323.019C569.794 322.151 570.269 321.192 571.046 321.056C571.823 320.919 572.46 322.001 572.721 322.983C572.982 323.964 572.829 325.31 571.923 325.56ZM565.144 314.656C563.344 315.188 562.863 312.096 562.568 310.967C562.273 309.837 562.278 308.525 563.434 308.188C564.59 307.85 565.445 309.887 565.601 310.93C565.767 311.969 566.3 314.319 565.144 314.656ZM585.65 355.685C584.476 355.286 584.902 353.867 585.307 352.831C585.718 351.773 586.283 350.872 587.135 351.221C588.101 351.616 588.033 352.787 587.637 353.728C587.27 354.568 586.735 356.054 585.65 355.685Z" fill="#FCC12B"/>
<path d="M200.765 356.75C200.765 367.375 186.14 376 168.265 376C150.265 376 135.765 367.375 135.765 356.75C135.765 346.125 150.265 337.5 168.265 337.5C186.14 337.5 200.765 346.125 200.765 356.75Z" fill="#94989B"/>
<path d="M205.765 349.625C205.765 362.625 189.015 373.25 168.265 373.25C147.515 373.25 130.765 362.75 130.765 349.625C130.765 336.5 147.515 326 168.265 326C189.015 326 205.765 336.5 205.765 349.625Z" fill="#C7D7D7"/>
<path d="M199.14 347.5C199.14 338.875 185.265 331.75 168.265 331.75C151.265 331.75 137.39 338.75 137.39 347.5C137.39 352.375 141.765 356.75 148.765 359.625C149.14 360 149.515 360.875 148.89 362.375C147.89 364.875 151.515 368.125 154.765 366.25C158.015 364.375 162.765 365 164.515 366.25C166.265 367.5 171.265 368 173.89 366.25C176.515 364.5 178.515 363.25 182.89 363.25C187.265 363.25 190.64 358.75 192.89 357C196.89 354.375 199.14 351.125 199.14 347.5Z" fill="#BA5327"/>
<path d="M193.765 346C191.89 342.875 187.765 347.25 185.39 346.625C180.14 345.25 184.015 352.875 186.14 353.25C188.64 353.75 195.64 349.125 193.765 346ZM175.14 353.25C171.39 353.125 170.89 352 169.015 353.75C165.015 357.5 177.39 361.75 178.89 360.25C180.64 358.375 178.89 353.375 175.14 353.25ZM182.015 336.625C177.64 336.5 177.39 335.75 175.265 337.875C170.515 342.375 176.765 347.25 178.515 345.375C180.515 343.125 186.265 336.75 182.015 336.625ZM161.14 351.125C157.64 350.75 153.015 353 152.64 356.125C152.265 359.125 154.39 361.375 156.89 360.625C159.39 359.875 160.765 356.125 162.015 354.875C163.265 353.625 163.14 351.375 161.14 351.125Z" fill="#FBBF67"/>
<path d="M167.015 328.25C165.39 328 164.265 331.125 162.64 330.875C161.515 330.75 159.015 328.375 158.015 328.625C156.765 328.875 155.14 332.5 153.89 332.875C152.14 333.25 151.39 329.75 149.64 330.25C145.515 331.375 143.265 338.25 138.64 338.25C135.14 338.375 131.515 350.75 135.265 350.75C142.015 350.75 141.39 354.875 142.265 354.875C143.265 355 143.265 351.625 144.015 351.125C145.015 350.375 147.89 351.75 148.765 350.875C149.515 350.25 148.765 347.5 149.515 346.875C150.39 346.125 153.14 347.75 154.265 347.25C154.89 347 155.14 344.125 155.64 344.625C159.39 348.625 161.89 347 162.64 345.25C163.14 344 160.89 340.875 161.89 339.875C162.89 338.875 165.265 343.25 166.515 342.625C167.015 342.375 166.64 340.75 167.015 340.5C167.765 339.875 170.14 341.75 170.765 340.875C171.14 340.25 169.265 338.5 169.64 337.875C170.14 337.125 172.39 338.625 173.14 338.125C174.39 337.5 175.64 333.5 175.39 332.125C174.765 330 168.765 328.5 167.015 328.25Z" fill="#FFFBE9"/>
<path d="M146.64 333.875C145.14 336 144.64 338.25 145.39 338.875C146.14 339.5 147.89 338.375 149.39 336.25C150.89 334.125 151.39 331.875 150.64 331.25C149.89 330.625 148.14 331.75 146.64 333.875ZM151.515 345.125C149.39 344 147.265 343.75 146.89 344.75C146.515 345.625 147.89 347.375 150.015 348.5C152.14 349.625 154.265 349.875 154.64 348.875C155.015 347.875 153.64 346.25 151.515 345.125ZM139.89 342.25C138.015 343.75 137.015 345.75 137.64 346.5C137.89 346.875 139.39 345.5 139.015 349C138.765 351.25 141.64 349 143.39 347.375C147.39 343.375 144.265 338.75 139.89 342.25ZM160.015 340.875C161.015 340.75 159.515 338 157.765 336.375C155.89 334.75 153.515 334 153.39 335C153.14 337.375 151.89 336.625 151.64 337.125C151.14 338 152.265 340 154.265 341.375C156.14 342.75 158.14 343.25 158.64 342.375C158.765 342 157.765 341 160.015 340.875ZM170.14 334.375C172.015 332.875 173.015 330.875 172.39 330.125C171.765 329.25 167.515 332.375 163.515 331.25C161.265 330.625 159.14 332 159.14 333C159.14 333.75 160.015 334.375 161.39 334.75C160.765 335.875 160.515 336.875 161.015 337.375C161.64 338.125 163.64 337.375 165.39 335.75C165.39 335.375 168.265 335.875 170.14 334.375Z" fill="#E8E1D6"/>
<path d="M149.265 341.5C148.515 339.125 146.265 337.5 146.265 337.5C146.265 337.5 146.515 340 146.765 341.125C144.265 340.125 144.265 335.25 144.265 335.25C144.265 335.25 142.64 336.375 142.765 338.25C140.015 335.875 137.765 337 137.765 337C137.765 337 141.14 339.125 141.64 340.625C139.765 340.75 138.64 341.5 137.89 343.25C137.89 343.25 141.64 341.25 144.515 342.75C143.39 343.75 144.015 346.25 144.015 346.25C148.515 341 151.39 345.75 153.39 344.375C151.89 341.875 149.265 341.5 149.265 341.5ZM175.265 328.875C175.265 328.875 172.64 330.75 171.515 330.5C172.14 328.875 172.14 327.75 171.265 326.625C171.265 326.625 171.015 330.375 169.015 332C168.765 330.75 167.015 330.25 167.015 330.25C168.64 335.875 164.515 336.25 164.515 338.25C166.765 338 167.89 336.125 167.89 336.125C169.64 336.5 171.515 335.375 171.515 335.375C171.515 335.375 169.89 334.625 169.015 334.375C170.515 332.875 173.64 334.625 173.64 334.625C173.64 334.625 173.64 332.875 172.39 332.25C175.14 331 175.265 328.875 175.265 328.875Z" fill="#699635"/>
<g filter="url(#filter2_d_46_1588)">
<path d="M410.264 378C416.83 384.566 422.039 392.361 425.592 400.94C429.146 409.519 430.975 418.714 430.975 428L360.264 428L410.264 378Z" fill="#F3752E"/>
<path d="M360.264 357.289C369.55 357.289 378.745 359.118 387.324 362.672C395.903 366.225 403.698 371.434 410.264 378L360.264 428V357.289Z" fill="#FF684D"/>
<path d="M430.975 428C430.975 437.286 429.146 446.481 425.592 455.06C422.039 463.639 416.83 471.434 410.264 478L360.264 428H430.975Z" fill="#FF684D"/>
<path d="M410.264 478C403.698 484.566 395.903 489.774 387.324 493.328C378.745 496.881 369.55 498.71 360.264 498.71L360.264 428L410.264 478Z" fill="#F3752E"/>
<path d="M310.264 378C316.831 371.434 324.626 366.225 333.205 362.672C341.784 359.118 350.979 357.289 360.264 357.289L360.264 428L310.264 378Z" fill="#F3752E"/>
<path d="M289.554 428C289.554 418.714 291.383 409.519 294.936 400.94C298.49 392.361 303.698 384.566 310.264 378L360.264 428H289.554Z" fill="#FF684D"/>
<path d="M310.264 478C303.698 471.434 298.49 463.639 294.936 455.06C291.383 446.481 289.554 437.286 289.554 428L360.264 428L310.264 478Z" fill="#F3752E"/>
<path d="M360.264 498.711C350.978 498.711 341.783 496.882 333.204 493.328C324.625 489.775 316.83 484.566 310.264 478L360.264 428V498.711Z" fill="#FF684D"/>
</g>
<path d="M318.059 380.31C316.278 383.026 315.839 386.363 316.527 390.216C317.347 394.811 319.83 399.989 323.418 404.864C330.594 414.615 342.177 423.045 352.483 424.322L353.203 424.414L353.667 424.97L391.588 470.746C395.367 471.649 397.808 471.087 399.077 469.83C400.355 468.564 400.945 466.118 399.998 462.238L318.059 380.31L318.059 380.31ZM391.313 380.762L370.122 401.953C367.778 404.296 367.758 406.875 368.968 409.692L369.469 410.858L368.553 411.737L361.436 418.524L367.217 424.304L373.973 417.169L374.852 416.241L376.018 416.748C378.98 418.024 381.788 417.972 383.965 415.796L405.156 394.604L402.403 391.852L388.621 405.627L386.046 403.046L399.821 389.271L396.886 386.334L383.11 400.11L380.528 397.528L394.304 383.753L391.313 380.762ZM351.463 428.04L315.251 462.592C314.357 466.293 314.93 468.605 316.136 469.8C317.343 470.995 319.677 471.543 323.332 470.66L357.164 434.924L351.463 428.04Z" fill="black"/>
<defs>
<filter id="filter0_d_46_1588" x="38.3642" y="106.1" width="643.8" height="643.8" filterUnits="userSpaceOnUse" color-interpolation-filters="sRGB">
<feFlood flood-opacity="0" result="BackgroundImageFix"/>
<feColorMatrix in="SourceAlpha" type="matrix" values="0 0 0 0 0 0 0 0 0 0 0 0 0 0 0 0 0 0 127 0" result="hardAlpha"/>
<feOffset/>
<feGaussianBlur stdDeviation="8.7"/>
<feComposite in2="hardAlpha" operator="out"/>
<feColorMatrix type="matrix" values="0 0 0 0 0 0 0 0 0 0 0 0 0 0 0 0 0 0 1 0"/>
<feBlend mode="normal" in2="BackgroundImageFix" result="effect1_dropShadow_46_1588"/>
<feBlend mode="normal" in="SourceGraphic" in2="effect1_dropShadow_46_1588" result="shape"/>
</filter>
<filter id="filter1_d_46_1588" x="29.093" y="31.4647" width="658.667" height="204.579" filterUnits="userSpaceOnUse" color-interpolation-filters="sRGB">
<feFlood flood-opacity="0" result="BackgroundImageFix"/>
<feColorMatrix in="SourceAlpha" type="matrix" values="0 0 0 0 0 0 0 0 0 0 0 0 0 0 0 0 0 0 127 0" result="hardAlpha"/>
<feOffset dy="4"/>
<feGaussianBlur stdDeviation="2"/>
<feComposite in2="hardAlpha" operator="out"/>
<feColorMatrix type="matrix" values="0 0 0 0 0 0 0 0 0 0 0 0 0 0 0 0 0 0 0.25 0"/>
<feBlend mode="normal" in2="BackgroundImageFix" result="effect1_dropShadow_46_1588"/>
<feBlend mode="normal" in="SourceGraphic" in2="effect1_dropShadow_46_1588" result="shape"/>
</filter>
<filter id="filter2_d_46_1588" x="249.554" y="317.289" width="221.421" height="221.421" filterUnits="userSpaceOnUse" color-interpolation-filters="sRGB">
<feFlood flood-opacity="0" result="BackgroundImageFix"/>
<feColorMatrix in="SourceAlpha" type="matrix" values="0 0 0 0 0 0 0 0 0 0 0 0 0 0 0 0 0 0 127 0" result="hardAlpha"/>
<feOffset/>
<feGaussianBlur stdDeviation="20"/>
<feComposite in2="hardAlpha" operator="out"/>
<feColorMatrix type="matrix" values="0 0 0 0 0 0 0 0 0 0 0 0 0 0 0 0 0 0 0.66 0"/>
<feBlend mode="normal" in2="BackgroundImageFix" result="effect1_dropShadow_46_1588"/>
<feBlend mode="normal" in="SourceGraphic" in2="effect1_dropShadow_46_1588" result="shape"/>
</filter>
<linearGradient id="paint0_linear_46_1588" x1="284.136" y1="611.255" x2="284.136" y2="630.376" gradientUnits="userSpaceOnUse">
<stop stop-color="#EEB68E"/>
<stop offset="1" stop-color="#F5CEA7"/>
</linearGradient>
<radialGradient id="paint1_radial_46_1588" cx="0" cy="0" r="1" gradientUnits="userSpaceOnUse" gradientTransform="translate(272.407 608.533) rotate(18.7647) scale(57.6681 39.8173)">
<stop stop-color="#C48C63"/>
<stop offset="1" stop-color="#EEB68E"/>
</radialGradient>
<radialGradient id="paint2_radial_46_1588" cx="0" cy="0" r="1" gradientUnits="userSpaceOnUse" gradientTransform="translate(303.218 622.326) scale(4.87094 4.72432)">
<stop stop-color="#6D4C41"/>
<stop offset="0.999" stop-color="#3D3832"/>
</radialGradient>
<radialGradient id="paint3_radial_46_1588" cx="0" cy="0" r="1" gradientUnits="userSpaceOnUse" gradientTransform="translate(289.669 621.216) scale(4.87094 4.72432)">
<stop stop-color="#6D4C41"/>
<stop offset="0.999" stop-color="#3D3832"/>
</radialGradient>
<radialGradient id="paint4_radial_46_1588" cx="0" cy="0" r="1" gradientUnits="userSpaceOnUse" gradientTransform="translate(281.494 638.721) scale(4.87094 4.72432)">
<stop stop-color="#6D4C41"/>
<stop offset="0.999" stop-color="#3D3832"/>
</radialGradient>
<radialGradient id="paint5_radial_46_1588" cx="0" cy="0" r="1" gradientUnits="userSpaceOnUse" gradientTransform="translate(293.223 638.154) scale(4.87094 4.72432)">
<stop stop-color="#6D4C41"/>
<stop offset="0.999" stop-color="#3D3832"/>
</radialGradient>
<radialGradient id="paint6_radial_46_1588" cx="0" cy="0" r="1" gradientUnits="userSpaceOnUse" gradientTransform="translate(292.803 640.284) scale(4.84516 4.69932)">
<stop offset="0.528" stop-color="#F5CEA7" stop-opacity="0"/>
<stop offset="1" stop-color="#F5CEA7"/>
</radialGradient>
<radialGradient id="paint7_radial_46_1588" cx="0" cy="0" r="1" gradientUnits="userSpaceOnUse" gradientTransform="translate(288.926 623.437) scale(4.87094 4.72432)">
<stop offset="0.567" stop-color="#F5CEA7" stop-opacity="0"/>
<stop offset="1" stop-color="#F5CEA7"/>
</radialGradient>
<radialGradient id="paint8_radial_46_1588" cx="0" cy="0" r="1" gradientUnits="userSpaceOnUse" gradientTransform="translate(302.474 624.547) scale(4.87094 4.72432)">
<stop offset="0.567" stop-color="#F5CEA7" stop-opacity="0"/>
<stop offset="1" stop-color="#F5CEA7"/>
</radialGradient>
<radialGradient id="paint9_radial_46_1588" cx="0" cy="0" r="1" gradientUnits="userSpaceOnUse" gradientTransform="translate(267.323 638.338) scale(4.48594 4.35091)">
<stop stop-color="#6D4C41"/>
<stop offset="0.999" stop-color="#3D3832"/>
</radialGradient>
<radialGradient id="paint10_radial_46_1588" cx="0" cy="0" r="1" gradientUnits="userSpaceOnUse" gradientTransform="translate(266.532 640.099) scale(4.74547 4.35587)">
<stop offset="0.567" stop-color="#F5CEA7" stop-opacity="0"/>
<stop offset="1" stop-color="#F5CEA7"/>
</radialGradient>
<radialGradient id="paint11_radial_46_1588" cx="0" cy="0" r="1" gradientUnits="userSpaceOnUse" gradientTransform="translate(300.998 643.659) scale(4.48593 4.35091)">
<stop stop-color="#6D4C41"/>
<stop offset="0.999" stop-color="#3D3832"/>
</radialGradient>
<radialGradient id="paint12_radial_46_1588" cx="0" cy="0" r="1" gradientUnits="userSpaceOnUse" gradientTransform="translate(300.207 645.419) scale(4.74547 4.35587)">
<stop offset="0.567" stop-color="#F5CEA7" stop-opacity="0"/>
<stop offset="1" stop-color="#F5CEA7"/>
</radialGradient>
<radialGradient id="paint13_radial_46_1588" cx="0" cy="0" r="1" gradientUnits="userSpaceOnUse" gradientTransform="translate(280.456 641.3) scale(5.18891 4.7629)">
<stop offset="0.567" stop-color="#F5CEA7" stop-opacity="0"/>
<stop offset="1" stop-color="#F5CEA7"/>
</radialGradient>
<radialGradient id="paint14_radial_46_1588" cx="0" cy="0" r="1" gradientUnits="userSpaceOnUse" gradientTransform="translate(286.717 648.323) scale(4.87094 4.72432)">
<stop stop-color="#6D4C41"/>
<stop offset="0.999" stop-color="#3D3832"/>
</radialGradient>
<radialGradient id="paint15_radial_46_1588" cx="0" cy="0" r="1" gradientUnits="userSpaceOnUse" gradientTransform="translate(285.678 650.897) scale(4.97148 4.61553)">
<stop offset="0.567" stop-color="#F5CEA7" stop-opacity="0"/>
<stop offset="1" stop-color="#F5CEA7"/>
</radialGradient>
<radialGradient id="paint16_radial_46_1588" cx="0" cy="0" r="1" gradientUnits="userSpaceOnUse" gradientTransform="translate(275.157 631.337) scale(4.87094 4.72432)">
<stop stop-color="#6D4C41"/>
<stop offset="0.999" stop-color="#3D3832"/>
</radialGradient>
<radialGradient id="paint17_radial_46_1588" cx="0" cy="0" r="1" gradientUnits="userSpaceOnUse" gradientTransform="translate(274.119 633.915) scale(5.18891 4.7629)">
<stop offset="0.567" stop-color="#F5CEA7" stop-opacity="0"/>
<stop offset="1" stop-color="#F5CEA7"/>
</radialGradient>
<radialGradient id="paint18_radial_46_1588" cx="0" cy="0" r="1" gradientUnits="userSpaceOnUse" gradientTransform="translate(285.582 629.872) scale(4.87094 4.72432)">
<stop stop-color="#6D4C41"/>
<stop offset="0.999" stop-color="#3D3832"/>
</radialGradient>
<radialGradient id="paint19_radial_46_1588" cx="0" cy="0" r="1" gradientUnits="userSpaceOnUse" gradientTransform="translate(284.544 632.45) scale(4.91992 4.7059)">
<stop offset="0.567" stop-color="#F5CEA7" stop-opacity="0"/>
<stop offset="1" stop-color="#F5CEA7"/>
</radialGradient>
<radialGradient id="paint20_radial_46_1588" cx="0" cy="0" r="1" gradientUnits="userSpaceOnUse" gradientTransform="translate(298.098 633.162) scale(4.87094 4.72432)">
<stop stop-color="#6D4C41"/>
<stop offset="0.999" stop-color="#3D3832"/>
</radialGradient>
<radialGradient id="paint21_radial_46_1588" cx="0" cy="0" r="1" gradientUnits="userSpaceOnUse" gradientTransform="translate(296.897 635.199) scale(5.09437 4.67613)">
<stop offset="0.507" stop-color="#F5CEA7" stop-opacity="0"/>
<stop offset="1" stop-color="#F5CEA7"/>
</radialGradient>
<radialGradient id="paint22_radial_46_1588" cx="0" cy="0" r="1" gradientUnits="userSpaceOnUse" gradientTransform="translate(267.038 624.418) scale(4.87094 4.72432)">
<stop stop-color="#6D4C41"/>
<stop offset="0.999" stop-color="#3D3832"/>
</radialGradient>
<radialGradient id="paint23_radial_46_1588" cx="0" cy="0" r="1" gradientUnits="userSpaceOnUse" gradientTransform="translate(265.999 626.995) scale(5.18891 5.02338)">
<stop offset="0.567" stop-color="#F5CEA7" stop-opacity="0"/>
<stop offset="1" stop-color="#F5CEA7"/>
</radialGradient>
<radialGradient id="paint24_radial_46_1588" cx="0" cy="0" r="1" gradientUnits="userSpaceOnUse" gradientTransform="translate(274.603 645.775) scale(4.87094 4.72432)">
<stop stop-color="#6D4C41"/>
<stop offset="0.999" stop-color="#3D3832"/>
</radialGradient>
<radialGradient id="paint25_radial_46_1588" cx="0" cy="0" r="1" gradientUnits="userSpaceOnUse" gradientTransform="translate(273.564 648.623) scale(5.14336 4.99009)">
<stop offset="0.567" stop-color="#F5CEA7" stop-opacity="0"/>
<stop offset="1" stop-color="#F5CEA7"/>
</radialGradient>
<clipPath id="clip0_46_1588">
<rect width="70" height="70" fill="white" transform="translate(138.265 468)"/>
</clipPath>
</defs>
</svg>
