<svg width="93" height="104" viewBox="0 0 93 104" fill="currentColor"
    xmlns="http://www.w3.org/2000/svg">
    <path fill-rule="evenodd" clip-rule="evenodd" d="M40.1954 102.456C42.0979 103.406 44.1193 104 46.1408 104C48.2811 104 50.1836 103.525 51.9672 102.456L86.6884 82.6118C90.2556 80.5918 92.5148 76.7894 92.5148 72.6306L92.6338 32.4679C92.6338 28.3091 90.3745 24.5067 86.8073 22.3678L52.2051 2.2865C48.7567 0.26648 44.2382 0.26648 40.671 2.2865L5.83096 22.249C2.26373 24.269 0.00447591 28.0714 0.00447591 32.2303V72.2741C-0.114432 76.433 2.14482 80.3542 5.71206 82.3742L40.1954 102.456ZM41.2655 3.35592C42.8113 2.40532 44.595 1.93002 46.3786 1.93002C48.2811 1.93002 50.0647 2.40532 51.6105 3.35592L86.2127 23.4373C89.4232 25.3384 91.4447 28.7843 91.4447 32.5867L91.3258 72.6306C91.3258 76.433 89.3043 79.8789 86.0938 81.6612L51.3727 101.505C48.1622 103.406 44.0004 103.406 40.7899 101.505L6.18769 81.4236C3.09608 79.5224 1.07465 76.0765 1.07465 72.3929L1.19356 32.3491C1.19356 28.5467 3.21499 25.1008 6.4255 23.3184L41.2655 3.35592ZM7.73349 31.6361L41.2655 51.1234C43.5248 52.4304 44.8328 54.8069 44.7139 57.3022L44.595 96.039C44.595 97.1084 44.0004 98.1778 43.0491 98.6531C42.0979 99.2473 41.0277 99.2473 40.0764 98.6531L7.37677 79.6412C4.76079 78.0965 3.09608 75.2447 3.09608 72.1553L3.21499 34.2503C3.21499 33.1809 3.80953 32.1114 4.76079 31.6361C5.71206 31.042 6.78223 31.042 7.73349 31.6361ZM8.56585 45.6574C8.44694 48.5092 10.2306 52.0739 12.6087 53.6187C14.9869 55.1634 17.0083 54.094 17.1272 51.2422C17.2461 48.3904 15.4625 44.8257 13.0843 43.2809C10.7062 41.7362 8.68476 42.8056 8.56585 45.6574ZM19.1487 63.0058C19.0297 65.8576 20.8134 69.4223 23.1915 70.967C25.5697 72.5118 27.5911 71.4423 27.71 68.5905C27.8289 65.7388 26.0453 62.174 23.6672 60.6293C21.289 59.0846 19.2676 60.154 19.1487 63.0058ZM29.7315 80.3542C29.6126 83.206 31.3962 86.7707 33.7743 88.3154C36.1525 89.8601 38.1739 88.7907 38.2928 85.9389C38.4117 83.0871 36.6281 79.5224 34.25 77.9777C31.8718 76.433 29.8504 77.5024 29.7315 80.3542ZM82.8833 24.1502L50.6593 5.37593C48.0433 3.83121 44.7139 3.83121 42.0979 5.37593L9.75493 23.9125C8.80366 24.3878 8.20912 25.4573 8.20912 26.5267C8.20912 27.5961 8.80366 28.5467 9.63602 29.1408L42.5735 48.2716C44.8328 49.5786 47.5676 49.5786 49.708 48.2716L82.7644 29.3785C83.7157 28.9032 84.3102 27.8338 84.3102 26.7643C84.4291 25.6949 83.8346 24.6255 82.8833 24.1502ZM50.7782 28.1902C48.2811 29.6161 44.3571 29.6161 41.8601 28.1902C39.363 26.7643 39.4819 24.5067 41.979 23.0808C44.476 21.6549 48.4 21.6549 50.8971 23.0808C53.2752 24.5067 53.2752 26.8832 50.7782 28.1902ZM84.7858 32.1114C85.7371 31.5173 86.8073 31.5173 87.7585 32.1114C88.7098 32.5867 89.3043 33.6562 89.3043 34.7256L89.1854 72.5117C89.1854 75.3635 87.6396 77.9777 85.1425 79.4036L52.324 98.1778C51.3727 98.772 50.3025 98.772 49.3513 98.1778C48.4 97.5837 47.8055 96.6331 47.8055 95.5637L47.9244 57.3022C47.9244 54.8069 49.2324 52.4304 51.4916 51.1233L84.7858 32.1114ZM54.9399 82.6118C54.9399 85.4636 56.9614 86.6519 59.4584 85.226C61.9555 83.8001 63.9769 80.3542 63.9769 77.5024C63.9769 74.6506 61.9555 73.4623 59.4584 74.8882C56.9614 76.3141 54.9399 79.76 54.9399 82.6118ZM72.3005 52.6681C72.3005 55.5199 74.3219 56.7081 76.819 55.2822C79.3161 53.9751 81.3375 50.4104 81.3375 47.5586C81.3375 44.7068 79.3161 43.5186 76.819 44.9445C74.3219 46.3704 72.3005 49.8163 72.3005 52.6681Z" fill="white"/>
</svg>
