<svg width="128" height="128" viewBox="0 0 128 128" fill="none" xmlns="http://www.w3.org/2000/svg">
<path d="M55.9126 72C55.5654 72 55.2348 71.987 54.8959 71.9675C51.6392 71.7209 49.1099 69.449 49.0025 66.6709C48.9446 65.0416 49.8952 63.5292 51.6144 62.5296C52.0443 62.2764 52.7551 61.9065 53.5486 61.6728C53.3916 61.3807 53.251 61.0496 53.1353 60.6861C52.8212 59.6865 52.9204 58.7129 53.4329 57.8625C54.2842 56.441 56.1192 55.4738 58.5989 55.1103C59.1196 55.0389 59.69 55 60.2768 55C61.3679 55 64.0873 55.1558 65.7322 56.5903C66.2942 57.0771 66.6579 57.6548 66.815 58.2974C69.5178 57.7976 72.5265 58.7648 73.9482 60.6277C75.6592 62.8736 75.403 66.2619 72.2868 67.7354C70.8982 68.391 69.3938 68.6896 67.5341 68.6896C67.2282 68.6896 67.0216 68.7026 66.7984 68.7155C65.9553 68.7415 65.1288 68.7415 64.4758 68.6247C64.2386 68.5798 64.0086 68.5145 63.7897 68.4299C63.7732 68.4559 63.7567 68.4754 63.7401 68.5013C62.988 69.4425 62.0126 70.4876 60.0702 71.0783C59.9049 71.1302 59.7478 71.2016 59.599 71.273C59.2271 71.4353 58.8469 71.5976 58.4336 71.7014C57.6814 71.9026 56.8383 72 55.9126 72ZM54.9372 64.4509C54.9042 64.4704 54.4082 64.6586 53.904 64.9507C53.1932 65.3597 52.8212 65.9439 52.8378 66.593C52.8708 67.6835 53.7966 68.8583 55.2596 68.9752C55.9539 69.0206 56.6895 68.9947 57.2103 68.8583C57.3921 68.8129 57.5492 68.7285 57.7145 68.6571C58.0286 68.5143 58.3427 68.3845 58.6816 68.2806C59.3924 68.0664 59.8222 67.7419 60.5 66.8916C60.5248 66.8526 60.5496 66.8007 60.5827 66.7423C60.7645 66.4177 61.0703 65.866 61.7977 65.4895C62.2936 65.2299 62.8226 65.0935 63.3847 65.0935C64.2526 65.0935 64.8891 65.4246 65.261 65.6128C65.3271 65.6453 65.3933 65.6907 65.4677 65.7102C65.4925 65.7102 65.666 65.7232 65.8809 65.7232C66.1124 65.7232 66.3603 65.7102 66.6 65.6972C66.8893 65.6842 67.1786 65.6712 67.4431 65.6712C68.6913 65.6712 69.5261 65.5155 70.3113 65.1455C71.3776 64.6392 71.3776 63.1073 70.6667 62.1726C70.0055 61.3028 68.4516 60.9263 67.2448 61.3352L67.1786 61.3872C66.7075 61.6468 65.8892 62.0687 64.9221 61.9714C64.6192 61.9392 64.3276 61.8594 64.0649 61.7367C63.8022 61.614 63.5736 61.451 63.393 61.2573C62.7565 60.5758 62.9301 59.7969 63.0293 59.3295L63.0541 59.1672C63.1037 58.7908 62.9549 58.6544 62.8805 58.596C62.4755 58.2455 61.4258 58.0053 60.2686 58.0053C59.9131 58.0053 59.5743 58.0313 59.285 58.0703C58.0864 58.239 57.1937 58.6415 56.8962 59.1413C56.7309 59.4139 56.7805 59.7385 56.8549 59.9656C57.0036 60.4525 57.1442 60.6018 57.1524 60.6082C57.483 60.764 58.103 61.0886 58.4419 61.7636C58.9213 62.7048 58.632 63.3604 58.3013 63.7434C58.0368 64.0485 57.4169 64.5548 56.1853 64.5548C55.8795 64.5548 55.5158 64.5223 55.1852 64.4769C55.0943 64.4704 55.0116 64.4574 54.9372 64.4509Z" fill="#757F3F"/>
<path d="M41.05 41.3C40.9 38.88 42 36.21 44.97 33.51C47.11 31.57 49.5 30.61 52.39 30.53C58.98 30.35 65.55 32.81 64.97 40.74C64.74 44.04 61.09 47.2 58.41 48.69C55.15 50.5 51.26 51.01 47.66 49.96C46.04 49.48 43.84 48.46 42.73 47.16C41.56 45.8 41.17 43.04 41.05 41.3Z" fill="#ED6C30"/>
<path d="M53.56 36.35L52.11 38.67L55.59 38.96L56.75 36.35L55.01 34.61L53.56 36.35ZM48.79 40.75L46.06 40.92L47.84 43.91L50.63 43.35L51.05 40.92L48.79 40.75ZM58.02 42.57L55.23 42.56L57.26 45.9L60.08 45.48L60.34 42.91L58.02 42.57ZM48.26 47.49L49.71 46.55L50.65 47.42L50.14 48.21L49.05 48.43L48.26 47.49ZM59.7 39.52L59.27 41.04L61.08 41.11L61.15 39.67L59.7 39.52ZM60.64 34.16C60.64 34.16 59.34 35.39 59.55 35.46C59.77 35.53 61.58 35.75 61.58 35.75L62.3 34.59L60.64 34.16ZM49.63 34.45C49.63 34.45 47.96 36.19 48.4 36.19C48.83 36.19 50.07 35.97 50.07 35.97L50.79 34.81L49.63 34.45ZM42.9 43.07L42.25 44.23L43.26 45.32C43.26 45.32 43.91 44.52 43.91 44.23C43.91 43.94 43.62 43.07 43.62 43.07H42.9Z" fill="white"/>
<path d="M75.86 58.63C76.11 56.23 77.63 53.77 81 51.6C83.43 50.04 85.94 49.48 88.8 49.88C95.34 50.78 101.41 54.29 99.54 62.01C98.76 65.22 94.65 67.74 91.76 68.76C88.24 70.02 84.32 69.87 80.95 68.24C79.43 67.51 77.43 66.13 76.54 64.67C75.61 63.15 75.67 60.37 75.86 58.63Z" fill="#ED6C30"/>
<path d="M84.65 54.69L85.07 57.39L87.89 55.33L87.07 52.6L84.61 52.42L84.65 54.69ZM83.92 61.14L81.96 63.04L85.27 64.15L87.02 61.89L85.74 59.79L83.92 61.14ZM92.09 56.48L89.98 58.3L93.69 59.5L95.55 57.33L94.07 55.22L92.09 56.48ZM91.84 63.79L93.29 62.84L94.23 63.72L93.73 64.51L92.64 64.73L91.84 63.79ZM84.52 65.62C84.52 65.62 83.22 66.85 83.43 66.92C83.65 66.99 85.46 67.21 85.46 67.21L86.18 66.05L84.52 65.62ZM79.66 56.52L79.01 57.68L80.02 58.77C80.02 58.77 80.67 57.97 80.67 57.68C80.67 57.39 80.38 56.52 80.38 56.52H79.66Z" fill="white"/>
<path d="M54.1 25.35C57 24.23 59.5 25.61 62.37 26.65C64.42 27.4 66.4 28.33 68.37 29.25C74.44 32.1 80.51 34.9401 86.57 37.79C89.53 39.18 92.5 40.58 95.12 42.54C98.21 44.85 100.89 47.5 103.33 50.49C105.29 52.88 107.25 57.13 106.73 60.19C106.44 61.21 105.64 60.6101 105.47 60.25C102.907 55.1257 99.139 50.6992 94.49 47.35C88.73 43.22 81.88 40.92 75.09 38.86C73.4 38.34 71.67 37.83 70.18 36.88C68.51 35.82 67.22 34.2801 65.72 32.9901C62.18 29.9301 57.44 28.29 52.76 28.51C51.77 28.6 52.31 26.12 54.1 25.35Z" fill="#DDA450"/>
<path fill-rule="evenodd" clip-rule="evenodd" d="M47.31 28.3099C48.41 15.9399 56.21 8.31994 69.08 10.5899C73.92 11.4499 78.5 12.8699 81.65 14.0199C89.87 17.0599 97.65 21.3799 104.55 26.7599C118.19 37.3999 128.76 53.2299 126.89 71.0699C126.72 72.7099 126.45 74.3399 126.09 75.9499C125.127 80.274 121.268 81.6603 117.51 83.0099C117.131 83.146 116.754 83.2817 116.38 83.4199C109.24 86.0699 102.04 88.5799 94.82 91.0399C91.88 92.0333 88.94 93.0202 86 94.0059V90.5H65V90.6208V90.6556V91.2703C64.9075 91.2031 64.837 91.0467 64.7551 90.865C64.5581 90.4279 64.2949 89.8441 63.5 90C62.6035 90.1779 61.7937 90.117 61.036 90.06C59.5794 89.9505 58.3157 89.8554 57 91.5C55 92.5 54.5 92 54 91.5C53.7353 91.2353 53.3012 90.9413 52.8926 90.6646C52.5292 90.4185 52.186 90.186 52 90C51.2692 89.2692 50.947 88.5073 50.723 87.9776C50.6405 87.7826 50.5714 87.619 50.5 87.5C49.7637 86.2728 49.5093 86.0095 49.3228 85.7046C49.1294 85.3883 49.0091 85.0274 48.5 83.5C46.5 78 42.5 79.5 40.57 83C38.3607 87.0065 27.59 85.02 26.48 81.5C23.5536 72.2888 17.6638 74.6723 14.9375 75.7756C12.9311 76.5876 12.638 76.7062 16.5 71C17.7607 69.1464 18.7099 67.6938 19.5412 66.4215C21.5981 63.2736 22.9334 61.2301 26.48 56.9499C31.1847 51.2617 35.8021 45.2375 40.3266 39.3345C41.3222 38.0355 42.3134 36.7423 43.3 35.4599C43.5064 35.1928 43.721 34.9216 43.9388 34.6462C45.4415 32.7471 47.1004 30.6506 47.31 28.3099Z" fill="#FFE082"/>
<path d="M55.9126 72C55.5654 72 55.2348 71.987 54.8959 71.9675C51.6392 71.7209 49.1099 69.449 49.0025 66.6709C48.9446 65.0416 49.8952 63.5292 51.6144 62.5296C52.0443 62.2764 52.7551 61.9065 53.5486 61.6728C53.3916 61.3807 53.251 61.0496 53.1353 60.6861C52.8212 59.6865 52.9204 58.7129 53.4329 57.8625C54.2842 56.441 56.1192 55.4738 58.5989 55.1103C59.1196 55.0389 59.69 55 60.2768 55C61.3679 55 64.0873 55.1558 65.7322 56.5903C66.2942 57.0771 66.6579 57.6548 66.815 58.2974C69.5178 57.7976 72.5265 58.7648 73.9482 60.6277C75.6592 62.8736 75.403 66.2619 72.2868 67.7354C70.8982 68.391 69.3938 68.6896 67.5341 68.6896C67.2282 68.6896 67.0216 68.7026 66.7984 68.7155C65.9553 68.7415 65.1288 68.7415 64.4758 68.6247C64.2386 68.5798 64.0086 68.5145 63.7897 68.4299C63.7732 68.4559 63.7567 68.4754 63.7401 68.5013C62.988 69.4425 62.0126 70.4876 60.0702 71.0783C59.9049 71.1302 59.7478 71.2016 59.599 71.273C59.2271 71.4353 58.8469 71.5976 58.4336 71.7014C57.6814 71.9026 56.8383 72 55.9126 72ZM54.9372 64.4509C54.9042 64.4704 54.4082 64.6586 53.904 64.9507C53.1932 65.3597 52.8212 65.9439 52.8378 66.593C52.8708 67.6835 53.7966 68.8583 55.2596 68.9752C55.9539 69.0206 56.6895 68.9947 57.2103 68.8583C57.3921 68.8129 57.5492 68.7285 57.7145 68.6571C58.0286 68.5143 58.3427 68.3845 58.6816 68.2806C59.3924 68.0664 59.8222 67.7419 60.5 66.8916C60.5248 66.8526 60.5496 66.8007 60.5827 66.7423C60.7645 66.4177 61.0703 65.866 61.7977 65.4895C62.2936 65.2299 62.8226 65.0935 63.3847 65.0935C64.2526 65.0935 64.8891 65.4246 65.261 65.6128C65.3271 65.6453 65.3933 65.6907 65.4677 65.7102C65.4925 65.7102 65.666 65.7232 65.8809 65.7232C66.1124 65.7232 66.3603 65.7102 66.6 65.6972C66.8893 65.6842 67.1786 65.6712 67.4431 65.6712C68.6913 65.6712 69.5261 65.5155 70.3113 65.1455C71.3776 64.6392 71.3776 63.1073 70.6667 62.1726C70.0055 61.3028 68.4516 60.9263 67.2448 61.3352L67.1786 61.3872C66.7075 61.6468 65.8892 62.0687 64.9221 61.9714C64.6192 61.9392 64.3276 61.8594 64.0649 61.7367C63.8022 61.614 63.5736 61.451 63.393 61.2573C62.7565 60.5758 62.9301 59.7969 63.0293 59.3295L63.0541 59.1672C63.1037 58.7908 62.9549 58.6544 62.8805 58.596C62.4755 58.2455 61.4258 58.0053 60.2686 58.0053C59.9131 58.0053 59.5743 58.0313 59.285 58.0703C58.0864 58.239 57.1937 58.6415 56.8962 59.1413C56.7309 59.4139 56.7805 59.7385 56.8549 59.9656C57.0036 60.4525 57.1442 60.6018 57.1524 60.6082C57.483 60.764 58.103 61.0886 58.4419 61.7636C58.9213 62.7048 58.632 63.3604 58.3013 63.7434C58.0368 64.0485 57.4169 64.5548 56.1853 64.5548C55.8795 64.5548 55.5158 64.5223 55.1852 64.4769C55.0943 64.4704 55.0116 64.4574 54.9372 64.4509Z" fill="#757F3F"/>
<path d="M41.05 41.3C40.9 38.88 42 36.21 44.97 33.51C47.11 31.57 49.5 30.61 52.39 30.53C58.98 30.35 65.55 32.81 64.97 40.74C64.74 44.04 61.09 47.2 58.41 48.69C55.15 50.5 51.26 51.01 47.66 49.96C46.04 49.48 43.84 48.46 42.73 47.16C41.56 45.8 41.17 43.04 41.05 41.3Z" fill="#ED6C30"/>
<path d="M53.56 36.35L52.11 38.67L55.59 38.96L56.75 36.35L55.01 34.61L53.56 36.35ZM48.79 40.75L46.06 40.92L47.84 43.91L50.63 43.35L51.05 40.92L48.79 40.75ZM58.02 42.57L55.23 42.56L57.26 45.9L60.08 45.48L60.34 42.91L58.02 42.57ZM48.26 47.49L49.71 46.55L50.65 47.42L50.14 48.21L49.05 48.43L48.26 47.49ZM59.7 39.52L59.27 41.04L61.08 41.11L61.15 39.67L59.7 39.52ZM60.64 34.16C60.64 34.16 59.34 35.39 59.55 35.46C59.77 35.53 61.58 35.75 61.58 35.75L62.3 34.59L60.64 34.16ZM49.63 34.45C49.63 34.45 47.96 36.19 48.4 36.19C48.83 36.19 50.07 35.97 50.07 35.97L50.79 34.81L49.63 34.45ZM42.9 43.07L42.25 44.23L43.26 45.32C43.26 45.32 43.91 44.52 43.91 44.23C43.91 43.94 43.62 43.07 43.62 43.07H42.9Z" fill="white"/>
<path d="M75.86 58.63C76.11 56.23 77.63 53.77 81 51.6C83.43 50.04 85.94 49.48 88.8 49.88C95.34 50.78 101.41 54.29 99.54 62.01C98.76 65.22 94.65 67.74 91.76 68.76C88.24 70.02 84.32 69.87 80.95 68.24C79.43 67.51 77.43 66.13 76.54 64.67C75.61 63.15 75.67 60.37 75.86 58.63Z" fill="#ED6C30"/>
<path d="M84.65 54.69L85.07 57.39L87.89 55.33L87.07 52.6L84.61 52.42L84.65 54.69ZM83.92 61.14L81.96 63.04L85.27 64.15L87.02 61.89L85.74 59.79L83.92 61.14ZM92.09 56.48L89.98 58.3L93.69 59.5L95.55 57.33L94.07 55.22L92.09 56.48ZM91.84 63.79L93.29 62.84L94.23 63.72L93.73 64.51L92.64 64.73L91.84 63.79ZM84.52 65.62C84.52 65.62 83.22 66.85 83.43 66.92C83.65 66.99 85.46 67.21 85.46 67.21L86.18 66.05L84.52 65.62ZM79.66 56.52L79.01 57.68L80.02 58.77C80.02 58.77 80.67 57.97 80.67 57.68C80.67 57.39 80.38 56.52 80.38 56.52H79.66Z" fill="white"/>
<path fill-rule="evenodd" clip-rule="evenodd" d="M117.82 55.89C121.1 55.14 124.09 56.62 125.83 59.5C127.11 61.6071 127.093 64.9269 127.081 67.3573C127.081 67.453 127.08 67.5472 127.08 67.64C127.06 68.77 126.99 69.92 126.87 71.07C126.7 72.71 126.43 74.34 126.07 75.95C125.107 80.274 121.248 81.6603 117.49 83.0099C117.111 83.146 116.734 83.2817 116.36 83.42C109.22 86.07 102.02 88.58 94.8 91.04C91.1316 92.2794 87.4633 93.5089 83.7949 94.7383L83.79 94.74C82.4723 95.1792 81.1721 95.6861 79.8709 96.1934C78.7002 96.6499 77.5287 97.1066 76.343 97.5145L76 97L74 96L73 94L70 93L67 91.5L64.5 91L64.3987 91C64.8866 90.6654 65.3596 90.2173 65.82 89.63C66.2425 89.0965 66.5869 88.5101 66.9313 87.9237C67.239 87.3998 67.5467 86.876 67.91 86.39C70.04 83.57 74.47 82.43 77.95 81.83C81.43 81.23 84.25 80.51 87.29 78.72C89.37 77.5 91.89 76.07 94.07 75.05C95.5972 74.3416 97.2874 74.0818 98.9721 73.8228C100.95 73.5188 102.92 73.216 104.61 72.19C106.475 71.068 107.441 68.3965 108.334 65.9239C108.738 64.8044 109.128 63.7257 109.58 62.85C111.03 60.03 114.74 56.6 117.82 55.89Z" fill="#DDA450"/>
</svg>
