<svg width="128" height="128" viewBox="0 0 128 128" fill="none" xmlns="http://www.w3.org/2000/svg">
<path d="M69.08 10.5899C56.21 8.31994 48.41 15.9399 47.31 28.3099C47.07 30.9899 44.93 33.3499 43.3 35.4599C37.83 42.5699 32.22 50.0099 26.48 56.9499C21.5 62.9599 17.23 69.4799 12.85 75.9199C3.73996 89.3799 0.139959 99.7999 5.21996 115.79C6.32996 119.31 8.86996 125.06 13.44 124.84C18.01 124.63 18.73 118.82 19.56 115.51C19.98 113.81 20.48 111.79 21.88 110.57C22.63 109.92 23.26 110.13 24.1 109.9C24.95 109.67 25.02 109.5 25.69 109.01C27.56 107.64 28.07 108.3 29.51 109.71C31.58 111.74 35.01 111.58 37.63 111.06C39.16 110.76 39.66 110.43 40.57 109.29C41.55 108.05 43.05 107.24 43.92 105.92C44.82 104.56 44.85 104.08 46.51 103.53C50.05 102.36 51.02 104.82 53.55 106.55C56.03 108.25 59.4 108.91 62.33 108.23C63.75 107.9 64.16 107.51 64.86 106.35C65.69 104.96 66.77 104.02 67.77 102.76C68.87 101.36 69.75 100.51 71.26 99.5599C72.63 98.6999 73.86 98.3199 75.41 97.8299C78.25 96.9299 80.99 95.6799 83.81 94.7399C87.48 93.5099 91.15 92.2799 94.82 91.0399C102.04 88.5799 109.24 86.0699 116.38 83.4199C120.46 81.9099 125.03 80.7099 126.09 75.9499C126.45 74.3399 126.72 72.7099 126.89 71.0699C128.76 53.2299 118.19 37.3999 104.55 26.7599C97.65 21.3799 89.87 17.0599 81.65 14.0199C78.5 12.8699 73.92 11.4499 69.08 10.5899Z" fill="#FFE082"/>
<path d="M52.39 81.54C51.97 81.54 51.57 81.52 51.16 81.49C47.22 81.11 44.16 77.61 44.03 73.33C43.96 70.82 45.11 68.49 47.19 66.95C47.71 66.56 48.57 65.99 49.53 65.63C49.34 65.18 49.17 64.67 49.03 64.11C48.65 62.57 48.77 61.07 49.39 59.76C50.42 57.57 52.64 56.08 55.64 55.52C56.27 55.41 56.96 55.35 57.67 55.35C58.99 55.35 62.28 55.59 64.27 57.8C64.95 58.55 65.39 59.44 65.58 60.43C68.85 59.66 72.49 61.15 74.21 64.02C76.28 67.48 75.97 72.7 72.2 74.97C70.52 75.98 68.7 76.44 66.45 76.44C66.08 76.44 65.83 76.46 65.56 76.48C64.54 76.52 63.54 76.52 62.75 76.34C62.4631 76.2709 62.1847 76.1703 61.92 76.04C61.9 76.08 61.88 76.11 61.86 76.15C60.95 77.6 59.77 79.21 57.42 80.12C57.22 80.2 57.03 80.31 56.85 80.42C56.4 80.67 55.94 80.92 55.44 81.08C54.53 81.39 53.51 81.54 52.39 81.54ZM51.21 69.91C51.17 69.94 50.57 70.23 49.96 70.68C49.1 71.31 48.65 72.21 48.67 73.21C48.71 74.89 49.83 76.7 51.6 76.88C52.44 76.95 53.33 76.91 53.96 76.7C54.18 76.63 54.37 76.5 54.57 76.39C54.95 76.17 55.33 75.97 55.74 75.81C56.6 75.48 57.12 74.98 57.94 73.67C57.97 73.61 58 73.53 58.04 73.44C58.26 72.94 58.63 72.09 59.51 71.51C60.11 71.11 60.75 70.9 61.43 70.9C62.48 70.9 63.25 71.41 63.7 71.7C63.78 71.75 63.86 71.82 63.95 71.85C63.98 71.85 64.19 71.87 64.45 71.87C64.73 71.87 65.03 71.85 65.32 71.83C65.67 71.81 66.02 71.79 66.34 71.79C67.85 71.79 68.86 71.55 69.81 70.98C71.1 70.2 71.1 67.84 70.24 66.4C69.44 65.06 67.56 64.48 66.1 65.11L66.02 65.19C65.45 65.59 64.46 66.24 63.29 66.09C62.9235 66.0404 62.5708 65.9175 62.2529 65.7285C61.935 65.5395 61.6586 65.2883 61.44 64.99C60.67 63.94 60.88 62.74 61 62.02L61.03 61.77C61.09 61.19 60.91 60.98 60.82 60.89C60.33 60.35 59.06 59.98 57.66 59.98C57.23 59.98 56.82 60.02 56.47 60.08C55.02 60.34 53.94 60.96 53.58 61.73C53.38 62.15 53.44 62.65 53.53 63C53.71 63.75 53.88 63.98 53.89 63.99C54.29 64.23 55.04 64.73 55.45 65.77C56.03 67.22 55.68 68.23 55.28 68.82C54.96 69.29 54.21 70.07 52.72 70.07C52.35 70.07 51.91 70.02 51.51 69.95C51.4 69.94 51.3 69.92 51.21 69.91Z" fill="#757F3F"/>
<path d="M16.7501 69.45C17.0001 67.05 18.5201 64.59 21.8901 62.42C24.3201 60.86 26.8301 60.3 29.7001 60.7C36.2401 61.6 42.3101 65.11 40.4301 72.83C39.6501 76.04 35.5401 78.56 32.6501 79.59C29.1301 80.85 25.2101 80.7 21.8401 79.07C20.3201 78.34 18.3201 76.96 17.4301 75.5C16.5001 73.97 16.5601 71.19 16.7501 69.45Z" fill="#ED6C30"/>
<path d="M34.8 66.86L33.35 69.17L36.83 69.46L37.99 66.86L36.25 65.12L34.8 66.86ZM24.53 69.75L21.8 69.91L23.58 72.91L26.38 72.34L26.79 69.92L24.53 69.75ZM29.78 74.79L27 74.78L29.02 78.11L31.85 77.69L32.1 75.12L29.78 74.79ZM37.53 70.6L37.1 72.12L38.91 72.19L38.98 70.74L37.53 70.6ZM30.89 70.54C30.89 70.54 29.59 71.77 29.8 71.84C30.02 71.91 31.83 72.13 31.83 72.13L32.55 70.97L30.89 70.54ZM21.78 73.86C21.78 73.86 20.12 75.6 20.55 75.6C20.98 75.6 22.22 75.38 22.22 75.38L22.94 74.22L21.78 73.86ZM29.7 62.83C29.7 62.83 26.68 65.98 27.47 65.98C28.26 65.98 30.49 65.59 30.49 65.59L31.8 63.49L29.7 62.83Z" fill="white"/>
<path d="M41.05 41.3C40.9 38.88 42 36.21 44.97 33.51C47.11 31.57 49.5 30.61 52.39 30.53C58.98 30.35 65.55 32.81 64.97 40.74C64.74 44.04 61.09 47.2 58.41 48.69C55.15 50.5 51.26 51.01 47.66 49.96C46.04 49.48 43.84 48.46 42.73 47.16C41.56 45.8 41.17 43.04 41.05 41.3Z" fill="#ED6C30"/>
<path d="M53.56 36.35L52.11 38.67L55.59 38.96L56.75 36.35L55.01 34.61L53.56 36.35ZM48.79 40.75L46.06 40.92L47.84 43.91L50.63 43.35L51.05 40.92L48.79 40.75ZM58.02 42.57L55.23 42.56L57.26 45.9L60.08 45.48L60.34 42.91L58.02 42.57ZM48.26 47.49L49.71 46.55L50.65 47.42L50.14 48.21L49.05 48.43L48.26 47.49ZM59.7 39.52L59.27 41.04L61.08 41.11L61.15 39.67L59.7 39.52ZM60.64 34.16C60.64 34.16 59.34 35.39 59.55 35.46C59.77 35.53 61.58 35.75 61.58 35.75L62.3 34.59L60.64 34.16ZM49.63 34.45C49.63 34.45 47.96 36.19 48.4 36.19C48.83 36.19 50.07 35.97 50.07 35.97L50.79 34.81L49.63 34.45ZM42.9 43.07L42.25 44.23L43.26 45.32C43.26 45.32 43.91 44.52 43.91 44.23C43.91 43.94 43.62 43.07 43.62 43.07H42.9Z" fill="white"/>
<path d="M75.86 58.63C76.11 56.23 77.63 53.77 81 51.6C83.43 50.04 85.94 49.48 88.8 49.88C95.34 50.78 101.41 54.29 99.54 62.01C98.76 65.22 94.65 67.74 91.76 68.76C88.24 70.02 84.32 69.87 80.95 68.24C79.43 67.51 77.43 66.13 76.54 64.67C75.61 63.15 75.67 60.37 75.86 58.63Z" fill="#ED6C30"/>
<path d="M84.65 54.69L85.07 57.39L87.89 55.33L87.07 52.6L84.61 52.42L84.65 54.69ZM83.92 61.14L81.96 63.04L85.27 64.15L87.02 61.89L85.74 59.79L83.92 61.14ZM92.09 56.48L89.98 58.3L93.69 59.5L95.55 57.33L94.07 55.22L92.09 56.48ZM91.84 63.79L93.29 62.84L94.23 63.72L93.73 64.51L92.64 64.73L91.84 63.79ZM84.52 65.62C84.52 65.62 83.22 66.85 83.43 66.92C83.65 66.99 85.46 67.21 85.46 67.21L86.18 66.05L84.52 65.62ZM79.66 56.52L79.01 57.68L80.02 58.77C80.02 58.77 80.67 57.97 80.67 57.68C80.67 57.39 80.38 56.52 80.38 56.52H79.66Z" fill="white"/>
<path d="M54.1 25.35C57 24.23 59.5 25.61 62.37 26.65C64.42 27.4 66.4 28.33 68.37 29.25C74.44 32.1 80.51 34.9401 86.57 37.79C89.53 39.18 92.5 40.58 95.12 42.54C98.21 44.85 100.89 47.5 103.33 50.49C105.29 52.88 107.25 57.13 106.73 60.19C106.44 61.21 105.64 60.6101 105.47 60.25C102.907 55.1257 99.139 50.6992 94.49 47.35C88.73 43.22 81.88 40.92 75.09 38.86C73.4 38.34 71.67 37.83 70.18 36.88C68.51 35.82 67.22 34.2801 65.72 32.9901C62.18 29.9301 57.44 28.29 52.76 28.51C51.77 28.6 52.31 26.12 54.1 25.35Z" fill="#DDA450"/>
<path d="M125.83 59.5C124.09 56.62 121.1 55.14 117.82 55.89C114.74 56.6 111.03 60.03 109.58 62.85C108.13 65.66 107.32 70.56 104.61 72.19C101.48 74.09 97.39 73.51 94.07 75.05C91.89 76.07 89.37 77.5 87.29 78.72C84.25 80.51 81.43 81.23 77.95 81.83C74.47 82.43 70.04 83.57 67.91 86.39C67.14 87.42 66.62 88.62 65.82 89.63C62.7 93.61 59 91.2 54.01 90.36C52.42 90.09 50.4 89.92 48.85 90.36C47.21 90.82 44.02 93.2 42.51 94C38.73 96.02 34.43 94.16 30.5 95.87C25.31 98.13 22.62 103.94 17.93 107.12C15.26 108.93 11.88 109.81 8.73999 109.08C6.36999 108.53 4.19999 106.98 2.98999 104.89C3.23999 108.27 3.94999 111.86 5.19999 115.79C6.30999 119.31 8.84999 125.06 13.42 124.84C17.99 124.63 18.71 118.82 19.54 115.51C19.96 113.81 20.46 111.79 21.86 110.57C22.61 109.92 23.24 110.13 24.08 109.9C24.93 109.67 25 109.5 25.67 109.01C27.54 107.64 28.05 108.3 29.49 109.71C31.56 111.74 34.99 111.58 37.61 111.06C39.14 110.76 39.64 110.43 40.55 109.29C41.53 108.05 43.03 107.24 43.9 105.92C44.8 104.56 44.83 104.08 46.49 103.53C50.03 102.36 51 104.82 53.53 106.55C56.01 108.25 59.38 108.91 62.31 108.23C63.73 107.9 64.14 107.51 64.84 106.35C65.67 104.96 66.75 104.02 67.75 102.76C68.85 101.36 69.73 100.51 71.24 99.56C72.61 98.7 73.84 98.32 75.39 97.83C78.23 96.93 80.97 95.68 83.79 94.74C87.46 93.51 91.13 92.28 94.8 91.04C102.02 88.58 109.22 86.07 116.36 83.42C120.44 81.91 125.01 80.71 126.07 75.95C126.43 74.34 126.7 72.71 126.87 71.07C126.99 69.92 127.06 68.77 127.08 67.64C127.09 65.19 127.16 61.69 125.83 59.5Z" fill="#DDA450"/>
</svg>
