<svg width="93" height="104" viewBox="0 0 93 104" fill="none" xmlns="http://www.w3.org/2000/svg">
<path fill-rule="evenodd" clip-rule="evenodd" d="M40.1954 101.685C42.0979 102.634 44.1193 103.229 46.1408 103.229C48.2811 103.229 50.1836 102.754 51.9672 101.685L86.6884 81.8405C90.2556 79.8205 92.5148 76.0175 92.5148 71.8591L92.6338 31.6964C92.6338 27.5376 90.3745 23.7352 86.8073 21.5963L52.2051 1.515C48.7567 -0.505 44.2382 -0.505 40.671 1.515L5.83096 21.4775C2.26373 23.4975 0.00447591 27.2999 0.00447591 31.4588V71.5026C-0.114432 75.6615 2.14482 79.5825 5.71206 81.6025L40.1954 101.685ZM41.2655 2.5844C42.8113 1.6338 44.595 1.1585 46.3786 1.1585C48.2811 1.1585 50.0647 1.6338 51.6105 2.5844L86.2127 22.6658C89.4232 24.5669 91.4447 28.0128 91.4447 31.8152L91.3258 71.8591C91.3258 75.6615 89.3043 79.1075 86.0938 80.8895L51.3727 100.733C48.1622 102.634 44.0004 102.634 40.7899 100.733L6.18769 80.6525C3.09608 78.7505 1.07465 75.3045 1.07465 71.6214L1.19356 31.5776C1.19356 27.7752 3.21499 24.3293 6.4255 22.5469L41.2655 2.5844ZM7.73349 30.8646L41.2655 50.3519C43.5248 51.6589 44.8328 54.0354 44.7139 56.5307L44.595 95.2675C44.595 96.3365 44.0004 97.4065 43.0491 97.8815C42.0979 98.4755 41.0277 98.4755 40.0765 97.8815L7.37677 78.8695C4.76079 77.3255 3.09608 74.4735 3.09608 71.3838L3.21499 33.4788C3.21499 32.4094 3.80953 31.3399 4.76079 30.8646C5.71206 30.2705 6.78223 30.2705 7.73349 30.8646ZM8.56585 44.8859C8.44694 47.7377 10.2306 51.3024 12.6087 52.8472C14.9869 54.3919 17.0083 53.3225 17.1272 50.4707C17.2461 47.6189 15.4625 44.0542 13.0843 42.5094C10.7062 40.9647 8.68476 42.0341 8.56585 44.8859ZM19.1487 62.2343C19.0297 65.0861 20.8134 68.6508 23.1915 70.1955C25.5697 71.7403 27.5911 70.6708 27.71 67.819C27.8289 64.9673 26.0453 61.4025 23.6672 59.8578C21.289 58.3131 19.2676 59.3825 19.1487 62.2343ZM29.7315 79.5825C29.6126 82.4345 31.3962 85.9995 33.7743 87.5435C36.1525 89.0885 38.1739 88.0195 38.2928 85.1675C38.4117 82.3155 36.6281 78.7505 34.25 77.2065C31.8718 75.6615 29.8504 76.7305 29.7315 79.5825ZM82.8833 23.3787L50.6593 4.6044C48.0433 3.0597 44.7139 3.0597 42.0979 4.6044L9.75493 23.141C8.80366 23.6163 8.20912 24.6858 8.20912 25.7552C8.20912 26.8246 8.80366 27.7752 9.63602 28.3693L42.5735 47.5001C44.8328 48.8071 47.5676 48.8071 49.708 47.5001L82.7644 28.607C83.7157 28.1317 84.3102 27.0623 84.3102 25.9928C84.4291 24.9234 83.8346 23.854 82.8833 23.3787ZM50.7782 27.4187C48.2811 28.8446 44.3571 28.8446 41.8601 27.4187C39.363 25.9928 39.4819 23.7352 41.979 22.3093C44.476 20.8834 48.4 20.8834 50.8971 22.3093C53.2752 23.7352 53.2752 26.1117 50.7782 27.4187ZM84.7858 31.3399C85.7371 30.7458 86.8073 30.7458 87.7585 31.3399C88.7098 31.8152 89.3043 32.8847 89.3043 33.9541L89.1854 71.7402C89.1854 74.5925 87.6396 77.2065 85.1425 78.6325L52.324 97.4065C51.3727 98.0005 50.3025 98.0005 49.3513 97.4065C48.4 96.8125 47.8055 95.8615 47.8055 94.7925L47.9244 56.5307C47.9244 54.0354 49.2324 51.6589 51.4916 50.3518L84.7858 31.3399ZM54.9399 81.8405C54.9399 84.6925 56.9614 85.8805 59.4584 84.4545C61.9555 83.0285 63.9769 79.5825 63.9769 76.7305C63.9769 73.8791 61.9555 72.6908 59.4584 74.1167C56.9614 75.5425 54.9399 78.9885 54.9399 81.8405ZM72.3005 51.8966C72.3005 54.7484 74.3219 55.9366 76.819 54.5107C79.3161 53.2036 81.3375 49.6389 81.3375 46.7871C81.3375 43.9353 79.3161 42.7471 76.819 44.173C74.3219 45.5989 72.3005 49.0448 72.3005 51.8966Z" fill="#FF684D"/>
</svg>
